<svg width="479" height="973" viewBox="0 0 479 973" fill="none" xmlns="http://www.w3.org/2000/svg">
<g clip-path="url(#clip0)">
<rect width="479" height="973" fill="white"/>
<g clip-path="url(#clip1)">
<path d="M27.9879 477.182C16.0155 471.627 5.8054 463.82 -1.81057 454.398C-9.42653 444.976 -14.233 434.205 -15.8384 422.963C-21.9899 380.891 -18.5345 291.324 117.065 275.517C211.995 264.449 274.454 227.517 314.147 225.338C341.019 223.862 403.237 227.475 427.919 268.14C452.601 308.805 471.327 325.17 485.25 334.554C499.174 343.938 509.015 381.777 500.477 400.967C490.554 423.265 473.15 442.2 393.408 461.49C313.666 480.78 172.536 504.24 88.3639 493.292C62.0428 489.867 42.468 483.845 27.9879 477.182Z" fill="#F8F8FF"/>
<path d="M-15.2372 429.433C-15.2372 429.433 164.359 399.023 206.122 408.282C247.886 417.541 342.658 416.686 362.961 413.897C398.028 409.08 452.056 422.692 464.138 418.213C470.093 416.003 491.2 417.541 491.2 417.541C491.2 417.541 448.607 458.628 333.089 475.368C223.412 491.264 143.614 502.697 70.5296 488.803C-2.55442 474.909 -15.2372 429.433 -15.2372 429.433Z" fill="#F5F5FC"/>
<path d="M2.6604 427.217C2.6604 427.217 54.6381 327.505 93.6167 319.325C132.595 311.146 118.299 321.14 158.587 308.445C198.876 295.75 204.559 276.336 212.109 304.629C219.659 332.922 213.324 416.384 213.324 416.384C213.324 416.384 31.2472 419.053 2.6604 427.217Z" fill="#E9EDFA"/>
<path d="M201.869 418.146C201.869 418.146 228.963 276.487 277.048 277.503C325.134 278.52 350.461 284.87 379.067 287.586C407.673 290.302 420.546 315.061 432.823 323.084C445.101 331.108 465.612 343.417 471.315 359.01C477.017 374.603 516.502 420.122 472.479 423.75C428.456 427.379 205.679 417.854 205.679 417.854" fill="#E9EDFA"/>
<path d="M76.5291 267.207L29.0005 423.406L32.9813 423.182L76.5291 267.207Z" fill="#BAC6F2"/>
<path d="M74.4407 241.249C74.4407 241.249 73.0357 261.806 76.5481 267.202C76.5291 267.202 82.7882 255.159 74.4407 241.249Z" fill="#BAC6F2"/>
<path d="M59.0556 247.688C59.0556 247.688 66.8969 264.532 72.4472 267.572C72.4472 267.551 72.7509 255.758 59.0556 247.688Z" fill="#BAC6F2"/>
<path d="M90.8131 235.389C90.8131 235.389 75.1748 258.167 77.4089 266.279C77.4089 266.279 95.4583 255.951 90.8131 235.389Z" fill="#BAC6F2"/>
<path d="M51.7649 255.518C51.7649 255.518 59.9353 277.185 62.625 283.254C63.2579 284.682 63.8275 285.339 64.3274 285.407C65.8337 285.673 66.7134 280.981 66.7007 277.769C66.6817 273.489 63.049 260.398 51.7649 255.518Z" fill="#BAC6F2"/>
<path d="M64.6059 285.042C64.6059 285.042 64.5363 284.927 64.5616 285.11C64.8591 287.065 66.7007 298.904 66.4096 300.943C66.0931 303.174 67.5298 298.049 67.5298 298.049L64.6059 285.042Z" fill="#BAC6F2"/>
<path d="M72.4282 267.363C72.4282 267.363 72.2003 267.264 72.2257 267.363C72.9598 269.235 73.0294 277.097 72.7383 279.14C72.4218 281.372 73.5357 277.352 73.5357 277.352L72.4282 267.363Z" fill="#BAC6F2"/>
<path d="M47.2715 264.423C47.2715 264.423 51.5117 293.008 55.7203 299.4C61.0808 307.533 62.0491 292.184 61.3086 289.364C60.5682 286.543 57.8152 270.257 47.2715 264.423Z" fill="#BAC6F2"/>
<path d="M72.4282 267.363C72.4282 267.363 72.2003 267.264 72.2257 267.363C72.9598 269.235 73.0294 277.097 72.7383 279.14C72.4218 281.372 73.5357 277.352 73.5357 277.352L72.4282 267.363Z" fill="#BAC6F2"/>
<path d="M58.8467 300.719C58.8467 300.719 58.7771 300.593 58.8087 300.792C59.1252 302.971 61.0807 316.171 60.8023 318.444C60.5048 320.926 61.8971 315.233 61.8971 315.233L58.8467 300.719Z" fill="#BAC6F2"/>
<path d="M30.5194 276.414C30.5194 276.414 42.6642 308.737 48.6005 315.514C56.1507 324.122 54.828 305.609 53.3027 302.481C51.7775 299.353 42.5503 281.627 30.5194 276.414Z" fill="#BAC6F2"/>
<path d="M52.4484 317.407C52.4484 317.407 52.2269 316.885 52.2586 317.084C52.613 319.513 55.8469 332.656 55.5368 335.19C55.2014 337.958 56.8026 332.062 56.8026 332.062L52.4484 317.407Z" fill="#BAC6F2"/>
<path d="M21.7858 292.054C21.7858 292.054 36.9747 325.519 42.9427 332.719C50.5371 341.91 48.0056 321.249 45.6197 315.624C43.1452 309.899 33.842 297.648 21.7858 292.054Z" fill="#BAC6F2"/>
<path d="M46.7969 334.773C46.7969 334.773 46.5754 334.189 46.607 334.429C46.9741 337.035 50.2777 351.023 49.9802 353.718C49.6574 356.669 51.246 350.418 51.246 350.418L46.7969 334.773Z" fill="#BAC6F2"/>
<path d="M16.438 309.044C16.438 309.044 31.6269 342.509 37.5949 349.709C45.1894 358.9 42.6579 338.24 40.272 332.614C37.7974 326.895 28.4942 314.649 16.438 309.044Z" fill="#BAC6F2"/>
<path d="M41.4491 351.774C41.4491 351.774 41.2276 351.19 41.2592 351.43C41.6263 354.036 44.9678 368.493 44.6767 371.194C44.3539 374.144 46.164 367.31 46.164 367.31L41.4491 351.774Z" fill="#BAC6F2"/>
<path d="M5.91968 324.174C5.91968 324.174 25.0071 358.676 30.9814 365.881C38.5759 375.072 34.69 351.669 32.2472 346.07C29.8043 340.351 17.9759 329.778 5.91968 324.174Z" fill="#BAC6F2"/>
<path d="M34.0761 367.815C34.0761 367.815 33.9242 367.502 33.9622 367.815C34.3736 370.943 38.6771 388.148 38.4303 391.39C38.1581 394.936 40.2783 386.803 40.2783 386.803L34.0761 367.815Z" fill="#BAC6F2"/>
<path d="M-7.68707 343.145C-7.68707 343.145 -0.0926093 355.559 9.04606 365.845C15.1849 372.752 23.0199 378.018 26.007 380.52C35.5001 388.45 25.8994 366.872 22.3111 361.716C18.6341 356.44 5.39439 346.894 -7.68707 343.145Z" fill="#BAC6F2"/>
<path d="M29.5448 381.803C29.5448 381.803 29.3929 381.49 29.4309 381.803C29.8422 384.931 34.4496 403.522 34.0255 406.754C33.9243 407.521 35.9242 400.926 35.9242 400.926L29.5448 381.803Z" fill="#BAC6F2"/>
<path d="M-13.1425 361.168C-13.1425 361.168 -4.624 375.135 5.57156 386.75C12.4129 394.571 21.0896 400.519 24.4058 403.355C34.9178 412.333 24.0704 388.085 20.0517 382.272C15.938 376.318 1.2617 365.495 -13.1425 361.168Z" fill="#BAC6F2"/>
<path d="M-25.5526 391.109C-25.5526 391.109 -8.46508 399.054 3.83795 406.749C18.2611 415.779 20.7483 416.759 24.8619 417.739C37.8991 420.841 16.4827 398.126 10.4072 394.988C4.19236 391.771 -11.351 388.81 -25.5526 391.109Z" fill="#BAC6F2"/>
<path d="M28.5891 405.42C28.5087 405.199 28.4093 404.983 28.2917 404.773C28.5828 406.395 31.9623 413.678 31.4117 415.377C31.2852 415.779 32.456 412.416 32.456 412.416L28.5891 405.42Z" fill="#BAC6F2"/>
<path d="M27.3361 416.827C27.3361 416.827 27.045 416.441 27.0703 416.514C27.2918 417.311 30.3612 420.831 29.741 421.691C29.5954 421.894 30.9055 420.189 30.9055 420.189L27.3361 416.827Z" fill="#BAC6F2"/>
<path d="M88.5411 248.637C88.5411 248.637 79.972 267.712 75.3773 272.029C75.3773 272.029 77.1115 259.892 88.5411 248.637Z" fill="#BAC6F2"/>
<path d="M94.8698 257.265C94.8698 257.265 82.4149 271.299 77.6747 273.093C77.6747 273.093 82.8959 262.223 94.8698 257.265Z" fill="#BAC6F2"/>
<path d="M81.3201 240.363C81.3201 240.363 80.3328 263.99 75.2635 271.028C75.2635 271.028 69.0993 258.365 81.3201 240.363Z" fill="#BAC6F2"/>
<path d="M95.6799 265.731C95.6799 265.731 80.8201 284.119 76.4153 289.192C75.3774 290.386 74.7445 290.871 74.3964 290.86C73.3648 290.86 74.9787 286.387 76.4596 283.447C78.4405 279.542 86.6425 268.192 95.6799 265.731Z" fill="#BAC6F2"/>
<path d="M74.4028 290.49C74.4028 290.49 74.4977 290.396 74.4028 290.558C73.3269 292.294 66.8083 302.809 66.0362 304.728C65.2071 306.813 66.669 301.881 66.669 301.881L74.4028 290.49Z" fill="#BAC6F2"/>
<path d="M77.776 272.905C77.776 272.905 77.9595 272.858 77.9088 272.905C76.6051 274.469 72.9598 281.674 72.213 283.598C71.3839 285.683 72.5484 281.82 72.5484 281.82L77.776 272.905Z" fill="#BAC6F2"/>
<path d="M94.3192 274.678C94.3192 274.678 78.6683 300.098 73.175 305.202C66.2134 311.698 72.6497 297.465 74.3964 295.02C76.1431 292.575 85.2755 278.15 94.3192 274.678Z" fill="#BAC6F2"/>
<path d="M77.776 272.905C77.776 272.905 77.9595 272.858 77.9088 272.905C76.6051 274.469 72.9598 281.674 72.213 283.598C71.3839 285.683 72.5484 281.82 72.5484 281.82L77.776 272.905Z" fill="#BAC6F2"/>
<path d="M70.7005 305.859C70.7005 305.859 70.8017 305.755 70.7005 305.937C69.5107 307.877 62.2833 319.617 61.4099 321.744C60.4543 324.07 62.22 318.616 62.22 318.616L70.7005 305.859Z" fill="#BAC6F2"/>
<path d="M98.9455 288.618C98.9455 288.618 76.795 316.077 70.1118 321.218C61.606 327.761 70.8839 311.052 73.2762 308.445C75.6684 305.838 89.2942 291.267 98.9455 288.618Z" fill="#BAC6F2"/>
<path d="M66.9159 322.292C66.9159 322.292 67.3019 321.833 67.1754 322.031C65.8463 324.195 57.8785 335.654 56.8975 338.031C55.8343 340.638 57.5304 334.966 57.5304 334.966L66.9159 322.292Z" fill="#BAC6F2"/>
<path d="M97.0532 304.498C97.0532 304.498 72.5421 332.448 65.6375 338C56.8342 345.069 67.8272 326.572 71.8523 321.869C75.9786 317.078 87.2057 307.491 97.0532 304.498Z" fill="#BAC6F2"/>
<path d="M62.3719 339.183C62.3719 339.183 62.7706 338.688 62.644 338.902C61.2327 341.206 52.8218 353.447 51.7649 355.97C50.6068 358.728 52.518 352.728 52.518 352.728L62.3719 339.183Z" fill="#BAC6F2"/>
<path d="M92.4965 321.009C92.4965 321.009 67.9917 348.958 61.0808 354.511C52.2775 361.58 63.2705 343.083 67.2956 338.38C71.4219 333.568 82.668 324.002 92.4965 321.009Z" fill="#BAC6F2"/>
<path d="M57.8151 355.694C57.8151 355.694 58.2139 355.199 58.0873 355.413C56.676 357.717 48.031 370.38 46.9678 372.904C45.8096 375.661 47.8474 369.082 47.8474 369.082L57.8151 355.694Z" fill="#BAC6F2"/>
<path d="M91.9143 336.733C91.9143 336.733 64.5805 364.937 57.6633 370.495C48.86 377.564 61.9351 356.82 65.9602 352.118C70.0802 347.316 82.0351 339.725 91.9143 336.733Z" fill="#BAC6F2"/>
<path d="M54.9166 371.694C54.9166 371.694 55.1508 371.433 54.9989 371.694C53.3218 374.478 42.8351 389.472 41.4998 392.485C40.0378 395.801 42.4807 387.981 42.4807 387.981L54.9166 371.694Z" fill="#BAC6F2"/>
<path d="M91.4396 356.528C91.4396 356.528 81.1681 366.543 70.9346 374.343C64.0616 379.556 56.9228 383.007 53.9673 384.769C44.6198 390.348 60.296 372.294 64.8147 368.206C69.4537 363.999 81.8263 357.628 91.4396 356.528Z" fill="#BAC6F2"/>
<path d="M51.246 385.312C51.246 385.312 51.4801 385.051 51.3283 385.312C49.6511 388.095 38.3481 404.309 37.1203 407.343C36.8292 408.063 38.6455 401.671 38.6455 401.671L51.246 385.312Z" fill="#BAC6F2"/>
<path d="M86.4653 373.993C86.4653 373.993 74.9217 385.27 63.4414 394.096C55.733 400.024 47.7589 403.949 44.4553 405.957C33.9939 412.312 51.6573 392.032 56.7456 387.423C61.9795 382.705 75.8014 375.396 86.4653 373.993Z" fill="#BAC6F2"/>
<path d="M80.2568 403.621C80.2568 403.621 66.2957 407.86 55.3406 412.724C42.4934 418.432 40.5441 418.886 37.6202 419.053C28.3297 419.574 51.6637 402.584 56.7773 400.806C61.9921 398.929 72.7383 398.986 80.2568 403.621Z" fill="#BAC6F2"/>
<path d="M41.0061 407.104C41.0061 407.104 41.5693 406.431 41.4807 406.582C40.563 408.016 35.1837 414.084 34.7343 415.737C34.6267 416.128 35.4621 412.838 35.4621 412.838L41.0061 407.104Z" fill="#BAC6F2"/>
<path d="M36.538 417.77C36.538 417.77 36.8924 417.468 36.8418 417.53C36.3418 418.219 32.88 420.898 32.8547 421.795C32.8547 422.009 32.8547 420.231 32.8547 420.231L36.538 417.77Z" fill="#BAC6F2"/>
<path d="M187.06 235.358L116.704 418.213L122.552 418.151L187.06 235.358Z" fill="#BAC6F2"/>
<path d="M183.927 204.667C183.927 204.667 181.826 228.977 187.092 235.358C187.06 235.358 196.42 221.115 183.927 204.667Z" fill="#BAC6F2"/>
<path d="M160.929 212.289C160.929 212.289 172.65 232.209 180.953 235.801C180.953 235.791 181.396 221.824 160.929 212.289Z" fill="#BAC6F2"/>
<path d="M208.42 197.738C208.42 197.738 185.041 224.665 188.358 234.268C188.358 234.268 215.369 222.053 208.42 197.738Z" fill="#BAC6F2"/>
<path d="M150.031 221.542C150.031 221.542 162.252 247.161 166.27 254.34C167.213 256.029 168.068 256.785 168.802 256.889C171.055 257.202 172.371 251.676 172.352 247.86C172.333 242.787 166.884 227.309 150.031 221.542Z" fill="#BAC6F2"/>
<path d="M169.232 256.451C169.232 256.451 169.131 256.316 169.169 256.53C169.618 258.839 172.365 272.837 171.928 275.251C171.454 277.889 173.605 271.831 173.605 271.831L169.232 256.451Z" fill="#BAC6F2"/>
<path d="M180.928 235.546C180.928 235.546 180.586 235.431 180.624 235.514C181.725 237.73 181.833 247.026 181.396 249.439C180.921 252.077 182.586 247.328 182.586 247.328L180.928 235.546Z" fill="#BAC6F2"/>
<path d="M143.303 232.063C143.303 232.063 149.632 265.867 155.961 273.421C163.973 283.04 165.454 264.887 164.321 261.555C163.188 258.224 159.081 238.971 143.303 232.063Z" fill="#BAC6F2"/>
<path d="M180.928 235.546C180.928 235.546 180.586 235.431 180.624 235.514C181.725 237.73 181.833 247.026 181.396 249.439C180.921 252.077 182.586 247.328 182.586 247.328L180.928 235.546Z" fill="#BAC6F2"/>
<path d="M160.612 274.99C160.612 274.99 160.505 274.839 160.549 275.079C161.024 277.654 163.941 293.263 163.536 295.933C163.093 298.868 165.169 292.132 165.169 292.132L160.612 274.99Z" fill="#BAC6F2"/>
<path d="M118.261 246.233C118.261 246.233 136.424 284.479 145.297 292.476C156.587 302.653 154.613 280.772 152.328 277.06C150.044 273.348 136.247 252.432 118.261 246.233Z" fill="#BAC6F2"/>
<path d="M151.018 294.723C151.018 294.723 150.689 294.077 150.74 294.343C151.271 297.215 156.1 312.756 155.638 315.754C155.132 319.028 157.537 312.105 157.537 312.105L151.018 294.723Z" fill="#BAC6F2"/>
<path d="M105.198 264.736C105.198 264.736 127.906 304.305 136.842 312.85C148.234 323.72 144.436 299.259 140.842 292.633C137.133 285.85 123.229 271.362 105.198 264.736Z" fill="#BAC6F2"/>
<path d="M142.595 315.259C142.595 315.259 142.259 314.571 142.31 314.852C142.86 317.912 147.797 334.476 147.373 337.671C146.892 341.159 149.271 333.767 149.271 333.767L142.595 315.259Z" fill="#BAC6F2"/>
<path d="M97.2241 284.833C97.2241 284.833 119.932 324.403 128.868 332.948C140.259 343.818 136.462 319.357 132.867 312.73C129.14 305.948 115.229 291.46 97.2241 284.833Z" fill="#BAC6F2"/>
<path d="M134.601 335.357C134.601 335.357 134.266 334.668 134.317 334.95C134.867 338.01 139.867 355.131 139.424 358.322C138.943 361.809 141.652 353.729 141.652 353.729L134.601 335.357Z" fill="#BAC6F2"/>
<path d="M81.4719 302.726C81.4719 302.726 110.014 343.526 118.944 352.071C130.336 362.941 124.495 335.263 120.881 328.636C117.191 321.854 99.5024 309.352 81.4719 302.726Z" fill="#BAC6F2"/>
<path d="M123.577 354.333C123.577 354.333 123.349 353.963 123.406 354.302C124.039 357.988 130.456 378.341 130.089 382.178C129.684 386.349 132.855 376.756 132.855 376.756L123.577 354.333Z" fill="#BAC6F2"/>
<path d="M61.1504 325.164C61.1504 325.164 72.4788 339.84 86.1488 352.008C95.3318 360.178 107.034 366.402 111.514 369.358C125.672 378.743 111.35 353.197 105.983 347.123C100.483 340.878 80.6808 329.591 61.1504 325.164Z" fill="#BAC6F2"/>
<path d="M116.799 370.87C116.799 370.87 116.571 370.5 116.628 370.839C117.261 374.525 124.134 396.526 123.501 400.347C123.355 401.249 126.336 393.455 126.336 393.455L116.799 370.87Z" fill="#BAC6F2"/>
<path d="M52.9673 346.466C52.9673 346.466 65.707 362.988 80.9529 376.704C91.1864 385.927 104.16 392.986 109.122 396.338C124.836 406.952 108.616 378.279 102.61 371.407C96.4519 364.39 74.5039 351.586 52.9673 346.466Z" fill="#BAC6F2"/>
<path d="M34.4179 381.876C34.4179 381.876 59.9796 391.26 78.3645 400.373C99.9264 411.05 103.679 412.208 109.806 413.365C129.298 417.014 97.2747 390.176 88.1866 386.464C78.8708 382.658 55.6444 379.154 34.4179 381.876Z" fill="#BAC6F2"/>
<path d="M115.368 398.799C115.368 398.799 114.888 397.855 114.925 398.032C115.356 399.946 120.412 408.563 119.596 410.571C119.4 411.045 121.159 407.067 121.159 407.067L115.368 398.799Z" fill="#BAC6F2"/>
<path d="M113.495 412.286C113.495 412.286 113.065 411.827 113.097 411.916C113.426 412.859 118.014 417.02 117.096 418.036C116.881 418.276 118.837 416.264 118.837 416.264L113.495 412.286Z" fill="#BAC6F2"/>
<path d="M205.021 213.404C205.021 213.404 192.205 235.958 185.339 241.067C185.332 241.067 187.934 226.709 205.021 213.404Z" fill="#BAC6F2"/>
<path d="M214.483 223.602C214.483 223.602 195.863 240.196 188.769 242.318C188.769 242.323 196.585 229.493 214.483 223.602Z" fill="#BAC6F2"/>
<path d="M194.231 203.619C194.231 203.619 192.75 231.578 185.193 239.883C185.193 239.883 175.947 224.91 194.231 203.619Z" fill="#BAC6F2"/>
<path d="M215.704 233.612C215.704 233.612 193.478 255.357 186.896 261.368C185.345 262.781 184.364 263.354 183.877 263.344C182.333 263.312 184.75 258.052 186.965 254.575C189.921 249.94 202.18 236.526 215.704 233.612Z" fill="#BAC6F2"/>
<path d="M183.877 262.885C183.877 262.885 184.016 262.775 183.877 262.968C182.269 265.022 172.485 277.451 171.365 279.724C170.099 282.206 172.333 276.356 172.333 276.356L183.877 262.885Z" fill="#BAC6F2"/>
<path d="M188.927 242.099C188.927 242.099 189.199 242.042 189.13 242.099C187.18 243.971 181.731 252.468 180.599 254.741C179.333 257.223 181.105 252.656 181.105 252.656L188.927 242.099Z" fill="#BAC6F2"/>
<path d="M213.673 244.195C213.673 244.195 190.256 274.255 182.08 280.292C171.669 287.972 181.295 271.143 183.909 268.255C186.522 265.366 200.142 248.303 213.673 244.195Z" fill="#BAC6F2"/>
<path d="M188.927 242.099C188.927 242.099 189.199 242.042 189.13 242.099C187.18 243.971 181.731 252.468 180.599 254.741C179.333 257.223 181.105 252.656 181.105 252.656L188.927 242.099Z" fill="#BAC6F2"/>
<path d="M178.346 281.069C178.346 281.069 178.497 280.949 178.346 281.158C176.567 283.452 165.758 297.32 164.422 299.853C162.992 302.606 165.638 296.146 165.638 296.146L178.346 281.069Z" fill="#BAC6F2"/>
<path d="M220.583 260.685C220.583 260.685 187.453 293.154 177.46 299.233C164.745 306.969 178.618 287.211 182.143 284.114C185.668 281.017 206.148 263.813 220.583 260.685Z" fill="#BAC6F2"/>
<path d="M172.688 300.484C172.688 300.484 173.264 299.963 173.08 300.176C171.093 302.731 159.157 316.286 157.714 319.096C156.119 322.167 158.695 315.447 158.695 315.447L172.688 300.484Z" fill="#BAC6F2"/>
<path d="M217.754 279.458C217.754 279.458 181.111 312.506 170.77 319.08C157.606 327.422 174.048 305.567 180.067 300.004C186.231 294.306 203.028 282.993 217.754 279.458Z" fill="#BAC6F2"/>
<path d="M165.891 320.472C165.891 320.472 166.492 319.888 166.296 320.139C164.188 322.865 151.613 337.343 150.025 340.325C148.297 343.583 151.157 336.488 151.157 336.488L165.891 320.472Z" fill="#BAC6F2"/>
<path d="M210.939 298.983C210.939 298.983 174.295 332.03 163.954 338.605C150.79 346.946 167.232 325.091 173.251 319.529C179.421 313.836 196.212 302.522 210.939 298.983Z" fill="#BAC6F2"/>
<path d="M159.081 340.017C159.081 340.017 159.682 339.433 159.486 339.684C157.379 342.41 144.443 357.383 142.86 360.365C141.133 363.624 144.177 355.845 144.177 355.845L159.081 340.017Z" fill="#BAC6F2"/>
<path d="M210.071 317.6C210.071 317.6 169.194 350.966 158.853 357.519C145.689 365.86 165.239 341.357 171.257 335.789C177.415 330.075 195.319 321.114 210.071 317.6Z" fill="#BAC6F2"/>
<path d="M154.739 358.921C154.739 358.921 155.094 358.614 154.86 358.921C152.328 362.211 136.671 379.942 134.677 383.508C132.494 387.402 136.152 378.154 136.152 378.154L154.739 358.921Z" fill="#BAC6F2"/>
<path d="M209.356 340.982C209.356 340.982 193.997 352.827 178.694 362.049C168.416 368.243 157.739 372.294 153.322 374.379C139.342 380.979 162.771 359.625 169.549 354.792C176.485 349.845 194.984 342.29 209.356 340.982Z" fill="#BAC6F2"/>
<path d="M149.252 375.02C149.252 375.02 149.607 374.713 149.373 375.02C146.841 378.31 129.963 397.485 128.127 401.087C127.691 401.937 130.406 394.378 130.406 394.378L149.252 375.02Z" fill="#BAC6F2"/>
<path d="M201.939 361.632C201.939 361.632 184.674 374.968 167.511 385.405C155.993 392.412 144.057 397.057 139.127 399.45C123.488 406.963 149.885 382.986 157.48 377.554C165.302 371.939 185.972 363.295 201.939 361.632Z" fill="#BAC6F2"/>
<path d="M192.63 396.661C192.63 396.661 171.745 401.676 155.372 407.427C136.165 414.178 133.222 414.726 128.855 414.908C114.932 415.529 149.86 395.431 157.499 393.309C165.327 391.135 181.396 391.192 192.63 396.661Z" fill="#BAC6F2"/>
<path d="M133.931 400.79C134.156 400.567 134.394 400.353 134.646 400.149C133.272 401.843 125.229 409.012 124.558 410.977C124.4 411.441 125.64 407.552 125.64 407.552L133.931 400.79Z" fill="#BAC6F2"/>
<path d="M127.254 413.401C127.254 413.401 127.779 413.042 127.71 413.12C126.963 413.933 121.78 417.103 121.748 418.167C121.748 418.417 121.748 416.3 121.748 416.3L127.254 413.401Z" fill="#BAC6F2"/>
<path d="M302.888 234.221L339.26 423.114L334.557 422.478L302.888 234.221Z" fill="#BAC6F2"/>
<path d="M308.736 203.775C308.736 203.775 307.755 228.179 302.888 234.222C302.907 234.222 296.996 219.415 308.736 203.775Z" fill="#BAC6F2"/>
<path d="M326.172 212.81C326.172 212.81 314.685 231.964 307.698 235.024C307.692 235.04 308.85 221.068 326.172 212.81Z" fill="#BAC6F2"/>
<path d="M290.003 195.319C290.003 195.319 305.654 223.67 301.958 233.048C301.958 233.048 281.833 219.16 290.003 195.319Z" fill="#BAC6F2"/>
<path d="M333.823 222.752C333.823 222.752 321.318 247.563 317.369 254.481C316.432 256.107 315.672 256.806 315.065 256.863C313.242 257.035 312.799 251.415 313.23 247.62C313.78 242.568 319.799 227.454 333.823 222.752Z" fill="#BAC6F2"/>
<path d="M314.755 256.405C314.755 256.405 314.85 256.279 314.793 256.488C314.16 258.766 310.476 272.571 310.559 275.011C310.647 277.675 309.597 271.492 309.597 271.492L314.755 256.405Z" fill="#BAC6F2"/>
<path d="M307.743 234.795C307.743 234.795 308.027 234.701 307.983 234.795C306.869 236.938 305.768 246.212 305.857 248.652C305.945 251.316 305.141 246.468 305.141 246.468L307.743 234.795Z" fill="#BAC6F2"/>
<path d="M338.025 233.664C338.025 233.664 329.304 267.03 323.469 274.167C316.052 283.264 316.862 265.048 318.115 261.795C319.368 258.542 324.735 239.586 338.025 233.664Z" fill="#BAC6F2"/>
<path d="M307.743 234.795C307.743 234.795 308.027 234.701 307.983 234.795C306.869 236.938 305.768 246.212 305.857 248.652C305.945 251.316 305.141 246.468 305.141 246.468L307.743 234.795Z" fill="#BAC6F2"/>
<path d="M319.59 275.454C319.59 275.454 319.691 275.314 319.628 275.548C318.995 278.092 314.951 293.493 314.983 296.199C315.014 299.16 314.097 292.304 314.097 292.304L319.59 275.454Z" fill="#BAC6F2"/>
<path d="M356.385 249.403C356.385 249.403 337.779 286.45 329.855 293.879C319.773 303.331 323.729 281.606 325.95 278.045C328.172 274.485 341.418 254.439 356.385 249.403Z" fill="#BAC6F2"/>
<path d="M325.058 295.761C325.058 295.761 325.393 295.135 325.324 295.401C324.59 298.237 319.058 313.45 319.096 316.474C319.141 319.774 317.989 312.689 317.989 312.689L325.058 295.761Z" fill="#BAC6F2"/>
<path d="M364.758 268.693C364.758 268.693 342.399 306.777 334.38 314.748C324.165 324.888 329.811 300.698 333.405 294.311C337.082 287.769 349.702 274.177 364.758 268.693Z" fill="#BAC6F2"/>
<path d="M329.526 316.797C329.526 316.797 329.868 316.13 329.798 316.411C329.026 319.435 323.298 335.664 323.298 338.876C323.298 342.384 322.235 334.861 322.235 334.861L329.526 316.797Z" fill="#BAC6F2"/>
<path d="M368.922 289.265C368.922 289.265 346.576 327.349 338.538 335.325C328.324 345.465 333.969 321.275 337.563 314.889C341.24 308.341 353.873 294.749 368.922 289.265Z" fill="#BAC6F2"/>
<path d="M333.69 337.364C333.69 337.364 334.032 336.696 333.962 336.978C333.19 340.002 327.355 356.789 327.355 359.99C327.355 363.499 326.089 355.261 326.089 355.261L333.69 337.364Z" fill="#BAC6F2"/>
<path d="M379.485 308.122C379.485 308.122 352.354 347.066 344.322 355.042C334.108 365.183 341.74 337.911 345.335 331.525C348.999 324.971 364.423 313.606 379.485 308.122Z" fill="#BAC6F2"/>
<path d="M340.386 357.003C340.386 357.003 340.608 356.648 340.525 357.003C339.633 360.652 332.298 380.562 332.178 384.415C332.045 388.627 330.57 378.826 330.57 378.826L340.386 357.003Z" fill="#BAC6F2"/>
<path d="M393.206 331.801C393.206 331.801 382.586 345.742 370.422 357.034C362.233 364.614 352.246 370.068 348.373 372.768C336.102 381.24 350.272 356.664 355.189 350.913C360.208 345.017 377.175 334.992 393.206 331.801Z" fill="#BAC6F2"/>
<path d="M343.974 373.941C343.974 373.941 344.196 373.587 344.114 373.941C343.221 377.59 335.355 399.117 335.437 402.969C335.437 403.882 333.931 395.91 333.931 395.91L343.974 373.941Z" fill="#BAC6F2"/>
<path d="M397.37 353.572C397.37 353.572 385.44 369.265 371.833 382.022C362.688 390.588 351.639 396.844 347.303 399.867C333.659 409.476 349.67 381.865 355.195 375.364C360.853 368.743 379.694 357.342 397.37 353.572Z" fill="#BAC6F2"/>
<path d="M408.255 390.103C408.255 390.103 386.915 397.876 371.308 405.811C353.005 415.117 349.917 416.039 344.898 416.811C329.007 419.246 357.385 394.445 365.011 391.307C372.833 388.09 391.68 386.057 408.255 390.103Z" fill="#BAC6F2"/>
<path d="M342.069 401.911C342.193 401.656 342.339 401.409 342.506 401.171C341.956 403.058 337 411.337 337.443 413.401C337.544 413.891 336.582 409.809 336.582 409.809L342.069 401.911Z" fill="#BAC6F2"/>
<path d="M342.088 415.497C342.088 415.497 342.481 415.064 342.449 415.153C342.082 416.071 337.981 419.939 338.608 421.013C338.753 421.268 337.418 419.131 337.418 419.131L342.088 415.497Z" fill="#BAC6F2"/>
<path d="M291.003 211.173C291.003 211.173 298.737 234.498 303.66 240.029C303.635 240.029 303.135 225.531 291.003 211.173Z" fill="#BAC6F2"/>
<path d="M282.371 220.766C282.371 220.766 295.364 238.491 300.768 241.067C300.768 241.067 295.946 227.741 282.371 220.766Z" fill="#BAC6F2"/>
<path d="M300.648 202.081C300.648 202.081 298.749 230.066 303.901 238.856C303.895 238.877 312.856 224.488 300.648 202.081Z" fill="#BAC6F2"/>
<path d="M280.308 230.682C280.308 230.682 295.604 253.787 300.186 260.205C301.262 261.712 301.958 262.343 302.369 262.369C303.597 262.437 302.249 257.03 300.87 253.417C299.022 248.6 290.744 234.44 280.308 230.682Z" fill="#BAC6F2"/>
<path d="M302.42 261.905C302.42 261.905 302.319 261.79 302.42 261.988C303.477 264.136 309.888 277.164 310.54 279.505C311.255 282.06 310.135 276.085 310.135 276.085L302.42 261.905Z" fill="#BAC6F2"/>
<path d="M300.667 240.832C300.667 240.832 300.458 240.759 300.509 240.832C301.85 242.824 305.262 251.65 305.914 253.991C306.629 256.545 305.743 251.864 305.743 251.864L300.667 240.832Z" fill="#BAC6F2"/>
<path d="M280.757 241.374C280.757 241.374 296.091 272.858 301.939 279.401C309.375 287.742 303.559 270.319 301.8 267.264C300.04 264.209 291.079 246.327 280.757 241.374Z" fill="#BAC6F2"/>
<path d="M300.667 240.832C300.667 240.832 300.458 240.759 300.509 240.832C301.85 242.824 305.262 251.65 305.914 253.991C306.629 256.545 305.743 251.864 305.743 251.864L300.667 240.832Z" fill="#BAC6F2"/>
<path d="M304.806 280.412C304.806 280.412 304.698 280.282 304.806 280.501C305.97 282.899 313.033 297.445 313.818 300.041C314.653 302.877 313.255 296.261 313.255 296.261L304.806 280.412Z" fill="#BAC6F2"/>
<path d="M273.485 257.4C273.485 257.4 296.269 291.903 303.559 298.586C312.824 307.11 303.952 286.507 301.477 283.212C299.003 279.917 284.617 261.436 273.485 257.4Z" fill="#BAC6F2"/>
<path d="M307.217 300.15C307.217 300.15 306.819 299.572 306.939 299.817C308.236 302.491 316.236 316.776 317.065 319.669C317.995 322.834 316.679 315.989 316.679 315.989L307.217 300.15Z" fill="#BAC6F2"/>
<path d="M273.688 276.325C273.688 276.325 299.211 311.625 306.717 318.83C316.267 328.006 305.584 305.129 301.407 299.202C297.123 293.133 285.01 280.783 273.688 276.325Z" fill="#BAC6F2"/>
<path d="M310.439 320.535C310.439 320.535 310.027 319.914 310.154 320.18C311.533 323.032 319.951 338.276 320.913 341.357C321.931 344.72 320.432 337.458 320.432 337.458L310.439 320.535Z" fill="#BAC6F2"/>
<path d="M276.96 296.251C276.96 296.251 302.483 331.551 309.989 338.756C319.539 347.931 308.856 325.055 304.679 319.127C300.414 313.059 288.294 300.708 276.96 296.251Z" fill="#BAC6F2"/>
<path d="M313.729 340.46C313.729 340.46 313.318 339.84 313.445 340.106C314.824 342.958 323.476 358.723 324.406 361.804C325.425 365.167 323.849 357.206 323.849 357.206L313.729 340.46Z" fill="#BAC6F2"/>
<path d="M275.643 314.873C275.643 314.873 304.502 350.741 312.008 357.952C321.558 367.127 308.692 341.404 304.515 335.476C300.23 329.403 286.965 319.325 275.643 314.873Z" fill="#BAC6F2"/>
<path d="M315.116 359.625C315.116 359.625 314.869 359.297 315.021 359.625C316.66 363.066 327.184 381.756 328.387 385.442C329.697 389.467 327.798 380.004 327.798 380.004L315.116 359.625Z" fill="#BAC6F2"/>
<path d="M273.655 338.281C273.655 338.281 284.572 351.075 295.736 361.22C303.229 368.05 311.279 372.768 314.557 375.125C324.955 382.59 308.653 359.797 303.799 354.552C298.824 349.198 284.939 340.492 273.655 338.281Z" fill="#BAC6F2"/>
<path d="M317.723 376.042C317.723 376.042 317.476 375.714 317.628 376.042C319.267 379.483 330.608 399.69 331.678 403.392C331.931 404.268 330.596 396.546 330.596 396.546L317.723 376.042Z" fill="#BAC6F2"/>
<path d="M277.301 359.37C277.301 359.37 289.573 373.769 302.078 385.27C310.476 392.991 319.444 398.376 323.115 401.056C334.728 409.538 316.35 383.94 310.894 378.023C305.306 371.96 289.82 362.034 277.301 359.37Z" fill="#BAC6F2"/>
<path d="M280.89 394.925C280.89 394.925 296.939 401.244 309.331 408.016C323.887 415.961 326.127 416.681 329.583 417.155C340.563 418.646 315.027 396.39 309.166 393.789C303.192 391.109 290.421 390.17 280.89 394.925Z" fill="#BAC6F2"/>
<path d="M327.089 402.735C327.089 402.735 326.507 401.885 326.596 402.052C327.501 403.83 333.114 411.499 333.431 413.521C333.507 413.996 332.943 410.034 332.943 410.034L327.089 402.735Z" fill="#BAC6F2"/>
<path d="M331.026 415.753C331.026 415.753 330.646 415.362 330.691 415.44C331.19 416.3 334.969 419.788 334.88 420.851C334.88 421.102 335.102 418.99 335.102 418.99L331.026 415.753Z" fill="#BAC6F2"/>
<path d="M480.213 279.881L443.519 425.304L447.544 424.761L480.213 279.881Z" fill="#BAC6F2"/>
<path d="M476.156 256.571C476.156 256.571 476.251 275.298 480.213 279.881C480.213 279.881 485.681 268.442 476.156 256.571Z" fill="#BAC6F2"/>
<path d="M461.037 263.709C461.037 263.709 470.239 278.306 476.093 280.558C476.093 280.584 475.536 269.845 461.037 263.709Z" fill="#BAC6F2"/>
<path d="M492.364 249.867C492.364 249.867 478.175 271.81 481.042 278.968C481.042 278.968 498.598 268.072 492.364 249.867Z" fill="#BAC6F2"/>
<path d="M454.221 271.419C454.221 271.419 464.119 290.328 467.289 295.594C468.036 296.829 468.663 297.361 469.188 297.398C470.739 297.507 471.283 293.19 471.03 290.281C470.688 286.408 466.017 274.85 454.221 271.419Z" fill="#BAC6F2"/>
<path d="M469.435 297.043C469.435 297.043 469.359 296.944 469.397 297.106C469.846 298.847 472.561 309.404 472.441 311.276C472.283 313.319 473.365 308.565 473.365 308.565L469.435 297.043Z" fill="#BAC6F2"/>
<path d="M476.061 280.371C476.061 280.371 475.821 280.303 475.852 280.371C476.738 282.002 477.39 289.114 477.245 290.985C477.086 293.029 477.922 289.301 477.922 289.301L476.061 280.371Z" fill="#BAC6F2"/>
<path d="M450.316 279.86C450.316 279.86 456.727 305.369 461.473 310.791C467.511 317.694 467.378 303.716 466.403 301.235C465.429 298.753 461.448 284.234 450.316 279.86Z" fill="#BAC6F2"/>
<path d="M476.061 280.371C476.061 280.371 475.821 280.303 475.852 280.371C476.738 282.002 477.39 289.114 477.245 290.985C477.086 293.029 477.922 289.301 477.922 289.301L476.061 280.371Z" fill="#BAC6F2"/>
<path d="M464.745 311.719C464.745 311.719 464.663 311.609 464.707 311.792C465.188 313.737 468.144 325.514 468.036 327.594C467.916 329.867 468.91 324.591 468.91 324.591L464.745 311.719Z" fill="#BAC6F2"/>
<path d="M434.203 292.132C434.203 292.132 448.924 320.363 455.442 325.978C463.739 333.12 461.03 316.489 459.239 313.778C457.448 311.067 446.791 295.828 434.203 292.132Z" fill="#BAC6F2"/>
<path d="M459.486 327.37C459.486 327.37 459.22 326.895 459.271 327.093C459.809 329.262 464.062 340.878 463.935 343.203C463.796 345.736 464.992 340.288 464.992 340.288L459.486 327.37Z" fill="#BAC6F2"/>
<path d="M426.488 307.037C426.488 307.037 444.373 336.024 450.968 342.056C459.36 349.725 455.284 331.217 452.417 326.353C449.487 321.374 439.139 311.078 426.488 307.037Z" fill="#BAC6F2"/>
<path d="M455.031 343.573C455.031 343.573 454.759 343.052 454.816 343.281C455.379 345.59 459.765 357.988 459.67 360.454C459.562 363.149 460.695 357.362 460.695 357.362L455.031 343.573Z" fill="#BAC6F2"/>
<path d="M422.318 322.876C422.318 322.876 440.203 351.862 446.797 357.894C455.189 365.563 451.113 347.055 448.246 342.191C445.304 337.213 434.969 326.921 422.318 322.876Z" fill="#BAC6F2"/>
<path d="M450.86 359.411C450.86 359.411 450.588 358.89 450.645 359.119C451.208 361.429 455.67 374.238 455.575 376.715C455.467 379.41 456.797 373.065 456.797 373.065L450.86 359.411Z" fill="#BAC6F2"/>
<path d="M412.768 337.473C412.768 337.473 434.69 367.065 441.285 373.096C449.677 380.765 444 359.917 441.139 355.053C438.196 350.069 425.419 341.514 412.768 337.473Z" fill="#BAC6F2"/>
<path d="M444.563 374.561C444.563 374.561 444.386 374.29 444.443 374.561C445.076 377.351 450.734 392.558 450.721 395.514C450.721 398.747 452.259 391.208 452.259 391.208L444.563 374.561Z" fill="#BAC6F2"/>
<path d="M400.37 355.809C400.37 355.809 408.989 366.392 419.027 374.921C425.767 380.656 434.108 384.743 437.323 386.75C447.519 393.116 436.203 374.41 432.178 370.067C428.051 365.563 413.907 358.077 400.37 355.809Z" fill="#BAC6F2"/>
<path d="M440.994 387.605C440.994 387.605 440.816 387.334 440.873 387.605C441.506 390.395 447.569 406.833 447.386 409.794C447.341 410.492 448.879 404.356 448.879 404.356L440.994 387.605Z" fill="#BAC6F2"/>
<path d="M396.155 372.575C396.155 372.575 405.838 384.488 417.039 394.127C424.564 400.602 433.804 405.263 437.38 407.547C448.708 414.773 435.905 393.752 431.399 388.841C426.779 383.81 411.09 375.265 396.155 372.575Z" fill="#BAC6F2"/>
<path d="M385.776 400.733C385.776 400.733 403.711 406.468 416.786 412.374C432.089 419.313 434.69 419.986 438.937 420.523C452.398 422.217 428.982 403.491 422.583 401.171C415.995 398.793 400.009 397.443 385.776 400.733Z" fill="#BAC6F2"/>
<path d="M441.772 409.059C441.772 409.059 441.386 408.365 441.424 408.496C441.835 409.94 445.803 416.237 445.379 417.828C445.278 418.203 446.221 415.059 446.221 415.059L441.772 409.059Z" fill="#BAC6F2"/>
<path d="M441.342 419.491C441.342 419.491 441.019 419.162 441.044 419.23C441.329 419.934 444.702 422.879 444.139 423.688C444.006 423.886 445.209 422.233 445.209 422.233L441.342 419.491Z" fill="#BAC6F2"/>
<path d="M483.099 255.179C483.099 255.179 483.839 276.643 479.219 283.452C479.213 283.447 472.017 272.514 483.099 255.179Z" fill="#BAC6F2"/>
<path d="M499.547 276.909C499.547 276.909 485.82 294.822 481.732 299.796C480.77 300.964 480.156 301.459 479.833 301.48C478.782 301.548 480.099 297.382 481.384 294.593C483.067 290.87 490.548 279.912 499.547 276.909Z" fill="#BAC6F2"/>
<path d="M479.776 301.125C479.776 301.125 479.865 301.037 479.776 301.188C478.814 302.851 472.96 312.923 472.327 314.743C471.644 316.713 472.776 312.136 472.776 312.136L479.776 301.125Z" fill="#BAC6F2"/>
<path d="M481.902 284.932C481.902 284.932 482.086 284.875 482.042 284.932C480.839 286.496 477.669 293.274 477.042 295.099C476.359 297.069 477.251 293.462 477.251 293.462L481.902 284.932Z" fill="#BAC6F2"/>
<path d="M498.826 285.12C498.826 285.12 484.814 309.467 479.637 314.55C473.049 321.025 478.536 307.595 480.124 305.233C481.713 302.872 489.902 289.035 498.826 285.12Z" fill="#BAC6F2"/>
<path d="M481.902 284.932C481.902 284.932 482.086 284.875 482.042 284.932C480.839 286.496 477.669 293.274 477.042 295.099C476.359 297.069 477.251 293.462 477.251 293.462L481.902 284.932Z" fill="#BAC6F2"/>
<path d="M477.156 315.358C477.156 315.358 477.251 315.254 477.156 315.426C476.093 317.282 469.625 328.522 468.891 330.545C468.093 332.734 469.486 327.635 469.486 327.635L477.156 315.358Z" fill="#BAC6F2"/>
<path d="M504.547 297.346C504.547 297.346 484.092 324.09 477.688 329.314C469.543 335.961 477.719 320.045 479.922 317.49C482.124 314.936 494.946 300.562 504.547 297.346Z" fill="#BAC6F2"/>
<path d="M474.53 330.545C474.53 330.545 474.884 330.096 474.776 330.284C473.587 332.369 466.346 343.406 465.53 345.643C464.638 348.083 465.967 342.812 465.967 342.812L474.53 330.545Z" fill="#BAC6F2"/>
<path d="M503.8 311.865C503.8 311.865 481.016 339.251 474.39 344.871C465.979 352.019 475.77 334.34 479.51 329.752C483.339 325.039 494.035 315.426 503.8 311.865Z" fill="#BAC6F2"/>
<path d="M471.169 346.232C471.169 346.232 471.542 345.752 471.422 345.955C470.156 348.161 462.562 359.959 461.644 362.331C460.676 364.937 462.17 359.328 462.17 359.328L471.169 346.232Z" fill="#BAC6F2"/>
<path d="M500.395 327.208C500.395 327.208 477.612 354.594 470.985 360.214C462.575 367.362 472.365 349.683 476.105 345.095C479.934 340.377 490.623 330.758 500.395 327.208Z" fill="#BAC6F2"/>
<path d="M467.764 361.564C467.764 361.564 468.138 361.085 468.017 361.288C466.752 363.493 458.917 375.693 458.024 378.07C457.056 380.677 458.657 374.535 458.657 374.535L467.764 361.564Z" fill="#BAC6F2"/>
<path d="M500.996 341.488C500.996 341.488 475.34 369.348 468.72 374.968C460.309 382.116 472.042 362.227 475.783 357.628C479.593 352.921 491.193 345.038 500.996 341.488Z" fill="#BAC6F2"/>
<path d="M466.005 376.292C466.005 376.292 466.226 376.037 466.087 376.292C464.587 378.956 455.056 393.418 453.923 396.265C452.657 399.393 454.588 392.094 454.588 392.094L466.005 376.292Z" fill="#BAC6F2"/>
<path d="M501.946 359.443C495.819 365.669 489.313 371.636 482.453 377.319C475.865 382.647 468.872 386.359 465.998 388.205C456.923 394.054 471.492 376.376 475.783 372.288C480.194 368.102 492.275 361.262 501.946 359.443Z" fill="#BAC6F2"/>
<path d="M463.283 388.924C463.283 388.924 463.505 388.669 463.366 388.924C461.866 391.589 451.594 407.229 450.575 410.081C450.335 410.753 451.702 404.815 451.702 404.815L463.283 388.924Z" fill="#BAC6F2"/>
<path d="M498.205 375.672C498.205 375.672 487.32 386.865 476.327 395.832C468.941 401.854 461.138 406.092 457.936 408.188C447.81 414.83 464.214 394.972 469.036 390.369C473.979 385.65 487.472 377.856 498.205 375.672Z" fill="#BAC6F2"/>
<path d="M494.079 403.006C494.079 403.006 480.219 408.037 469.467 413.375C456.853 419.631 454.91 420.215 451.936 420.617C442.544 421.889 464.973 404.513 470.024 402.448C475.2 400.342 486.105 399.45 494.079 403.006Z" fill="#BAC6F2"/>
<path d="M454.499 409.523C454.499 409.523 455.018 408.866 454.942 409.001C454.119 410.378 449.107 416.326 448.772 417.864C448.696 418.229 449.291 415.179 449.291 415.179L454.499 409.523Z" fill="#BAC6F2"/>
<path d="M450.753 419.559C450.753 419.559 451.088 419.256 451.044 419.313C450.588 419.981 447.246 422.702 447.316 423.515C447.316 423.708 447.183 422.087 447.183 422.087L450.753 419.559Z" fill="#BAC6F2"/>
<path d="M199.629 418.084C197.333 417.969 195.106 417.394 193.141 416.408C191.177 415.422 189.535 414.055 188.358 412.427C183.491 405.608 183.244 397.652 183.522 395.176C186.921 364.625 204.179 224.734 248.708 221.397C298.072 217.696 279.491 393.091 266.017 410.201C252.543 427.311 212.856 418.803 212.856 418.803L199.629 418.084Z" fill="#B1C1F2"/>
<path d="M242.582 278.327C242.582 278.327 254.98 267.447 259.6 263.364C264.22 259.282 274.017 247.005 274.017 247.005L274.504 248.684C274.504 248.684 251.803 276.388 243.588 283.827C235.374 291.267 242.012 283.447 242.012 283.447L242.582 278.332" fill="#BAC6F2"/>
<path d="M238.354 300.865C238.354 300.865 226.963 289.098 223.216 285.031C219.47 280.965 211.046 268.239 211.046 268.239L210.546 269.553C210.546 269.553 229.266 298.31 235.988 305.713C237.152 307.001 237.361 305.244 237.361 305.244L238.114 302.116" fill="#BAC6F2"/>
<path d="M245.246 257.88C245.246 257.88 237.823 249.945 235.361 247.203C232.899 244.461 227.437 235.864 227.437 235.864L226.95 236.515C226.95 236.515 239.279 256.18 243.664 261.175C244.424 262.04 244.576 260.852 244.576 260.852L245.088 258.735" fill="#BAC6F2"/>
<path d="M236.987 309.133C236.987 309.133 259.397 299.353 268.732 290.141C277.871 281.09 279.415 278.426 279.415 278.426L279.599 279.75C279.599 279.75 259.461 305.52 236.817 317.553C234.665 318.7 236.532 315.905 236.532 315.905L237.006 309.128" fill="#BAC6F2"/>
<path d="M232.519 323.621C232.519 323.621 215.691 313.716 209.844 304.796C204.104 296.032 203.047 292.919 203.047 292.919L202.667 294.202C202.667 294.202 214.881 319.132 230.861 329.695C231.013 329.794 231.494 329.695 231.494 329.695L232.488 323.684" fill="#BAC6F2"/>
<path d="M234.076 338.406C234.076 338.406 258.271 328.027 268.492 318.486C278.523 309.102 280.402 306.36 280.402 306.36V307.606C280.402 307.606 258.087 334.251 233.57 346.925C231.235 348.129 233.323 345.267 233.323 345.267L234.051 338.406" fill="#BAC6F2"/>
<path d="M228.368 352.868C228.368 352.868 209.818 341.92 203.401 332.015C197.072 322.302 196.332 319.565 196.332 319.565L195.952 321.197C195.952 321.197 208.888 347.937 226.488 359.609C226.653 359.719 227.197 359.609 227.197 359.609L228.323 352.931" fill="#BAC6F2"/>
<path d="M230.083 366.283C230.083 366.283 255.613 355.439 266.524 345.664C277.225 336.071 279.441 333.151 279.441 333.151L279.352 334.449C279.352 334.449 255.303 361.721 229.355 374.874C226.887 376.126 229.134 373.206 229.134 373.206L230.051 366.283" fill="#BAC6F2"/>
<path d="M225.026 379.973C225.026 379.973 205.502 368.357 198.863 357.696C192.357 347.233 191.364 343.729 191.364 343.729L190.997 345.637C190.997 345.637 204.388 374.89 222.893 387.345C223.064 387.459 223.653 387.313 223.653 387.313L224.995 380.041" fill="#BAC6F2"/>
<path d="M225.919 396.807C225.919 396.807 250.113 386.427 260.334 376.887C270.365 367.502 272.03 364.896 272.03 364.896L272.485 365.897C272.485 365.897 249.955 392.657 225.438 405.331C223.102 406.535 224.495 403.527 224.495 403.527L225.919 396.818" fill="#BAC6F2"/>
<path d="M220.204 411.269C220.204 411.269 201.654 400.321 195.237 390.415C188.908 380.703 186.174 374.056 186.174 374.056L185.902 375.88C185.902 375.88 200.737 406.316 218.337 417.989C218.501 418.099 219.046 417.989 219.046 417.989L220.172 411.311" fill="#BAC6F2"/>
<path d="M252.455 221.527L243.481 275.204L222.495 419.923L214.242 419.063L250.512 224.42L251.316 221.277L252.455 221.527Z" fill="#BAC6F2"/>
<path d="M343.588 417.698C339.728 416.655 334.253 404.273 334.317 401.656C334.95 376.47 339.013 258.428 388.415 251.39C443.215 243.57 438.45 395.979 425.185 411.207C411.92 426.435 349.651 420.304 349.651 420.304L343.588 417.698Z" fill="#B1C1F2"/>
<path d="M387.484 298.31C387.484 298.31 400.199 288.253 404.939 284.479C409.679 280.704 419.356 269.777 419.356 269.777L420.071 271.096C420.071 271.096 397.598 295.844 389.193 302.695C380.789 309.545 387.396 302.538 387.396 302.538L387.497 298.32" fill="#BAC6F2"/>
<path d="M385.105 317.078C385.105 317.078 371.182 308.612 366.536 305.666C361.891 302.721 351.189 293.185 351.189 293.185L350.765 294.301C350.765 294.301 374.688 315.879 382.959 321.249C384.396 322.182 384.447 320.728 384.447 320.728L384.966 318.121" fill="#BAC6F2"/>
<path d="M388.345 281.424C388.345 281.424 379.225 275.689 376.181 273.697C373.137 271.706 366.144 265.241 366.144 265.241L365.663 265.82C365.663 265.82 381.485 280.621 386.908 284.26C387.851 284.891 387.889 283.911 387.889 283.911L388.244 282.138" fill="#BAC6F2"/>
<path d="M384.447 323.929C384.447 323.929 408.496 313.804 417.913 305.39C427.178 297.137 428.627 294.817 428.627 294.817L428.969 295.86C428.969 295.86 409.16 318.799 385.117 330.79C382.833 331.931 384.624 329.476 384.624 329.476L384.447 323.918" fill="#BAC6F2"/>
<path d="M380.972 336.149C380.972 336.149 361.138 329.731 353.67 323.037C346.341 316.468 344.81 314.034 344.81 314.034L344.525 315.113C344.525 315.113 360.777 334.21 379.725 341.248C379.903 341.316 380.44 341.17 380.44 341.17L380.921 336.18" fill="#BAC6F2"/>
<path d="M384.257 348.025C384.257 348.025 410.204 337.228 420.634 328.47C430.868 319.878 432.659 317.443 432.659 317.443L432.817 318.455C432.817 318.455 410.666 342.301 384.598 355.001C382.118 356.21 384.149 353.677 384.149 353.677L384.25 348.025" fill="#BAC6F2"/>
<path d="M379.377 360.35C379.377 360.35 357.518 353.259 349.31 345.83C341.253 338.532 340.114 336.389 340.114 336.389L339.873 337.729C339.873 337.729 357.119 358.228 378.004 366.011C378.2 366.084 378.795 365.923 378.795 365.923L379.358 360.381" fill="#BAC6F2"/>
<path d="M382.693 371.095C382.693 371.095 410.091 359.792 421.261 350.762C432.216 341.899 434.386 339.324 434.386 339.324L434.425 340.367C434.425 340.367 410.375 364.87 382.814 378.117C380.187 379.373 382.39 376.782 382.39 376.782L382.693 371.048" fill="#BAC6F2"/>
<path d="M378.479 382.726C378.479 382.726 355.436 375.177 346.93 367.127C338.563 359.244 337.095 356.492 337.095 356.492L336.886 358.056C336.886 358.056 354.898 380.557 376.871 388.872C377.074 388.95 377.713 388.773 377.713 388.773L378.453 382.726" fill="#BAC6F2"/>
<path d="M381.232 396.322C381.232 396.322 407.179 385.525 417.609 376.767C427.843 368.175 429.425 365.865 429.425 365.865L430.058 366.637C430.058 366.637 407.679 390.619 381.605 403.298C379.124 404.507 380.339 401.921 380.339 401.921L381.232 396.322" fill="#BAC6F2"/>
<path d="M376.358 408.657C376.358 408.657 354.499 401.567 346.291 394.138C338.234 386.839 334.462 381.709 334.462 381.709L334.348 383.221C334.348 383.221 354.094 406.541 374.985 414.324C375.181 414.397 375.776 414.236 375.776 414.236L376.339 408.694" fill="#BAC6F2"/>
<path d="M392.592 251.144L388.168 295.688L379.238 422.275L369.568 422.05L390.725 253.683L391.288 251.05L392.592 251.144Z" fill="#BAC6F2"/>
<path d="M136.785 305.744L89.2626 419.199L93.237 419.037L136.785 305.744Z" fill="white"/>
<path d="M134.677 286.893C134.677 286.893 133.272 301.824 136.785 305.744C136.785 305.739 143.05 296.996 134.677 286.893Z" fill="white"/>
<path d="M119.311 291.569C119.311 291.569 127.153 303.805 132.703 306.01C132.703 306.01 133.013 297.429 119.311 291.569Z" fill="white"/>
<path d="M151.075 282.633C151.075 282.633 135.437 299.17 137.671 305.051C137.671 305.087 155.72 297.57 151.075 282.633Z" fill="white"/>
<path d="M112.027 297.267C112.027 297.267 120.197 313.001 122.887 317.412C123.52 318.455 124.089 318.913 124.589 318.976C126.096 319.169 126.975 315.765 126.963 313.429C126.969 310.301 123.298 300.797 112.027 297.267Z" fill="white"/>
<path d="M124.868 318.7C124.868 318.7 124.798 318.616 124.824 318.747C125.121 320.165 126.963 328.767 126.672 330.247C126.355 331.869 127.792 328.162 127.792 328.162L124.868 318.7Z" fill="white"/>
<path d="M132.665 305.859C132.665 305.859 132.437 305.791 132.462 305.859C133.196 307.22 133.266 312.928 132.975 314.414C132.659 316.036 133.772 313.116 133.772 313.116L132.665 305.859Z" fill="white"/>
<path d="M107.527 303.722C107.527 303.722 111.768 324.481 115.976 329.127C121.337 335.033 122.305 323.882 121.564 321.828C120.824 319.774 118.109 307.96 107.527 303.722Z" fill="white"/>
<path d="M132.665 305.859C132.665 305.859 132.437 305.791 132.462 305.859C133.196 307.22 133.266 312.928 132.975 314.414C132.659 316.036 133.772 313.116 133.772 313.116L132.665 305.859Z" fill="white"/>
<path d="M119.102 330.086C119.102 330.086 119.033 329.992 119.064 330.138C119.381 331.702 121.336 341.31 121.058 342.958C120.761 344.762 122.153 340.622 122.153 340.622L119.102 330.086Z" fill="white"/>
<path d="M90.7814 312.423C90.7814 312.423 102.926 335.914 108.863 340.825C116.413 347.082 115.09 333.636 113.565 331.358C112.04 329.08 102.806 316.213 90.7814 312.423Z" fill="white"/>
<path d="M112.704 342.207C112.704 342.207 112.483 341.811 112.514 341.972C112.869 343.735 116.103 353.286 115.793 355.126C115.457 357.138 117.058 352.874 117.058 352.874L112.704 342.207Z" fill="white"/>
<path d="M82.0352 323.788C82.0352 323.788 97.2241 348.093 103.192 353.343C110.787 360.021 108.255 345.001 105.869 340.925C103.401 336.754 94.104 327.854 82.0352 323.788Z" fill="white"/>
<path d="M107.053 354.824C107.053 354.824 106.831 354.401 106.863 354.573C107.23 356.455 110.533 366.627 110.236 368.587C109.913 370.73 111.502 366.189 111.502 366.189L107.053 354.824Z" fill="white"/>
<path d="M76.6938 336.133C76.6938 336.133 91.8827 360.438 97.8507 365.688C105.445 372.367 102.914 357.347 100.528 353.27C98.0532 349.099 88.7563 340.2 76.6938 336.133Z" fill="white"/>
<path d="M101.705 367.169C101.705 367.169 101.483 366.747 101.515 366.919C101.882 368.801 105.224 379.316 104.932 381.276C104.61 383.419 106.42 378.456 106.42 378.456L101.705 367.169Z" fill="white"/>
<path d="M66.1817 347.123C66.1817 347.123 85.2691 372.184 91.2434 377.429C98.8379 384.107 94.9521 367.106 92.5092 363.035C90.0663 358.869 78.2379 351.195 66.1817 347.123Z" fill="white"/>
<path d="M94.3382 378.821C94.3382 378.821 94.1863 378.591 94.2243 378.821C94.6356 381.089 98.9392 393.585 98.6923 395.942C98.4202 398.517 100.54 392.61 100.54 392.61L94.3382 378.821Z" fill="white"/>
<path d="M52.575 360.908C57.6132 366.761 63.2085 372.275 69.3081 377.398C75.447 382.418 83.2819 386.26 86.2691 388.054C95.7621 393.789 86.1615 378.148 82.5731 374.395C78.8708 370.558 65.6501 363.624 52.575 360.908Z" fill="white"/>
<path d="M89.8005 388.982C89.8005 388.982 89.6486 388.752 89.6866 388.982C90.0979 391.25 94.7052 404.758 94.2812 407.104C94.1799 407.661 96.1798 402.87 96.1798 402.87L89.8005 388.982Z" fill="white"/>
<path d="M47.1197 373.988C47.1197 373.988 55.6381 384.133 65.8337 392.569C72.675 398.236 81.3517 402.568 84.6679 404.627C95.1799 411.144 84.3325 393.533 80.3138 389.315C76.1938 384.999 61.5238 377.137 47.1197 373.988Z" fill="white"/>
<path d="M34.7153 395.738C34.7153 395.738 51.8029 401.51 64.1059 407.098C78.529 413.657 81.0162 414.366 85.1299 415.08C98.1671 417.332 76.7507 400.837 70.6751 398.554C64.4476 396.218 48.9043 394.07 34.7153 395.738Z" fill="white"/>
<path d="M88.8448 406.134C88.8448 406.134 88.5221 405.555 88.5474 405.665C88.8385 406.843 92.218 412.129 91.6674 413.37C91.5409 413.662 92.7117 411.222 92.7117 411.222L88.8448 406.134Z" fill="white"/>
<path d="M87.5918 414.418C87.5918 414.418 87.3006 414.137 87.326 414.189C87.5475 414.767 90.6169 417.317 89.9967 417.948C89.8512 418.093 91.1612 416.858 91.1612 416.858L87.5918 414.418Z" fill="white"/>
<path d="M148.797 292.257C148.797 292.257 140.228 306.13 135.633 309.258C135.633 309.258 137.373 300.432 148.797 292.257Z" fill="white"/>
<path d="M155.126 298.524C155.126 298.524 142.677 308.737 137.93 310.019C141.94 304.711 147.994 300.664 155.126 298.524Z" fill="white"/>
<path d="M141.582 286.246C141.582 286.246 140.595 303.409 135.525 308.518C135.525 308.518 129.355 299.321 141.582 286.246Z" fill="white"/>
<path d="M155.942 304.67C155.942 304.67 141.082 318.027 136.677 321.718C135.639 322.584 135.007 322.938 134.658 322.933C133.627 322.933 135.241 319.685 136.722 317.548C138.702 314.696 146.898 306.459 155.942 304.67Z" fill="white"/>
<path d="M134.658 322.652C134.658 322.652 134.753 322.584 134.658 322.704C133.583 323.965 127.064 331.603 126.292 332.995C125.463 334.517 126.925 330.91 126.925 330.91L134.658 322.652Z" fill="white"/>
<path d="M138.038 309.884C138.038 309.884 138.222 309.847 138.171 309.884C136.867 311.036 133.222 316.255 132.475 317.652C131.646 319.174 132.81 316.359 132.81 316.359L138.038 309.884Z" fill="white"/>
<path d="M154.581 311.166C154.581 311.166 138.924 329.632 133.456 333.339C126.494 338.031 132.931 327.719 134.677 325.946C136.424 324.174 145.538 313.695 154.581 311.166Z" fill="white"/>
<path d="M138.038 309.884C138.038 309.884 138.222 309.847 138.171 309.884C136.867 311.036 133.222 316.255 132.475 317.652C131.646 319.174 132.81 316.359 132.81 316.359L138.038 309.884Z" fill="white"/>
<path d="M130.956 333.819C130.956 333.819 131.057 333.746 130.956 333.876C129.766 335.284 122.539 343.813 121.666 345.345C120.71 347.035 122.476 343.067 122.476 343.067L130.956 333.819Z" fill="white"/>
<path d="M159.208 321.296C159.208 321.296 137.057 341.243 130.374 344.975C121.868 349.725 131.146 337.588 133.538 335.701C135.931 333.813 149.55 323.22 159.208 321.296Z" fill="white"/>
<path d="M127.178 345.752C127.178 345.752 127.564 345.419 127.437 345.564C126.108 347.129 118.14 355.47 117.16 357.185C116.096 359.072 117.792 354.959 117.792 354.959L127.178 345.752Z" fill="white"/>
<path d="M157.315 332.828C157.315 332.828 132.81 353.129 125.899 357.164C117.096 362.3 128.089 348.865 132.114 345.45C136.234 341.952 147.468 335.002 157.315 332.828Z" fill="white"/>
<path d="M122.634 358.025C122.634 358.025 123.033 357.665 122.906 357.821C121.495 359.495 113.084 368.389 112.027 370.219C110.869 372.221 112.78 367.862 112.78 367.862L122.634 358.025Z" fill="white"/>
<path d="M152.759 344.824C152.759 344.824 128.235 365.125 121.336 369.16C112.533 374.296 123.526 360.861 127.551 357.446C131.678 353.948 142.911 346.998 152.759 344.824Z" fill="white"/>
<path d="M118.077 370.015C118.077 370.015 118.476 369.656 118.349 369.812C116.938 371.486 108.293 380.682 107.23 382.517C106.072 384.519 108.11 379.738 108.11 379.738L118.077 370.015Z" fill="white"/>
<path d="M152.176 356.247C152.176 356.247 124.843 376.73 117.925 380.75C109.122 385.885 122.197 370.818 126.222 367.403C130.342 363.921 142.323 358.416 152.176 356.247Z" fill="white"/>
<path d="M115.179 381.641C115.179 381.641 115.413 381.454 115.261 381.641C113.584 383.664 103.097 394.555 101.762 396.76C100.3 399.153 102.749 393.471 102.749 393.471L115.179 381.641Z" fill="white"/>
<path d="M151.702 370.62C145.138 375.218 138.294 379.536 131.197 383.56C124.324 387.366 117.185 389.852 114.229 391.135C104.882 395.186 120.558 382.074 125.077 379.102C129.716 376.063 142.088 371.423 151.702 370.62Z" fill="white"/>
<path d="M111.508 391.526C111.508 391.526 111.742 391.338 111.59 391.526C109.913 393.549 98.6101 405.326 97.3823 407.531C97.0912 408.052 98.9075 403.407 98.9075 403.407L111.508 391.526Z" fill="white"/>
<path d="M146.74 383.289C146.74 383.289 135.196 391.5 123.716 397.886C116.008 402.193 108.034 405.044 104.73 406.499C94.2686 411.113 111.932 396.385 117.02 393.038C122.235 389.634 136.057 384.331 146.74 383.289Z" fill="white"/>
<path d="M140.513 404.82C140.513 404.82 126.551 407.896 115.577 411.441C102.73 415.612 100.781 415.92 97.857 416.04C88.5664 416.42 111.9 404.075 117.014 402.771C122.254 401.426 132.994 401.463 140.513 404.82Z" fill="white"/>
<path d="M101.268 407.354C101.418 407.217 101.577 407.086 101.743 406.963C100.825 408.006 95.4457 412.411 94.9964 413.615C94.8888 413.902 95.7242 411.53 95.7242 411.53L101.268 407.354Z" fill="white"/>
<path d="M96.7937 415.091C96.7937 415.091 97.1481 414.872 97.0975 414.919C96.5975 415.44 93.1357 417.364 93.1104 418.015C93.1104 418.172 93.1104 416.868 93.1104 416.868L96.7937 415.091Z" fill="white"/>
<path d="M267.916 304.139L297.427 422.129L293.617 421.732L267.916 304.139Z" fill="white"/>
<path d="M272.662 285.12C272.662 285.12 271.865 300.364 267.916 304.139C267.916 304.139 263.138 294.89 272.662 285.12Z" fill="white"/>
<path d="M286.807 290.771C286.807 290.771 277.485 302.736 271.814 304.65C271.821 304.65 272.757 295.922 286.807 290.771Z" fill="white"/>
<path d="M257.467 279.839C257.467 279.839 270.169 297.565 267.163 303.409C267.163 303.409 250.835 294.728 257.467 279.839Z" fill="white"/>
<path d="M293.022 296.975C293.022 296.975 282.896 312.475 279.656 316.786C278.896 317.803 278.282 318.241 277.757 318.277C276.276 318.387 275.915 314.873 276.27 312.506C276.757 309.352 281.637 299.911 293.022 296.975Z" fill="white"/>
<path d="M277.548 317.996C277.548 317.996 277.624 317.918 277.58 318.048C277.086 319.471 274.08 328.094 274.143 329.617C274.219 331.28 273.365 327.417 273.365 327.417L277.548 317.996Z" fill="white"/>
<path d="M271.852 304.498C271.852 304.498 272.08 304.441 272.049 304.498C271.144 305.838 270.251 311.63 270.321 313.153C270.397 314.816 269.739 311.787 269.739 311.787L271.852 304.498Z" fill="white"/>
<path d="M296.427 303.8C296.427 303.8 289.351 324.653 284.624 329.1C278.605 334.783 279.263 323.407 280.282 321.374C281.301 319.341 285.643 307.491 296.427 303.8Z" fill="white"/>
<path d="M271.852 304.498C271.852 304.498 272.08 304.441 272.049 304.498C271.144 305.838 270.251 311.63 270.321 313.153C270.397 314.816 269.739 311.787 269.739 311.787L271.852 304.498Z" fill="white"/>
<path d="M281.472 329.893C281.472 329.893 281.554 329.804 281.472 329.95C280.94 331.514 277.675 341.159 277.675 342.848C277.675 344.699 276.953 340.414 276.953 340.414L281.472 329.893Z" fill="white"/>
<path d="M311.325 313.622C311.325 313.622 296.231 336.764 289.807 341.404C281.624 347.311 284.833 333.74 286.643 331.499C288.453 329.257 299.18 316.766 311.325 313.622Z" fill="white"/>
<path d="M285.896 342.577C285.896 342.577 286.168 342.186 286.111 342.353C285.516 344.126 281.048 353.63 281.048 355.517C281.086 357.602 280.149 353.155 280.149 353.155L285.896 342.577Z" fill="white"/>
<path d="M318.096 325.67C318.096 325.67 299.958 349.459 293.414 354.438C285.124 360.772 289.706 345.663 292.623 341.67C295.655 337.588 305.901 329.095 318.096 325.67Z" fill="white"/>
<path d="M289.528 355.715C289.528 355.715 289.807 355.298 289.75 355.475C289.117 357.362 284.478 367.502 284.478 369.51C284.478 371.705 283.617 367.002 283.617 367.002L289.528 355.715Z" fill="white"/>
<path d="M321.495 338.521C321.495 338.521 303.357 362.31 296.813 367.289C288.522 373.623 293.104 358.515 296.022 354.521C299.034 350.444 309.28 341.946 321.495 338.521Z" fill="white"/>
<path d="M292.914 368.566C292.914 368.566 293.193 368.149 293.136 368.326C292.503 370.213 287.775 380.692 287.775 382.7C287.775 384.894 286.744 379.749 286.744 379.749L292.914 368.566Z" fill="white"/>
<path d="M330.058 350.298C330.058 350.298 308.046 374.624 301.528 379.603C293.237 385.937 299.433 368.905 302.35 364.911C305.331 360.824 317.843 353.723 330.058 350.298Z" fill="white"/>
<path d="M298.344 380.833C298.344 380.833 298.522 380.609 298.458 380.833C297.737 383.111 291.788 395.551 291.687 397.959C291.579 400.566 290.383 394.466 290.383 394.466L298.344 380.833Z" fill="white"/>
<path d="M341.196 365.089C335.515 370.718 329.327 375.986 322.685 380.849C316.039 385.583 307.939 389.003 304.793 390.676C294.832 395.968 306.325 380.619 310.325 377.022C314.426 373.347 328.222 367.085 341.196 365.089Z" fill="white"/>
<path d="M301.256 391.411C301.256 391.411 301.433 391.187 301.37 391.411C300.648 393.689 294.262 407.135 294.326 409.543C294.326 410.112 293.104 405.133 293.104 405.133L301.256 391.411Z" fill="white"/>
<path d="M344.576 378.696C344.576 378.696 334.899 388.497 323.855 396.463C316.438 401.812 307.451 405.706 303.958 407.604C292.883 413.605 305.857 396.359 310.363 392.313C314.932 388.168 330.235 381.047 344.576 378.696Z" fill="white"/>
<path d="M353.411 401.504C353.411 401.504 336.095 406.358 323.438 411.316C308.603 417.129 306.072 417.697 302.009 418.187C289.117 419.71 312.135 404.215 318.33 402.255C324.666 400.253 339.962 398.981 353.411 401.504Z" fill="white"/>
<path d="M299.705 408.887C299.705 408.887 300.097 408.318 300.059 408.428C299.61 409.606 295.591 414.778 295.939 416.065C296.022 416.368 295.243 413.818 295.243 413.818L299.705 408.887Z" fill="white"/>
<path d="M299.743 417.369C299.743 417.369 300.059 417.098 300.034 417.155C299.737 417.729 296.408 420.148 296.914 420.804C297.034 420.961 295.946 419.631 295.946 419.631L299.743 417.369Z" fill="white"/>
<path d="M258.277 289.744C258.277 289.744 264.549 304.316 268.53 307.767C268.524 307.767 268.099 298.711 258.277 289.744Z" fill="white"/>
<path d="M251.271 295.735C251.271 295.735 261.815 306.813 266.201 308.419C263.18 302.882 257.897 298.393 251.271 295.735V295.735Z" fill="white"/>
<path d="M266.1 284.062C266.1 284.062 264.587 301.542 268.739 307.032C268.732 307.032 276.01 298.06 266.1 284.062Z" fill="white"/>
<path d="M249.601 301.928C249.601 301.928 262.011 316.359 265.726 320.368C266.6 321.312 267.163 321.703 267.498 321.718C268.498 321.76 267.403 318.382 266.283 316.129C264.783 313.121 258.062 304.274 249.601 301.928Z" fill="white"/>
<path d="M267.536 321.432C267.536 321.432 267.454 321.359 267.536 321.484C268.391 322.829 273.593 330.967 274.124 332.432C274.707 334.027 273.795 330.294 273.795 330.294L267.536 321.432Z" fill="white"/>
<path d="M266.119 308.268C266.119 308.268 265.948 308.221 265.986 308.268C267.074 309.514 269.84 315.045 270.371 316.489C270.954 318.085 270.232 315.16 270.232 315.16L266.119 308.268Z" fill="white"/>
<path d="M249.98 308.607C249.98 308.607 262.423 328.272 267.163 332.359C273.2 337.572 268.479 326.687 267.049 324.779C265.619 322.87 258.341 311.698 249.98 308.607Z" fill="white"/>
<path d="M266.119 308.268C266.119 308.268 265.948 308.221 265.986 308.268C267.074 309.514 269.84 315.045 270.371 316.489C270.954 318.085 270.232 315.16 270.232 315.16L266.119 308.268Z" fill="white"/>
<path d="M269.498 332.99C269.498 332.99 269.409 332.906 269.498 333.047C270.441 334.548 276.188 343.63 276.808 345.252C277.485 347.024 276.352 342.89 276.352 342.89L269.498 332.99Z" fill="white"/>
<path d="M244.05 318.642C244.05 318.642 262.543 340.195 268.454 344.376C275.972 349.699 268.77 336.832 266.764 334.773C264.758 332.713 253.094 321.134 244.05 318.642Z" fill="white"/>
<path d="M271.428 345.319C271.428 345.319 271.106 344.96 271.207 345.111C272.264 346.784 278.751 355.705 279.434 357.514C280.187 359.489 279.124 355.214 279.124 355.214L271.428 345.319Z" fill="white"/>
<path d="M244.228 330.44C244.228 330.44 264.935 352.488 271.023 356.992C278.77 362.727 270.106 348.437 266.714 344.73C263.239 340.935 253.411 333.24 244.228 330.44Z" fill="white"/>
<path d="M274.048 358.056C274.048 358.056 273.713 357.67 273.814 357.832C274.934 359.615 281.763 369.134 282.523 371.058C283.352 373.143 282.13 368.623 282.13 368.623L274.048 358.056Z" fill="white"/>
<path d="M246.892 342.885C246.892 342.885 267.599 364.932 273.688 369.437C281.434 375.171 272.77 360.881 269.378 357.175C265.91 353.385 256.075 345.669 246.892 342.885Z" fill="white"/>
<path d="M276.713 370.5C276.713 370.5 276.377 370.114 276.479 370.276C277.599 372.059 284.617 381.907 285.371 383.831C286.2 385.916 284.921 380.958 284.921 380.958L276.713 370.5Z" fill="white"/>
<path d="M245.816 354.516C245.816 354.516 269.232 376.934 275.321 381.422C283.067 387.157 272.631 371.089 269.239 367.383C265.764 363.592 254.999 357.3 245.816 354.516Z" fill="white"/>
<path d="M277.839 382.47C277.839 382.47 277.637 382.267 277.763 382.47C279.092 384.623 287.636 396.296 288.611 398.595C289.674 401.108 288.136 395.196 288.136 395.196L277.839 382.47Z" fill="white"/>
<path d="M244.201 369.139C249.857 374.181 255.838 378.969 262.118 383.482C268.2 387.746 274.725 390.692 277.389 392.167C285.825 396.833 272.598 382.595 268.655 379.316C264.618 375.959 253.359 370.516 244.201 369.139Z" fill="white"/>
<path d="M279.953 392.725C279.953 392.725 279.751 392.522 279.877 392.725C281.206 394.878 290.408 407.5 291.269 409.809C291.471 410.331 290.389 405.534 290.389 405.534L279.953 392.725Z" fill="white"/>
<path d="M247.158 382.309C253.512 387.98 260.221 393.374 267.258 398.47C274.067 403.293 281.352 406.655 284.345 408.329C293.769 413.626 278.858 397.636 274.428 393.94C269.878 390.176 257.341 383.977 247.158 382.309Z" fill="white"/>
<path d="M250.069 404.518C250.069 404.518 263.093 408.464 273.143 412.692C284.934 417.656 286.769 418.104 289.598 418.401C298.503 419.334 277.776 405.43 273.036 403.803C268.169 402.146 257.803 401.536 250.069 404.518Z" fill="white"/>
<path d="M287.554 409.398C287.428 409.249 287.293 409.106 287.149 408.97C287.883 410.08 292.433 414.872 292.699 416.118C292.762 416.415 292.3 413.938 292.3 413.938L287.554 409.398Z" fill="white"/>
<path d="M290.75 417.53C290.75 417.53 290.44 417.285 290.478 417.338C290.883 417.859 293.946 420.054 293.876 420.716C293.876 420.872 294.06 419.553 294.06 419.553L290.75 417.53Z" fill="white"/>
</g>
<g clip-path="url(#clip2)">
<path d="M403.972 452.333C403.972 452.333 401.498 453.185 397.477 454.392C388.587 457.074 372.138 461.522 358.198 462.411C346.196 463.184 336.054 461.323 334.199 453.446C333.404 450.059 334.531 447.273 336.989 444.983C344.325 438.141 363.487 435.689 378.684 434.847C382.976 434.612 386.945 434.502 390.25 434.461C395.861 434.387 399.54 434.502 399.54 434.502L399.628 434.847L403.972 452.333Z" fill="#A0616A"/>
<path d="M362.443 477.397C352.893 489.295 313.468 464.371 299.679 455.077C296.676 453.054 294.889 451.773 294.889 451.773L307.504 434.847L311.499 429.489C311.499 429.489 315.074 431.397 320.358 434.502C320.55 434.617 320.742 434.732 320.94 434.847C325.496 437.539 331.217 441.057 336.989 444.983C344.954 450.404 353.007 456.588 358.198 462.411C363.274 468.103 365.607 473.451 362.443 477.397Z" fill="#A0616A"/>
<path d="M361.238 226.157C382.338 225.977 399.299 208.622 399.12 187.393C398.941 166.165 381.69 149.101 360.59 149.281C339.49 149.461 322.53 166.817 322.709 188.045C322.888 209.274 340.138 226.337 361.238 226.157Z" fill="#A0616A"/>
<path d="M332.561 207.181C332.561 207.181 340.219 261.713 329.197 267.935C318.174 274.158 395.144 274.058 395.144 274.058C395.144 274.058 377.58 226.854 385.209 212.304L332.561 207.181Z" fill="#A0616A"/>
<path d="M451.346 273.854L445.192 303.233L432.181 365.389L431.805 368.79L427.465 408.163L424.579 434.32L422.643 451.89C410.032 458.548 400.889 463.148 400.889 463.148C400.889 463.148 400.066 459.171 398.75 454.086C389.883 456.843 373.472 461.432 359.54 462.439C364.664 468.088 367.042 473.416 363.911 477.389C354.462 489.367 314.829 464.781 300.962 455.605C300.659 457.833 300.557 460.084 300.655 462.33L290.034 454.255L290.92 435.461L292.413 403.659L294.291 363.779C293.578 362.078 292.979 360.332 292.495 358.551C289.166 347.016 285.049 323.962 281.878 304.626C279.326 289.065 277.396 275.914 276.988 273.115C276.933 272.75 276.905 272.562 276.905 272.562L335.099 246.095C339.332 255.746 358.741 258.492 358.741 258.492C374.791 257.241 387.307 248.614 387.307 248.614L451.346 273.854Z" fill="white"/>
<path d="M328.824 151.632L321.657 148.816C321.657 148.816 336.453 132.144 357.247 133.406L351.347 126.982C351.347 126.982 365.586 121.105 378.701 136.1C385.596 143.982 393.574 153.249 398.587 163.721L406.237 163.656L403.104 170.756L414.339 177.734L402.858 176.561C403.574 180.429 403.712 184.382 403.268 188.291C402.809 192.201 400.858 195.778 397.827 198.268C397.827 198.268 388.812 179.895 388.788 177.017L388.849 184.21C388.849 184.21 381.65 177.798 381.614 173.482L377.76 178.55L375.745 170.654L351.784 178.772L355.626 172.265L340.708 174.55L346.486 166.588C346.486 166.588 329.68 176.083 329.097 184.001C328.514 191.919 323.636 199.458 323.636 199.458C323.636 199.458 310.082 162.582 328.824 151.632Z" fill="#2F2E41"/>
<path d="M494.01 408.312C490.154 412.589 480.565 419.064 468.933 426.084C464.606 428.693 460 431.383 455.299 434.058C444.083 440.442 432.337 446.773 422.643 451.89C410.032 458.548 400.889 463.148 400.889 463.148C400.889 463.148 400.066 459.171 398.75 454.086C396.989 447.279 394.348 438.483 391.639 434.601C391.544 434.466 391.45 434.341 391.355 434.216C390.567 433.193 389.777 432.599 389.004 432.605L427.465 408.163L444.086 397.598L431.804 368.789L416.401 332.653L425.267 303.403L434.18 274.001L451.346 273.855C451.346 273.855 457.135 286.288 464.55 303.633C465.658 306.226 466.803 308.929 467.97 311.721C483.231 348.184 502.303 399.119 494.01 408.312Z" fill="#EEEEEE"/>
<path d="M321.466 434.855C320.056 434.861 318.649 434.988 317.261 435.235C305.334 437.402 301.903 448.31 300.962 455.605C300.659 457.833 300.557 460.084 300.655 462.33L290.034 454.255L286.164 451.314C276.884 448.147 268.59 442.451 261.383 435.712C255.131 429.761 249.512 423.171 244.617 416.049C239.742 409.028 235.387 401.657 231.587 393.995C230.527 391.857 229.946 389.51 229.888 387.121C229.829 384.733 230.293 382.36 231.247 380.171L244.067 350.762L262.804 307.779C262.936 306.759 263.082 305.761 263.241 304.785C266.845 282.904 276.91 273.116 276.91 273.116L284.661 273.049L290.113 304.556L296.885 343.699L292.495 358.551L282.351 392.851L292.413 403.659L321.466 434.855Z" fill="#EEEEEE"/>
<path d="M329.132 343.172L335.758 350.95C338.22 350.478 340.792 349.923 343.44 349.3L341.536 343.172L346.191 348.634C374.246 341.692 409.02 328.195 409.02 328.195C409.02 328.195 371.477 330.964 343.446 324.803C331.044 322.077 318.284 328.262 313.194 339.963C310.236 346.764 310.701 352.656 321.192 352.656C324.737 352.596 328.272 352.261 331.767 351.656L329.132 343.172Z" fill="#38D39F"/>
<path d="M480.207 471.02V474.193C480.209 475.064 480.049 475.927 479.735 476.739C479.595 477.1 479.426 477.45 479.231 477.784C478.611 478.83 477.733 479.696 476.681 480.297C475.629 480.898 474.44 481.214 473.23 481.213H241.217C240.008 481.214 238.819 480.898 237.766 480.297C236.714 479.696 235.836 478.83 235.216 477.784C235.021 477.45 234.852 477.1 234.712 476.739C234.399 475.927 234.238 475.064 234.24 474.193V471.02C234.24 470.098 234.42 469.185 234.771 468.333C235.121 467.481 235.635 466.707 236.283 466.055C236.931 465.403 237.7 464.886 238.547 464.533C239.394 464.181 240.301 463.999 241.217 464H254.591V462.52C254.591 462.482 254.599 462.444 254.613 462.408C254.628 462.373 254.649 462.341 254.676 462.313C254.703 462.286 254.735 462.264 254.771 462.25C254.806 462.235 254.844 462.228 254.882 462.228H261.86C261.898 462.228 261.936 462.235 261.971 462.25C262.007 462.264 262.039 462.286 262.066 462.313C262.093 462.341 262.114 462.373 262.129 462.408C262.143 462.444 262.151 462.482 262.151 462.52V464H266.51V462.52C266.51 462.482 266.518 462.444 266.532 462.408C266.547 462.373 266.568 462.341 266.595 462.313C266.622 462.286 266.654 462.264 266.69 462.25C266.725 462.235 266.763 462.228 266.801 462.228H273.779C273.817 462.228 273.855 462.235 273.89 462.25C273.926 462.264 273.957 462.286 273.984 462.313C274.012 462.341 274.033 462.373 274.048 462.408C274.062 462.444 274.07 462.482 274.07 462.52V464H278.434V462.52C278.434 462.482 278.442 462.444 278.456 462.408C278.471 462.373 278.492 462.341 278.519 462.313C278.546 462.286 278.578 462.264 278.614 462.25C278.649 462.235 278.687 462.228 278.725 462.228H285.703C285.741 462.228 285.779 462.235 285.814 462.25C285.85 462.264 285.881 462.286 285.908 462.313C285.936 462.341 285.957 462.373 285.972 462.408C285.986 462.444 285.994 462.482 285.994 462.52V464H290.353V462.52C290.353 462.482 290.361 462.444 290.375 462.408C290.39 462.373 290.411 462.341 290.438 462.313C290.465 462.286 290.497 462.264 290.533 462.25C290.568 462.235 290.606 462.228 290.644 462.228H297.621C297.66 462.228 297.698 462.235 297.733 462.25C297.769 462.264 297.8 462.286 297.827 462.313C297.854 462.341 297.876 462.373 297.891 462.408C297.905 462.444 297.912 462.482 297.912 462.52V464H302.272V462.52C302.272 462.482 302.279 462.444 302.294 462.408C302.308 462.373 302.33 462.341 302.357 462.313C302.384 462.286 302.416 462.264 302.451 462.25C302.487 462.235 302.525 462.228 302.563 462.228H309.54C309.579 462.228 309.617 462.235 309.652 462.25C309.687 462.264 309.719 462.286 309.746 462.313C309.773 462.341 309.795 462.373 309.809 462.408C309.824 462.444 309.831 462.482 309.831 462.52V464H314.196V462.52C314.196 462.482 314.203 462.444 314.218 462.408C314.233 462.373 314.254 462.341 314.281 462.313C314.308 462.286 314.34 462.264 314.375 462.25C314.411 462.235 314.449 462.228 314.487 462.228H321.464C321.503 462.228 321.541 462.235 321.576 462.25C321.611 462.264 321.643 462.286 321.67 462.313C321.698 462.341 321.719 462.373 321.733 462.408C321.748 462.444 321.755 462.482 321.755 462.52V464H326.114V462.52C326.114 462.482 326.122 462.444 326.137 462.408C326.151 462.373 326.173 462.341 326.2 462.313C326.227 462.286 326.259 462.264 326.294 462.25C326.33 462.235 326.368 462.228 326.405 462.228H381.064C381.102 462.228 381.14 462.235 381.176 462.25C381.211 462.264 381.243 462.286 381.27 462.313C381.297 462.341 381.318 462.373 381.333 462.408C381.347 462.444 381.355 462.482 381.355 462.52V464H385.719V462.52C385.719 462.482 385.726 462.444 385.741 462.408C385.756 462.373 385.777 462.341 385.804 462.313C385.831 462.286 385.864 462.264 385.899 462.25C385.934 462.235 385.972 462.228 386.01 462.228H392.988C393.065 462.228 393.138 462.26 393.193 462.314C393.247 462.369 393.278 462.443 393.279 462.52V464H397.638V462.52C397.638 462.482 397.646 462.444 397.66 462.408C397.675 462.373 397.696 462.341 397.723 462.313C397.75 462.286 397.782 462.264 397.818 462.25C397.853 462.235 397.891 462.228 397.929 462.228H404.907C404.945 462.228 404.983 462.235 405.018 462.25C405.054 462.264 405.086 462.286 405.113 462.313C405.14 462.341 405.161 462.373 405.176 462.408C405.19 462.444 405.198 462.482 405.198 462.52V464H409.557V462.52C409.557 462.482 409.565 462.444 409.579 462.408C409.594 462.373 409.615 462.341 409.642 462.313C409.669 462.286 409.701 462.264 409.737 462.25C409.772 462.235 409.81 462.228 409.848 462.228H416.826C416.864 462.228 416.902 462.235 416.937 462.25C416.973 462.264 417.005 462.286 417.032 462.313C417.059 462.341 417.08 462.373 417.095 462.408C417.109 462.444 417.116 462.482 417.116 462.52V464H421.481V462.52C421.481 462.482 421.489 462.444 421.503 462.408C421.518 462.373 421.539 462.341 421.566 462.313C421.593 462.286 421.625 462.264 421.661 462.25C421.696 462.235 421.734 462.228 421.772 462.228H428.75C428.826 462.229 428.899 462.26 428.953 462.315C429.006 462.369 429.036 462.444 429.035 462.52V464H433.4V462.52C433.4 462.482 433.407 462.444 433.422 462.408C433.437 462.373 433.458 462.341 433.485 462.313C433.512 462.286 433.544 462.264 433.579 462.25C433.615 462.235 433.653 462.228 433.691 462.228H440.668C440.707 462.228 440.745 462.235 440.78 462.25C440.815 462.264 440.848 462.286 440.875 462.313C440.902 462.341 440.923 462.373 440.938 462.408C440.952 462.444 440.959 462.482 440.959 462.52V464H445.319V462.52C445.319 462.482 445.326 462.444 445.341 462.408C445.355 462.373 445.377 462.341 445.404 462.313C445.431 462.286 445.463 462.264 445.498 462.25C445.534 462.235 445.572 462.228 445.609 462.228H452.587C452.626 462.228 452.664 462.235 452.699 462.25C452.734 462.264 452.767 462.286 452.794 462.313C452.821 462.341 452.842 462.373 452.856 462.408C452.871 462.444 452.878 462.482 452.878 462.52V464H473.23C474.146 463.999 475.054 464.181 475.9 464.533C476.747 464.886 477.517 465.403 478.164 466.055C478.812 466.707 479.326 467.481 479.677 468.333C480.028 469.185 480.208 470.098 480.207 471.02Z" fill="#3F3D56"/>
<path d="M547.673 476.739H166.831V477.784H547.673V476.739Z" fill="#3F3D56"/>
<path d="M461.526 337.396H375.048V335.603H335.836V337.396H249.001C247.45 337.396 245.962 338.016 244.865 339.119C243.767 340.223 243.151 341.72 243.151 343.281V462.416C243.151 463.977 243.767 465.474 244.865 466.578C245.962 467.681 247.45 468.301 249.001 468.301H461.526C463.077 468.301 464.565 467.681 465.662 466.578C466.759 465.474 467.376 463.977 467.376 462.416V343.281C467.376 342.508 467.224 341.743 466.93 341.029C466.636 340.315 466.206 339.666 465.662 339.119C465.119 338.573 464.474 338.14 463.765 337.844C463.055 337.548 462.294 337.396 461.526 337.396Z" fill="#3F3D56"/>
<path d="M355.434 392.057C362.607 392.057 368.423 386.206 368.423 378.989C368.423 371.772 362.607 365.921 355.434 365.921C348.26 365.921 342.444 371.772 342.444 378.989C342.444 386.206 348.26 392.057 355.434 392.057Z" stroke="#D0CDE1" stroke-width="2" stroke-miterlimit="10"/>
<path d="M351.277 396.762C358.451 396.762 364.266 390.911 364.266 383.693C364.266 376.476 358.451 370.625 351.277 370.625C344.103 370.625 338.288 376.476 338.288 383.693C338.288 390.911 344.103 396.762 351.277 396.762Z" fill="#D0CDE1"/>
<path d="M191.742 471.458H177.195V486.094H191.742V471.458Z" fill="#D0CDE1"/>
<path d="M182.912 459.958V477.73H200.577V459.958H182.912ZM199.808 476.957H183.676V460.731H199.808V476.957Z" fill="#3F3D56"/>
<path d="M184.538 246.105C207.305 246.105 225.761 227.537 225.761 204.632C225.761 181.727 207.305 163.159 184.538 163.159C161.771 163.159 143.315 181.727 143.315 204.632C143.315 227.537 161.771 246.105 184.538 246.105Z" fill="#38D39F"/>
<path d="M198.903 155.348C195.171 154.87 191.393 154.87 187.66 155.348C179.345 156.446 171.518 159.922 165.107 165.361C158.696 170.801 153.97 177.977 151.491 186.038C150.364 189.711 149.725 193.519 149.592 197.361C149.574 197.896 149.561 198.436 149.561 198.977C149.573 210.639 154.183 221.82 162.379 230.067C170.576 238.313 181.69 242.951 193.282 242.963C194.213 242.963 195.143 242.932 196.061 242.875C198.217 242.739 200.359 242.441 202.47 241.983C212.55 239.802 221.54 234.107 227.853 225.904C234.164 217.702 237.392 207.518 236.966 197.154C236.539 186.789 232.485 176.909 225.521 169.26C218.556 161.61 209.128 156.683 198.903 155.348ZM206.967 239.432H206.96C203.439 240.64 199.774 241.374 196.061 241.612C195.143 241.675 194.213 241.706 193.282 241.706C182.022 241.693 171.227 237.186 163.265 229.176C155.303 221.165 150.824 210.305 150.81 198.977C150.81 198.436 150.823 197.896 150.841 197.361C151.271 186.321 155.928 175.876 163.839 168.212C171.75 160.549 182.3 156.261 193.282 156.246C203.344 156.247 213.079 159.841 220.753 166.389C228.427 172.937 233.541 182.014 235.184 192.001C236.827 201.989 234.892 212.239 229.725 220.925C224.557 229.611 216.492 236.17 206.967 239.432Z" fill="#3F3D56"/>
<path d="M193.907 158.76H192.658V167.557H193.907V158.76Z" fill="#3F3D56"/>
<path d="M165.458 170.095L164.575 170.984L170.758 177.204L171.641 176.315L165.458 170.095Z" fill="#3F3D56"/>
<path d="M153.309 198.348V199.605H162.053V198.348H153.309Z" fill="#3F3D56"/>
<path d="M164.575 226.97L165.458 227.858L171.641 221.638L170.758 220.749L164.575 226.97Z" fill="#3F3D56"/>
<path d="M214.923 176.315L215.806 177.204L221.989 170.983L221.106 170.095L214.923 176.315Z" fill="#3F3D56"/>
<path d="M224.511 198.348V199.605H233.256V198.348H224.511Z" fill="#3F3D56"/>
<path d="M215.806 220.749L214.923 221.637L221.106 227.858L221.989 226.97L215.806 220.749Z" fill="#3F3D56"/>
<path d="M193.907 230.396H192.658V239.193H193.907V230.396Z" fill="#3F3D56"/>
<path d="M195.156 196.463C194.615 196.055 193.958 195.834 193.282 195.834C192.607 195.834 191.949 196.055 191.409 196.463C191.038 196.746 190.734 197.106 190.516 197.519C190.239 198.05 190.119 198.65 190.171 199.248C190.222 199.845 190.442 200.416 190.806 200.891C191.169 201.367 191.66 201.728 192.221 201.932C192.782 202.135 193.389 202.174 193.971 202.041C194.553 201.909 195.084 201.612 195.503 201.185C195.923 200.759 196.212 200.22 196.336 199.633C196.461 199.047 196.416 198.436 196.207 197.875C195.997 197.313 195.633 196.823 195.156 196.463H195.156ZM193.282 200.862C192.786 200.86 192.31 200.661 191.959 200.308C191.608 199.955 191.41 199.476 191.409 198.977C191.411 198.595 191.526 198.223 191.74 197.908C191.923 197.642 192.171 197.427 192.46 197.285C192.75 197.143 193.071 197.079 193.393 197.098C193.714 197.118 194.025 197.22 194.296 197.396C194.566 197.572 194.787 197.815 194.937 198.102C195.087 198.389 195.16 198.71 195.151 199.034C195.142 199.358 195.049 199.673 194.883 199.951C194.716 200.229 194.482 200.458 194.201 200.617C193.921 200.777 193.604 200.861 193.282 200.862Z" fill="#3F3D56"/>
<path d="M198.903 144.307H187.661V155.618H198.903V144.307Z" fill="#3F3D56"/>
<path d="M193.282 146.192C201.561 146.192 208.272 143.801 208.272 140.851C208.272 137.901 201.561 135.51 193.282 135.51C185.003 135.51 178.292 137.901 178.292 140.851C178.292 143.801 185.003 146.192 193.282 146.192Z" fill="#3F3D56"/>
<path d="M195.147 170.773H191.51V196.387H195.147V170.773Z" fill="#3F3D56"/>
<path d="M252.819 241.049H135.397V242.305H252.819V241.049Z" fill="#3F3D56"/>
<path d="M213.641 439.326C214.126 456.027 204.426 462.148 192.253 462.505C191.971 462.514 191.689 462.519 191.409 462.52C190.845 462.525 190.286 462.516 189.732 462.492C178.723 462.033 170.009 456.153 169.559 440.621C169.092 424.548 188.922 403.663 190.41 402.118L190.413 402.117C190.469 402.058 190.498 402.029 190.498 402.029C190.498 402.029 213.156 422.627 213.641 439.326Z" fill="#D0CDE1"/>
<path d="M191.377 459.974L199.11 448.406L191.393 461.219L191.409 462.52C190.845 462.525 190.286 462.516 189.732 462.492L190.115 445.759L190.105 445.63L190.119 445.605L190.156 444.024L181.688 431.654L190.146 442.84L190.176 443.174L190.466 430.532L183.152 417.708L190.486 428.311L190.41 402.118V402.031L190.413 402.117L190.898 422.76L197.564 414.375L190.92 424.538L191.065 435.847L197.199 424.81L191.088 437.51L191.169 443.797L200.09 428.423L191.196 445.991L191.377 459.974Z" fill="#3F3D56"/>
</g>
<ellipse cx="-99.632" cy="859.763" rx="439.403" ry="197.116" fill="url(#paint0_linear)" fill-opacity="0.4"/>
<g style="mix-blend-mode:exclusion" opacity="0.4" filter="url(#filter0_f)">
<path d="M-597.117 -108.013C-576.202 -119.232 -464.548 -148.702 -185.252 -176.83H-146.103C-119.199 -183.541 -58.4742 -201.351 -30.802 -218.901C3.78827 -240.839 44.0095 -248.952 92.0069 -269.086C140.004 -289.221 155.02 -302.744 170.036 -307.852C185.052 -312.961 180.494 -314.463 210.526 -324.681C240.557 -334.898 226.882 -324.681 276.22 -334.598C325.558 -344.514 312.419 -329.489 336.284 -324.681C360.149 -319.873 348.35 -300.941 348.35 -269.086C348.35 -237.232 354.25 -245.647 348.35 -218.901C342.451 -192.156 324.218 -136.562 312.419 -108.013C300.621 -79.4646 276.22 -94.4901 180.494 -13.9534C84.7671 66.5833 180.494 4.67822 180.494 29.6206C180.494 54.5629 183.443 44.9466 180.494 147.421C177.544 249.894 168.427 200.911 155.02 224.652C141.613 248.392 149.121 239.677 108.632 268.226C68.1423 296.774 87.4485 281.749 72.7007 285.054C57.9529 288.36 48.5679 311.8 -107.222 382.419C-167.072 391.795 -147.176 365.09 -129.746 350.565C-159.242 365.691 -226.009 395.942 -257.114 395.942C-295.994 395.942 -275.079 395.942 -313.96 407.662C-352.84 419.382 -345.6 407.662 -364.907 370.7C-384.213 333.737 -391.989 390.834 -397.888 395.942C-403.787 401.051 -414.513 407.662 -508.899 422.688C-550.997 437.713 -547.779 420.885 -597.117 422.688C-646.455 424.491 -580.761 416.077 -547.779 407.662C-514.798 399.248 -484.766 380.616 -466.8 370.7C-448.835 360.783 -537.322 365.591 -526.864 350.565C-518.498 338.545 -530.35 311.9 -537.322 300.08C-560.293 305.088 -609.505 312.1 -622.591 300.08C-638.947 285.054 -606.234 274.837 -606.234 256.506C-606.234 238.175 -558.237 221.045 -526.864 200.911C-495.492 180.777 -514.798 147.421 -526.864 147.421C-538.931 147.421 -543.221 147.421 -568.694 165.752C-594.168 184.083 -633.316 185.886 -622.591 147.421C-611.865 108.955 -606.234 127.286 -597.117 102.043C-588.001 76.8007 -570.303 73.4951 -558.237 63.2777C-546.17 53.0604 -526.864 44.9466 -484.766 4.67822C-451.087 -27.5364 -470.733 -34.5884 -484.766 -34.0876C-493.257 -30.6818 -519.839 -18.1605 -558.237 4.67822C-606.234 33.2267 -586.66 14.5951 -606.234 13.0925C-625.808 11.59 -597.117 -19.0621 -597.117 -34.0876V-108.013Z" fill="url(#paint1_linear)"/>
<path d="M-597.117 -108.013C-576.202 -119.232 -464.548 -148.702 -185.252 -176.83H-146.103C-119.199 -183.541 -58.4742 -201.351 -30.802 -218.901C3.78827 -240.839 44.0095 -248.952 92.0069 -269.086C140.004 -289.221 155.02 -302.744 170.036 -307.852C185.052 -312.961 180.494 -314.463 210.526 -324.681C240.557 -334.898 226.882 -324.681 276.22 -334.598C325.558 -344.514 312.419 -329.489 336.284 -324.681C360.149 -319.873 348.35 -300.941 348.35 -269.086C348.35 -237.232 354.25 -245.647 348.35 -218.901C342.451 -192.156 324.218 -136.562 312.419 -108.013C300.621 -79.4646 276.22 -94.4901 180.494 -13.9534C84.7671 66.5833 180.494 4.67822 180.494 29.6206C180.494 54.5629 183.443 44.9466 180.494 147.421C177.544 249.894 168.427 200.911 155.02 224.652C141.613 248.392 149.121 239.677 108.632 268.226C68.1423 296.774 87.4485 281.749 72.7007 285.054C57.9529 288.36 48.5679 311.8 -107.222 382.419C-167.072 391.795 -147.176 365.09 -129.746 350.565C-159.242 365.691 -226.009 395.942 -257.114 395.942C-295.994 395.942 -275.079 395.942 -313.96 407.662C-352.84 419.382 -345.6 407.662 -364.907 370.7C-384.213 333.737 -391.989 390.834 -397.888 395.942C-403.787 401.051 -414.513 407.662 -508.899 422.688C-550.997 437.713 -547.779 420.885 -597.117 422.688C-646.455 424.491 -580.761 416.077 -547.779 407.662C-514.798 399.248 -484.766 380.616 -466.8 370.7C-448.835 360.783 -537.322 365.591 -526.864 350.565C-518.498 338.545 -530.35 311.9 -537.322 300.08C-560.293 305.088 -609.505 312.1 -622.591 300.08C-638.947 285.054 -606.234 274.837 -606.234 256.506C-606.234 238.175 -558.237 221.045 -526.864 200.911C-495.492 180.777 -514.798 147.421 -526.864 147.421C-538.931 147.421 -543.221 147.421 -568.694 165.752C-594.168 184.083 -633.316 185.886 -622.591 147.421C-611.865 108.955 -606.234 127.286 -597.117 102.043C-588.001 76.8007 -570.303 73.4951 -558.237 63.2777C-546.17 53.0604 -526.864 44.9466 -484.766 4.67822C-451.087 -27.5364 -470.733 -34.5884 -484.766 -34.0876C-493.257 -30.6818 -519.839 -18.1605 -558.237 4.67822C-606.234 33.2267 -586.66 14.5951 -606.234 13.0925C-625.808 11.59 -597.117 -19.0621 -597.117 -34.0876V-108.013Z" stroke="black"/>
</g>
<g filter="url(#filter1_d)">
<path d="M278.597 35.3982C278.551 35.4203 278.504 35.442 278.459 35.4634C278.504 35.4416 278.55 35.4198 278.597 35.3982C295.363 27.521 394.403 -21.3208 441.957 -44.8211C470.484 -71.5826 533.287 -109.049 556.279 -44.8211C585.019 35.4634 635.473 23.4806 595.876 91.7823C556.279 160.084 613.12 130.726 556.279 187.045C441.957 255.347 415.772 267.929 408.108 248.157C401.977 232.34 405.553 200.825 408.108 187.045L426.629 145.705V75.0065L412.914 58.5905C407.303 57.0217 400.636 55.1189 392.78 52.8384C318.17 31.1809 285.702 32.1569 278.597 35.3982Z" fill="#B6FFE9"/>
</g>
</g>
<defs>
<filter id="filter0_f" x="-631.671" y="-342.414" width="987.437" height="775.897" filterUnits="userSpaceOnUse" color-interpolation-filters="sRGB">
<feFlood flood-opacity="0" result="BackgroundImageFix"/>
<feBlend mode="normal" in="SourceGraphic" in2="BackgroundImageFix" result="shape"/>
<feGaussianBlur stdDeviation="2" result="effect1_foregroundBlur"/>
</filter>
<filter id="filter1_d" x="274.459" y="-80.2845" width="952.588" height="461.062" filterUnits="userSpaceOnUse" color-interpolation-filters="sRGB">
<feFlood flood-opacity="0" result="BackgroundImageFix"/>
<feColorMatrix in="SourceAlpha" type="matrix" values="0 0 0 0 0 0 0 0 0 0 0 0 0 0 0 0 0 0 127 0" result="hardAlpha"/>
<feOffset dy="4"/>
<feGaussianBlur stdDeviation="2"/>
<feComposite in2="hardAlpha" operator="out"/>
<feColorMatrix type="matrix" values="0 0 0 0 0 0 0 0 0 0 0 0 0 0 0 0 0 0 0.25 0"/>
<feBlend mode="normal" in2="BackgroundImageFix" result="effect1_dropShadow"/>
<feBlend mode="normal" in="SourceGraphic" in2="effect1_dropShadow" result="shape"/>
</filter>
<linearGradient id="paint0_linear" x1="-99.632" y1="662.647" x2="-99.632" y2="1056.88" gradientUnits="userSpaceOnUse">
<stop stop-color="#26F4CF"/>
<stop offset="1" stop-color="#29EBBC" stop-opacity="0"/>
</linearGradient>
<linearGradient id="paint1_linear" x1="276.735" y1="-225.523" x2="-627.624" y2="196.593" gradientUnits="userSpaceOnUse">
<stop stop-color="#2DEB9B"/>
<stop offset="0.142487" stop-color="#5AC68E" stop-opacity="0.835417"/>
<stop offset="0.779167" stop-color="#1FD3FB" stop-opacity="0"/>
<stop offset="1" stop-color="#0AF8B0" stop-opacity="0"/>
</linearGradient>
<clipPath id="clip0">
<rect width="479" height="973" fill="white"/>
</clipPath>
<clipPath id="clip1">
<rect width="530.093" height="300.767" fill="white" transform="translate(-25.5467 195.319)"/>
</clipPath>
<clipPath id="clip2">
<rect width="415.133" height="360.681" fill="white" transform="translate(135.397 125.819)"/>
</clipPath>
</defs>
</svg>
