<svg width="1616" height="1024" viewBox="0 0 1616 1024" fill="none" xmlns="http://www.w3.org/2000/svg">
<rect width="1616" height="1024" fill="white"/>
<g clip-path="url(#clip0)">
<rect width="1440" height="1024" transform="translate(176)" fill="white"/>
<g filter="url(#filter0_f)">
<path d="M964.4 125.01C1069.73 90.5103 1299.4 22.6103 1375.4 27.0103C1401.4 27.0103 1470.7 21.5103 1539.9 -0.489685C1626.4 -27.9897 1623.9 -47.9897 1701.9 -115.49C1779.9 -182.99 1782.9 -137.49 1841.9 -115.49C1889.1 -97.8897 1900.57 -80.1563 1900.4 -73.4897L1866.9 80.5103C1812.9 263.01 1704.3 631.91 1701.9 647.51C1698.9 667.01 1673.9 698.01 1657.4 728.51C1640.9 759.01 1637.9 745.51 1559.4 779.01C1531.4 787.51 1509.4 798.51 1470.4 834.51C1431.4 870.51 1375.4 834.51 1333.4 857.01C1291.4 879.51 1285.9 834.51 1221.4 857.01C1156.9 879.51 1173.9 865.51 1062.4 907.51C950.9 949.51 964.4 857.01 939.4 834.51C914.4 812.01 863.9 804.01 816.4 812.51C768.9 821.01 777.4 829.01 740.9 834.51C704.4 840.01 704.4 801.01 682.4 728.51C660.4 656.01 693.4 566.51 704.4 488.01C715.4 409.51 749.4 312.01 757.9 262.01C764.7 222.01 898.4 154.01 964.4 125.01Z" fill="url(#paint0_linear)" fill-opacity="0.4"/>
<path d="M964.4 125.01C1069.73 90.5103 1299.4 22.6103 1375.4 27.0103C1401.4 27.0103 1470.7 21.5103 1539.9 -0.489685C1626.4 -27.9897 1623.9 -47.9897 1701.9 -115.49C1779.9 -182.99 1782.9 -137.49 1841.9 -115.49C1889.1 -97.8897 1900.57 -80.1563 1900.4 -73.4897L1866.9 80.5103C1812.9 263.01 1704.3 631.91 1701.9 647.51C1698.9 667.01 1673.9 698.01 1657.4 728.51C1640.9 759.01 1637.9 745.51 1559.4 779.01C1531.4 787.51 1509.4 798.51 1470.4 834.51C1431.4 870.51 1375.4 834.51 1333.4 857.01C1291.4 879.51 1285.9 834.51 1221.4 857.01C1156.9 879.51 1173.9 865.51 1062.4 907.51C950.9 949.51 964.4 857.01 939.4 834.51C914.4 812.01 863.9 804.01 816.4 812.51C768.9 821.01 777.4 829.01 740.9 834.51C704.4 840.01 704.4 801.01 682.4 728.51C660.4 656.01 693.4 566.51 704.4 488.01C715.4 409.51 749.4 312.01 757.9 262.01C764.7 222.01 898.4 154.01 964.4 125.01Z" stroke="url(#paint1_linear)"/>
</g>
<g clip-path="url(#clip1)">
<path d="M631.965 860.53C603.124 845.697 578.527 824.854 560.18 799.699C541.834 774.544 530.255 745.787 526.387 715.772C511.568 603.446 519.892 364.318 846.552 322.116C1075.24 292.566 1225.7 193.964 1321.33 188.145C1386.06 184.206 1535.94 193.852 1595.4 302.42C1654.86 410.988 1699.97 454.68 1733.52 479.734C1767.06 504.788 1790.76 605.812 1770.2 657.048C1746.29 716.58 1704.36 767.133 1512.27 818.634C1320.17 870.134 980.183 932.769 777.412 903.539C714.004 894.395 666.848 878.318 631.965 860.53Z" fill="#F8F8FF"/>
<path d="M527.836 733.046C527.836 733.046 960.485 651.856 1061.09 676.577C1161.7 701.297 1390.01 699.014 1438.92 691.567C1523.4 678.706 1653.55 715.049 1682.65 703.092C1697 697.191 1747.85 701.297 1747.85 701.297C1747.85 701.297 1645.24 810.992 1366.96 855.686C1102.74 898.125 910.509 928.649 734.449 891.555C558.388 854.461 527.836 733.046 527.836 733.046Z" fill="#F5F5FC"/>
<path d="M570.951 727.13C570.951 727.13 696.166 460.916 790.066 439.077C883.966 417.238 849.525 443.921 946.581 410.028C1043.64 376.135 1057.33 324.301 1075.52 399.839C1093.7 475.378 1078.44 698.207 1078.44 698.207C1078.44 698.207 639.817 705.333 570.951 727.13Z" fill="#E9EDFA"/>
<path d="M1050.85 702.911C1050.85 702.911 1116.12 324.705 1231.95 327.419C1347.79 330.133 1408.81 347.086 1477.72 354.338C1546.63 361.59 1577.64 427.691 1607.22 449.113C1636.79 470.534 1686.21 503.397 1699.94 545.028C1713.68 586.66 1808.8 708.187 1702.75 717.874C1596.7 727.562 1060.03 702.132 1060.03 702.132" fill="#E9EDFA"/>
<path d="M748.902 299.929L634.405 716.955L643.994 716.357L748.902 299.929Z" fill="#BAC6F2"/>
<path d="M743.871 230.626C743.871 230.626 740.486 285.509 748.948 299.915C748.902 299.915 763.98 267.762 743.871 230.626Z" fill="#BAC6F2"/>
<path d="M706.808 247.816C706.808 247.816 725.697 292.788 739.068 300.903C739.068 300.848 739.8 269.363 706.808 247.816Z" fill="#BAC6F2"/>
<path d="M783.312 214.981C783.312 214.981 745.639 275.793 751.021 297.451C751.021 297.451 794.502 269.878 783.312 214.981Z" fill="#BAC6F2"/>
<path d="M689.244 268.723C689.244 268.723 708.927 326.57 715.406 342.771C716.931 346.585 718.303 348.339 719.508 348.52C723.136 349.23 725.255 336.703 725.225 328.129C725.179 316.701 716.428 281.751 689.244 268.723Z" fill="#BAC6F2"/>
<path d="M720.179 347.546C720.179 347.546 720.011 347.239 720.072 347.727C720.788 352.946 725.225 384.556 724.524 389.999C723.761 395.956 727.222 382.274 727.222 382.274L720.179 347.546Z" fill="#BAC6F2"/>
<path d="M739.022 300.346C739.022 300.346 738.474 300.082 738.535 300.346C740.303 305.343 740.471 326.333 739.769 331.789C739.007 337.747 741.69 327.015 741.69 327.015L739.022 300.346Z" fill="#BAC6F2"/>
<path d="M678.42 292.496C678.42 292.496 688.635 368.814 698.773 385.879C711.686 407.592 714.019 366.615 712.235 359.085C710.452 351.554 703.82 308.071 678.42 292.496Z" fill="#BAC6F2"/>
<path d="M739.022 300.346C739.022 300.346 738.474 300.082 738.535 300.346C740.303 305.343 740.471 326.333 739.769 331.789C739.007 337.747 741.69 327.015 741.69 327.015L739.022 300.346Z" fill="#BAC6F2"/>
<path d="M706.305 389.4C706.305 389.4 706.137 389.066 706.213 389.595C706.975 395.413 711.686 430.656 711.016 436.725C710.299 443.35 713.653 428.15 713.653 428.15L706.305 389.4Z" fill="#BAC6F2"/>
<path d="M638.064 324.51C638.064 324.51 667.321 410.807 681.621 428.902C699.81 451.882 696.623 402.456 692.949 394.105C689.275 385.753 667.046 338.429 638.064 324.51Z" fill="#BAC6F2"/>
<path d="M690.891 433.955C690.891 433.955 690.357 432.563 690.434 433.092C691.287 439.578 699.078 474.668 698.331 481.432C697.523 488.823 701.38 473.081 701.38 473.081L690.891 433.955Z" fill="#BAC6F2"/>
<path d="M617.024 366.267C617.024 366.267 653.615 455.613 667.992 474.835C686.287 499.374 680.188 444.213 674.441 429.194C668.479 413.911 646.068 381.202 617.024 366.267Z" fill="#BAC6F2"/>
<path d="M677.276 480.319C677.276 480.319 676.743 478.76 676.819 479.4C677.703 486.36 685.662 523.704 684.945 530.9C684.168 538.779 687.994 522.09 687.994 522.09L677.276 480.319Z" fill="#BAC6F2"/>
<path d="M604.142 411.629C604.142 411.629 640.732 500.975 655.109 520.197C673.404 544.736 667.306 489.575 661.558 474.556C655.597 459.287 633.185 426.592 604.142 411.629Z" fill="#BAC6F2"/>
<path d="M664.394 525.709C664.394 525.709 663.86 524.15 663.936 524.79C664.82 531.749 672.87 570.347 672.169 577.557C671.391 585.435 675.752 567.187 675.752 567.187L664.394 525.709Z" fill="#BAC6F2"/>
<path d="M578.803 452.022C578.803 452.022 624.785 544.137 639.177 563.373C657.472 587.913 648.111 525.43 642.226 510.481C636.341 495.212 607.846 466.984 578.803 452.022Z" fill="#BAC6F2"/>
<path d="M646.632 568.537C646.632 568.537 646.266 567.702 646.358 568.537C647.349 576.889 657.716 622.821 657.121 631.479C656.466 640.944 661.573 619.23 661.573 619.23L646.632 568.537Z" fill="#BAC6F2"/>
<path d="M546.024 502.673C546.024 502.673 564.319 535.814 586.334 563.276C601.123 581.719 619.997 595.777 627.193 602.458C650.062 623.629 626.934 566.018 618.29 552.252C609.432 538.166 577.537 512.68 546.024 502.673Z" fill="#BAC6F2"/>
<path d="M635.716 605.882C635.716 605.882 635.35 605.047 635.441 605.882C636.432 614.233 647.532 663.868 646.51 672.498C646.266 674.544 651.084 656.937 651.084 656.937L635.716 605.882Z" fill="#BAC6F2"/>
<path d="M532.882 550.791C532.882 550.791 553.403 588.08 577.964 619.091C594.445 639.97 615.347 655.851 623.336 663.423C648.66 687.391 622.528 622.654 612.847 607.135C602.937 591.239 567.582 562.343 532.882 550.791Z" fill="#BAC6F2"/>
<path d="M502.986 630.727C502.986 630.727 544.15 651.94 573.788 672.484C608.533 696.592 614.525 699.209 624.435 701.826C655.841 710.107 604.249 649.462 589.613 641.083C574.642 632.495 537.198 624.589 502.986 630.727Z" fill="#BAC6F2"/>
<path d="M633.414 668.935C633.22 668.345 632.981 667.768 632.697 667.209C633.399 671.538 641.54 690.983 640.214 695.52C639.909 696.592 642.729 687.614 642.729 687.614L633.414 668.935Z" fill="#BAC6F2"/>
<path d="M630.395 699.39C630.395 699.39 629.694 698.36 629.755 698.554C630.288 700.684 637.683 710.079 636.189 712.376C635.838 712.919 638.994 708.367 638.994 708.367L630.395 699.39Z" fill="#BAC6F2"/>
<path d="M777.839 250.349C777.839 250.349 757.196 301.279 746.127 312.804C746.127 312.804 750.304 280.401 777.839 250.349Z" fill="#BAC6F2"/>
<path d="M793.085 273.385C793.085 273.385 763.08 310.855 751.661 315.643C751.661 315.643 764.239 286.622 793.085 273.385Z" fill="#BAC6F2"/>
<path d="M760.443 228.26C760.443 228.26 758.065 291.341 745.853 310.131C745.853 310.131 731.003 276.322 760.443 228.26Z" fill="#BAC6F2"/>
<path d="M795.036 295.99C795.036 295.99 759.239 345.082 748.627 358.625C746.127 361.813 744.602 363.107 743.764 363.079C741.279 363.079 745.167 351.137 748.734 343.286C753.506 332.861 773.265 302.56 795.036 295.99Z" fill="#BAC6F2"/>
<path d="M743.779 362.091C743.779 362.091 744.008 361.84 743.779 362.272C741.187 366.907 725.484 394.982 723.624 400.104C721.627 405.671 725.149 392.504 725.149 392.504L743.779 362.091Z" fill="#BAC6F2"/>
<path d="M751.905 315.142C751.905 315.142 752.347 315.017 752.225 315.142C749.085 319.318 740.303 338.554 738.504 343.69C736.507 349.258 739.312 338.944 739.312 338.944L751.905 315.142Z" fill="#BAC6F2"/>
<path d="M791.758 319.875C791.758 319.875 754.055 387.744 740.821 401.37C724.051 418.713 739.556 380.715 743.764 374.187C747.972 367.659 769.972 329.145 791.758 319.875Z" fill="#BAC6F2"/>
<path d="M751.905 315.142C751.905 315.142 752.347 315.017 752.225 315.142C749.085 319.318 740.303 338.554 738.504 343.69C736.507 349.258 739.312 338.944 739.312 338.944L751.905 315.142Z" fill="#BAC6F2"/>
<path d="M734.86 403.124C734.86 403.124 735.104 402.846 734.86 403.333C731.994 408.511 714.583 439.856 712.479 445.535C710.177 451.743 714.431 437.184 714.431 437.184L734.86 403.124Z" fill="#BAC6F2"/>
<path d="M802.903 357.094C802.903 357.094 749.542 430.405 733.442 444.13C712.952 461.598 735.302 416.988 741.065 410.028C746.828 403.069 779.653 364.165 802.903 357.094Z" fill="#BAC6F2"/>
<path d="M725.743 446.997C725.743 446.997 726.673 445.772 726.368 446.301C723.167 452.077 703.972 482.671 701.609 489.018C699.048 495.978 703.134 480.834 703.134 480.834L725.743 446.997Z" fill="#BAC6F2"/>
<path d="M798.344 399.491C798.344 399.491 739.297 474.111 722.664 488.935C701.456 507.809 727.939 458.424 737.635 445.869C747.575 433.078 774.622 407.481 798.344 399.491Z" fill="#BAC6F2"/>
<path d="M714.797 492.094C714.797 492.094 715.757 490.772 715.452 491.343C712.052 497.495 691.79 530.177 689.244 536.913C686.454 544.277 691.059 528.256 691.059 528.256L714.797 492.094Z" fill="#BAC6F2"/>
<path d="M787.367 443.573C787.367 443.573 728.335 518.192 711.686 533.016C690.479 551.89 716.962 502.506 726.658 489.951C736.598 477.104 763.69 451.562 787.367 443.573Z" fill="#BAC6F2"/>
<path d="M703.82 536.176C703.82 536.176 704.78 534.853 704.475 535.424C701.075 541.576 680.249 575.385 677.688 582.122C674.898 589.485 679.807 571.92 679.807 571.92L703.82 536.176Z" fill="#BAC6F2"/>
<path d="M785.965 485.552C785.965 485.552 720.117 560.854 703.454 575.692C682.247 594.566 713.745 539.182 723.441 526.627C733.366 513.808 762.166 493.542 785.965 485.552Z" fill="#BAC6F2"/>
<path d="M696.837 578.893C696.837 578.893 697.401 578.197 697.035 578.893C692.995 586.326 667.732 626.357 664.516 634.402C660.994 643.254 666.879 622.376 666.879 622.376L696.837 578.893Z" fill="#BAC6F2"/>
<path d="M784.821 538.403C784.821 538.403 760.077 565.141 735.424 585.964C718.867 599.883 701.67 609.097 694.55 613.802C672.032 628.695 709.796 580.494 720.682 569.581C731.857 558.349 761.663 541.34 784.821 538.403Z" fill="#BAC6F2"/>
<path d="M687.994 615.249C687.994 615.249 688.558 614.553 688.192 615.249C684.152 622.682 656.923 665.97 653.965 674.071C653.264 675.992 657.64 658.927 657.64 658.927L687.994 615.249Z" fill="#BAC6F2"/>
<path d="M772.838 585.031C772.838 585.031 745.029 615.138 717.373 638.703C698.804 654.529 679.594 665.01 671.635 670.369C646.434 687.336 688.985 633.191 701.243 620.887C713.851 608.29 747.149 588.776 772.838 585.031Z" fill="#BAC6F2"/>
<path d="M757.882 664.133C757.882 664.133 724.249 675.449 697.858 688.435C666.909 703.677 662.213 704.888 655.17 705.333C632.789 706.725 689.001 661.363 701.319 656.617C713.882 651.606 739.769 651.759 757.882 664.133Z" fill="#BAC6F2"/>
<path d="M663.326 673.431C663.326 673.431 664.683 671.635 664.47 672.039C662.259 675.867 649.3 692.068 648.218 696.481C647.958 697.524 649.971 688.742 649.971 688.742L663.326 673.431Z" fill="#BAC6F2"/>
<path d="M652.563 701.909C652.563 701.909 653.416 701.102 653.295 701.269C652.09 703.106 643.75 710.26 643.69 712.654C643.69 713.225 643.69 708.479 643.69 708.479L652.563 701.909Z" fill="#BAC6F2"/>
<path d="M1015.17 214.898L845.683 703.092L859.77 702.925L1015.17 214.898Z" fill="#BAC6F2"/>
<path d="M1007.63 132.957C1007.63 132.957 1002.56 197.861 1015.25 214.898C1015.17 214.898 1037.72 176.871 1007.63 132.957Z" fill="#BAC6F2"/>
<path d="M952.222 153.306C952.222 153.306 980.457 206.491 1000.46 216.081C1000.46 216.053 1001.53 178.764 952.222 153.306Z" fill="#BAC6F2"/>
<path d="M1066.63 114.458C1066.63 114.458 1010.31 186.35 1018.3 211.989C1018.3 211.989 1083.37 179.377 1066.63 114.458Z" fill="#BAC6F2"/>
<path d="M925.968 178.012C925.968 178.012 955.408 246.41 965.089 265.577C967.361 270.087 969.419 272.105 971.188 272.383C976.615 273.218 979.786 258.464 979.741 248.276C979.695 234.732 966.568 193.407 925.968 178.012Z" fill="#BAC6F2"/>
<path d="M972.224 271.214C972.224 271.214 971.98 270.852 972.072 271.423C973.154 277.589 979.771 314.961 978.719 321.406C977.576 328.449 982.759 312.275 982.759 312.275L972.224 271.214Z" fill="#BAC6F2"/>
<path d="M1000.4 215.399C1000.4 215.399 999.576 215.093 999.667 215.315C1002.32 221.231 1002.58 246.048 1001.53 252.493C1000.38 259.536 1004.39 246.856 1004.39 246.856L1000.4 215.399Z" fill="#BAC6F2"/>
<path d="M909.762 206.101C909.762 206.101 925.008 296.352 940.254 316.52C959.555 342.201 963.123 293.735 960.393 284.841C957.664 275.946 947.77 224.544 909.762 206.101Z" fill="#BAC6F2"/>
<path d="M1000.4 215.399C1000.4 215.399 999.576 215.093 999.667 215.315C1002.32 221.231 1002.58 246.048 1001.53 252.493C1000.38 259.536 1004.39 246.856 1004.39 246.856L1000.4 215.399Z" fill="#BAC6F2"/>
<path d="M951.459 320.71C951.459 320.71 951.2 320.306 951.307 320.947C952.45 327.823 959.479 369.496 958.503 376.622C957.436 384.459 962.436 366.476 962.436 366.476L951.459 320.71Z" fill="#BAC6F2"/>
<path d="M849.434 243.933C849.434 243.933 893.189 346.042 914.564 367.394C941.763 394.564 937.006 336.146 931.502 326.236C925.999 316.325 892.762 260.482 849.434 243.933Z" fill="#BAC6F2"/>
<path d="M928.346 373.393C928.346 373.393 927.554 371.667 927.676 372.377C928.956 380.046 940.589 421.539 939.476 429.542C938.256 438.283 944.05 419.799 944.05 419.799L928.346 373.393Z" fill="#BAC6F2"/>
<path d="M817.966 293.331C817.966 293.331 872.668 398.976 894.196 421.79C921.638 450.811 912.491 385.503 903.831 367.812C894.897 349.703 861.402 311.022 817.966 293.331Z" fill="#BAC6F2"/>
<path d="M908.054 428.22C908.054 428.22 907.246 426.383 907.368 427.134C908.694 435.305 920.586 479.526 919.565 488.058C918.406 497.37 924.139 477.633 924.139 477.633L908.054 428.22Z" fill="#BAC6F2"/>
<path d="M798.756 346.989C798.756 346.989 853.458 452.634 874.986 475.447C902.428 504.468 893.281 439.16 884.621 421.469C875.641 403.361 842.131 364.68 798.756 346.989Z" fill="#BAC6F2"/>
<path d="M888.799 481.878C888.799 481.878 887.99 480.04 888.112 480.792C889.439 488.963 901.483 534.672 900.416 543.191C899.257 552.503 905.783 530.928 905.783 530.928L888.799 481.878Z" fill="#BAC6F2"/>
<path d="M760.809 394.759C760.809 394.759 829.568 503.689 851.08 526.502C878.523 555.523 864.451 481.627 855.745 463.936C846.857 445.828 804.245 412.45 760.809 394.759Z" fill="#BAC6F2"/>
<path d="M862.24 532.543C862.24 532.543 861.691 531.555 861.828 532.459C863.353 542.3 878.812 596.64 877.928 606.884C876.952 618.019 884.591 592.408 884.591 592.408L862.24 532.543Z" fill="#BAC6F2"/>
<path d="M711.854 454.666C711.854 454.666 739.144 493.848 772.076 526.335C794.197 548.146 822.387 564.765 833.181 572.657C867.287 597.712 832.785 529.509 819.856 513.293C806.608 496.618 758.903 466.483 711.854 454.666Z" fill="#BAC6F2"/>
<path d="M845.912 576.694C845.912 576.694 845.363 575.706 845.5 576.61C847.025 586.451 863.582 645.189 862.057 655.392C861.706 657.8 868.887 636.991 868.887 636.991L845.912 576.694Z" fill="#BAC6F2"/>
<path d="M692.141 511.539C692.141 511.539 722.831 555.648 759.559 592.269C784.211 616.892 815.466 635.738 827.418 644.688C865.274 673.027 826.199 596.473 811.73 578.128C796.896 559.393 744.023 525.208 692.141 511.539Z" fill="#BAC6F2"/>
<path d="M647.455 606.077C647.455 606.077 709.034 631.131 753.323 655.461C805.266 683.967 814.307 687.057 829.065 690.148C876.022 699.891 798.878 628.236 776.985 618.326C754.543 608.165 698.59 598.811 647.455 606.077Z" fill="#BAC6F2"/>
<path d="M842.466 651.258C842.466 651.258 841.307 648.739 841.399 649.212C842.436 654.32 854.617 677.328 852.65 682.687C852.178 683.954 856.416 673.333 856.416 673.333L842.466 651.258Z" fill="#BAC6F2"/>
<path d="M837.953 687.266C837.953 687.266 836.917 686.041 836.993 686.278C837.786 688.797 848.839 699.905 846.628 702.619C846.11 703.259 850.821 697.887 850.821 697.887L837.953 687.266Z" fill="#BAC6F2"/>
<path d="M1058.44 156.285C1058.44 156.285 1027.57 216.498 1011.03 230.139C1011.01 230.139 1017.28 191.806 1058.44 156.285Z" fill="#BAC6F2"/>
<path d="M1081.23 183.51C1081.23 183.51 1036.38 227.815 1019.29 233.48C1019.29 233.494 1038.12 199.239 1081.23 183.51Z" fill="#BAC6F2"/>
<path d="M1032.45 130.159C1032.45 130.159 1028.88 204.807 1010.67 226.979C1010.67 226.979 988.4 187.004 1032.45 130.159Z" fill="#BAC6F2"/>
<path d="M1084.18 210.235C1084.18 210.235 1030.63 268.291 1014.78 284.34C1011.04 288.112 1008.68 289.643 1007.5 289.615C1003.78 289.531 1009.61 275.487 1014.94 266.203C1022.06 253.829 1051.59 218.016 1084.18 210.235Z" fill="#BAC6F2"/>
<path d="M1007.5 288.39C1007.5 288.39 1007.84 288.098 1007.5 288.613C1003.63 294.097 980.061 327.28 977.362 333.348C974.313 339.974 979.695 324.357 979.695 324.357L1007.5 288.39Z" fill="#BAC6F2"/>
<path d="M1019.67 232.895C1019.67 232.895 1020.33 232.742 1020.16 232.895C1015.46 237.892 1002.34 260.58 999.606 266.649C996.557 273.274 1000.83 261.081 1000.83 261.081L1019.67 232.895Z" fill="#BAC6F2"/>
<path d="M1079.28 238.49C1079.28 238.49 1022.87 318.747 1003.17 334.865C978.094 355.368 1001.28 310.438 1007.58 302.727C1013.88 295.015 1046.69 249.459 1079.28 238.49Z" fill="#BAC6F2"/>
<path d="M1019.67 232.895C1019.67 232.895 1020.33 232.742 1020.16 232.895C1015.46 237.892 1002.34 260.58 999.606 266.649C996.557 273.274 1000.83 261.081 1000.83 261.081L1019.67 232.895Z" fill="#BAC6F2"/>
<path d="M994.178 336.939C994.178 336.939 994.544 336.619 994.178 337.176C989.894 343.3 963.854 380.325 960.637 387.09C957.192 394.439 963.565 377.193 963.565 377.193L994.178 336.939Z" fill="#BAC6F2"/>
<path d="M1095.93 282.516C1095.93 282.516 1016.12 369.204 992.044 385.433C961.415 406.089 994.834 353.336 1003.33 345.068C1011.82 336.8 1061.15 290.868 1095.93 282.516Z" fill="#BAC6F2"/>
<path d="M980.549 388.774C980.549 388.774 981.936 387.382 981.494 387.952C976.707 394.773 947.953 430.962 944.477 438.465C940.635 446.663 946.84 428.721 946.84 428.721L980.549 388.774Z" fill="#BAC6F2"/>
<path d="M1089.11 332.638C1089.11 332.638 1000.84 420.871 975.929 438.423C944.218 460.693 983.826 402.345 998.325 387.493C1013.17 372.28 1053.64 342.076 1089.11 332.638Z" fill="#BAC6F2"/>
<path d="M964.174 442.139C964.174 442.139 965.623 440.58 965.15 441.248C960.073 448.528 929.78 487.181 925.953 495.143C921.791 503.842 928.682 484.898 928.682 484.898L964.174 442.139Z" fill="#BAC6F2"/>
<path d="M1072.7 384.765C1072.7 384.765 984.421 472.998 959.509 490.549C927.798 512.82 967.407 454.471 981.905 439.62C996.77 424.42 1037.22 394.216 1072.7 384.765Z" fill="#BAC6F2"/>
<path d="M947.77 494.321C947.77 494.321 949.218 492.762 948.746 493.431C943.669 500.71 912.506 540.686 908.694 548.647C904.532 557.347 911.866 536.579 911.866 536.579L947.77 494.321Z" fill="#BAC6F2"/>
<path d="M1070.61 434.47C1070.61 434.47 972.133 523.551 947.221 541.047C915.509 563.318 962.604 497.899 977.103 483.033C991.937 467.778 1035.07 443.851 1070.61 434.47Z" fill="#BAC6F2"/>
<path d="M937.311 544.792C937.311 544.792 938.165 543.97 937.601 544.792C931.502 553.575 893.784 600.913 888.981 610.434C883.722 620.831 892.534 596.139 892.534 596.139L937.311 544.792Z" fill="#BAC6F2"/>
<path d="M1068.88 496.896C1068.88 496.896 1031.88 528.52 995.017 553.143C970.258 569.679 944.538 580.494 933.896 586.061C900.218 603.683 956.658 546.671 972.987 533.768C989.696 520.559 1034.26 500.39 1068.88 496.896Z" fill="#BAC6F2"/>
<path d="M924.093 587.773C924.093 587.773 924.947 586.952 924.383 587.773C918.284 596.556 877.623 647.75 873.202 657.368C872.15 659.637 878.69 639.455 878.69 639.455L924.093 587.773Z" fill="#BAC6F2"/>
<path d="M1051.02 552.03C1051.02 552.03 1009.42 587.634 968.077 615.5C940.33 634.207 911.576 646.609 899.699 652.998C862.027 673.055 925.618 609.042 943.913 594.538C962.757 579.547 1012.55 556.47 1051.02 552.03Z" fill="#BAC6F2"/>
<path d="M1028.59 645.551C1028.59 645.551 978.277 658.941 938.836 674.294C892.564 692.319 885.475 693.78 874.955 694.268C841.414 695.924 925.556 642.266 943.958 636.601C962.818 630.797 1001.53 630.95 1028.59 645.551Z" fill="#BAC6F2"/>
<path d="M887.182 656.575C887.724 655.978 888.299 655.407 888.905 654.863C885.597 659.387 866.219 678.525 864.603 683.773C864.222 685.011 867.21 674.628 867.21 674.628L887.182 656.575Z" fill="#BAC6F2"/>
<path d="M871.098 690.245C871.098 690.245 872.363 689.285 872.196 689.493C870.397 691.665 857.91 700.127 857.834 702.967C857.834 703.635 857.834 697.984 857.834 697.984L871.098 690.245Z" fill="#BAC6F2"/>
<path d="M1294.2 211.863L1381.82 716.176L1370.49 714.478L1294.2 211.863Z" fill="#BAC6F2"/>
<path d="M1308.29 130.577C1308.29 130.577 1305.93 195.731 1294.2 211.863C1294.25 211.863 1280.01 172.334 1308.29 130.577Z" fill="#BAC6F2"/>
<path d="M1350.29 154.698C1350.29 154.698 1322.62 205.837 1305.79 214.007C1305.77 214.049 1308.57 176.746 1350.29 154.698Z" fill="#BAC6F2"/>
<path d="M1263.16 108C1263.16 108 1300.87 183.691 1291.96 208.732C1291.96 208.732 1243.48 171.652 1263.16 108Z" fill="#BAC6F2"/>
<path d="M1368.73 181.242C1368.73 181.242 1338.6 247.482 1329.09 265.953C1326.83 270.295 1325 272.16 1323.54 272.314C1319.15 272.773 1318.08 257.768 1319.12 247.635C1320.44 234.148 1334.94 193.797 1368.73 181.242Z" fill="#BAC6F2"/>
<path d="M1322.79 271.089C1322.79 271.089 1323.02 270.755 1322.88 271.311C1321.36 277.394 1312.48 314.251 1312.68 320.766C1312.89 327.878 1310.36 311.37 1310.36 311.37L1322.79 271.089Z" fill="#BAC6F2"/>
<path d="M1305.9 213.395C1305.9 213.395 1306.58 213.144 1306.48 213.395C1303.79 219.115 1301.14 243.877 1301.35 250.391C1301.57 257.504 1299.63 244.559 1299.63 244.559L1305.9 213.395Z" fill="#BAC6F2"/>
<path d="M1378.85 210.374C1378.85 210.374 1357.84 299.456 1343.78 318.511C1325.91 342.799 1327.87 294.166 1330.89 285.481C1333.9 276.795 1346.83 226.186 1378.85 210.374Z" fill="#BAC6F2"/>
<path d="M1305.9 213.395C1305.9 213.395 1306.58 213.144 1306.48 213.395C1303.79 219.115 1301.14 243.877 1301.35 250.391C1301.57 257.504 1299.63 244.559 1299.63 244.559L1305.9 213.395Z" fill="#BAC6F2"/>
<path d="M1334.44 321.949C1334.44 321.949 1334.68 321.573 1334.53 322.199C1333 328.992 1323.26 370.108 1323.34 377.332C1323.41 385.238 1321.2 366.935 1321.2 366.935L1334.44 321.949Z" fill="#BAC6F2"/>
<path d="M1423.08 252.396C1423.08 252.396 1378.25 351.304 1359.17 371.138C1334.88 396.373 1344.41 338.373 1349.76 328.866C1355.11 319.36 1387.02 265.841 1423.08 252.396Z" fill="#BAC6F2"/>
<path d="M1347.61 376.163C1347.61 376.163 1348.42 374.493 1348.25 375.203C1346.48 382.775 1333.16 423.39 1333.25 431.463C1333.35 440.274 1330.58 421.358 1330.58 421.358L1347.61 376.163Z" fill="#BAC6F2"/>
<path d="M1443.25 303.896C1443.25 303.896 1389.38 405.574 1370.07 426.856C1345.46 453.928 1359.06 389.344 1367.72 372.294C1376.58 354.825 1406.98 318.539 1443.25 303.896Z" fill="#BAC6F2"/>
<path d="M1358.37 432.326C1358.37 432.326 1359.2 430.545 1359.03 431.296C1357.17 439.369 1343.37 482.699 1343.37 491.273C1343.37 500.641 1340.81 480.555 1340.81 480.555L1358.37 432.326Z" fill="#BAC6F2"/>
<path d="M1453.28 358.82C1453.28 358.82 1399.45 460.498 1380.08 481.794C1355.48 508.867 1369.08 444.283 1377.74 427.232C1386.59 409.75 1417.02 373.463 1453.28 358.82Z" fill="#BAC6F2"/>
<path d="M1368.41 487.237C1368.41 487.237 1369.23 485.455 1369.06 486.207C1367.2 494.28 1353.14 539.099 1353.14 547.645C1353.14 557.012 1350.09 535.02 1350.09 535.02L1368.41 487.237Z" fill="#BAC6F2"/>
<path d="M1478.72 409.165C1478.72 409.165 1413.37 513.14 1394.02 534.436C1369.41 561.508 1387.8 488.698 1396.46 471.647C1405.29 454.151 1442.44 423.808 1478.72 409.165Z" fill="#BAC6F2"/>
<path d="M1384.54 539.669C1384.54 539.669 1385.07 538.723 1384.87 539.669C1382.72 549.413 1365.05 602.569 1364.76 612.855C1364.44 624.102 1360.89 597.934 1360.89 597.934L1384.54 539.669Z" fill="#BAC6F2"/>
<path d="M1511.78 472.385C1511.78 472.385 1486.2 509.604 1456.89 539.753C1437.16 559.991 1413.11 574.55 1403.78 581.76C1374.21 604.379 1408.35 538.765 1420.2 523.412C1432.29 507.67 1473.16 480.903 1511.78 472.385Z" fill="#BAC6F2"/>
<path d="M1393.18 584.892C1393.18 584.892 1393.71 583.946 1393.52 584.892C1391.37 594.635 1372.42 652.107 1372.61 662.393C1372.61 664.829 1368.98 643.547 1368.98 643.547L1393.18 584.892Z" fill="#BAC6F2"/>
<path d="M1521.81 530.511C1521.81 530.511 1493.07 572.407 1460.29 606.467C1438.26 629.335 1411.64 646.038 1401.2 654.111C1368.33 679.764 1406.9 606.049 1420.21 588.692C1433.84 571.015 1479.23 540.574 1521.81 530.511Z" fill="#BAC6F2"/>
<path d="M1548.03 628.041C1548.03 628.041 1496.62 648.794 1459.03 669.979C1414.94 694.824 1407.5 697.288 1395.41 699.348C1357.12 705.848 1425.49 639.636 1443.86 631.256C1462.7 622.668 1508.1 617.24 1548.03 628.041Z" fill="#BAC6F2"/>
<path d="M1388.59 659.567C1388.89 658.886 1389.24 658.226 1389.64 657.591C1388.32 662.63 1376.38 684.733 1377.45 690.245C1377.69 691.553 1375.37 680.655 1375.37 680.655L1388.59 659.567Z" fill="#BAC6F2"/>
<path d="M1388.64 695.84C1388.64 695.84 1389.58 694.685 1389.51 694.922C1388.62 697.371 1378.74 707.699 1380.25 710.567C1380.6 711.249 1377.39 705.542 1377.39 705.542L1388.64 695.84Z" fill="#BAC6F2"/>
<path d="M1265.57 150.328C1265.57 150.328 1284.2 212.601 1296.06 227.369C1296 227.369 1294.8 188.66 1265.57 150.328Z" fill="#BAC6F2"/>
<path d="M1244.78 175.939C1244.78 175.939 1276.08 223.263 1289.1 230.139C1289.1 230.139 1277.48 194.562 1244.78 175.939Z" fill="#BAC6F2"/>
<path d="M1288.81 126.053C1288.81 126.053 1284.23 200.77 1296.64 224.237C1296.63 224.293 1318.22 185.877 1288.81 126.053Z" fill="#BAC6F2"/>
<path d="M1239.81 202.412C1239.81 202.412 1276.66 264.101 1287.69 281.236C1290.29 285.258 1291.96 286.942 1292.95 287.012C1295.91 287.193 1292.66 272.759 1289.34 263.113C1284.89 250.252 1264.95 212.448 1239.81 202.412Z" fill="#BAC6F2"/>
<path d="M1293.08 285.773C1293.08 285.773 1292.83 285.467 1293.08 285.996C1295.62 291.731 1311.07 326.514 1312.64 332.764C1314.36 339.584 1311.66 323.633 1311.66 323.633L1293.08 285.773Z" fill="#BAC6F2"/>
<path d="M1288.85 229.513C1288.85 229.513 1288.35 229.318 1288.47 229.513C1291.7 234.83 1299.92 258.395 1301.49 264.644C1303.21 271.465 1301.08 258.965 1301.08 258.965L1288.85 229.513Z" fill="#BAC6F2"/>
<path d="M1240.89 230.96C1240.89 230.96 1277.83 315.017 1291.92 332.485C1309.83 354.756 1295.82 308.239 1291.58 300.082C1287.34 291.925 1265.75 244.183 1240.89 230.96Z" fill="#BAC6F2"/>
<path d="M1288.85 229.513C1288.85 229.513 1288.35 229.318 1288.47 229.513C1291.7 234.83 1299.92 258.395 1301.49 264.644C1303.21 271.465 1301.08 258.965 1301.08 258.965L1288.85 229.513Z" fill="#BAC6F2"/>
<path d="M1298.82 335.186C1298.82 335.186 1298.56 334.838 1298.82 335.422C1301.63 341.825 1318.64 380.659 1320.53 387.591C1322.55 395.163 1319.18 377.499 1319.18 377.499L1298.82 335.186Z" fill="#BAC6F2"/>
<path d="M1223.37 273.747C1223.37 273.747 1278.26 365.863 1295.82 383.707C1318.14 406.465 1296.76 351.457 1290.8 342.66C1284.84 333.863 1250.19 284.521 1223.37 273.747Z" fill="#BAC6F2"/>
<path d="M1304.63 387.883C1304.63 387.883 1303.67 386.338 1303.96 386.992C1307.09 394.133 1326.36 432.271 1328.35 439.996C1330.6 448.444 1327.42 430.169 1327.42 430.169L1304.63 387.883Z" fill="#BAC6F2"/>
<path d="M1223.86 324.273C1223.86 324.273 1285.35 418.519 1303.43 437.755C1326.43 462.252 1300.7 401.176 1290.64 385.35C1280.31 369.148 1251.13 336.174 1223.86 324.273Z" fill="#BAC6F2"/>
<path d="M1312.39 442.306C1312.39 442.306 1311.4 440.65 1311.71 441.36C1315.03 448.973 1335.31 489.672 1337.62 497.899C1340.08 506.876 1336.47 487.487 1336.47 487.487L1312.39 442.306Z" fill="#BAC6F2"/>
<path d="M1231.74 377.471C1231.74 377.471 1293.23 471.717 1311.31 490.953C1334.32 515.45 1308.58 454.374 1298.52 438.548C1288.24 422.346 1259.05 389.372 1231.74 377.471Z" fill="#BAC6F2"/>
<path d="M1320.32 495.504C1320.32 495.504 1319.33 493.848 1319.63 494.558C1322.96 502.172 1343.8 544.263 1346.04 552.489C1348.49 561.466 1344.7 540.212 1344.7 540.212L1320.32 495.504Z" fill="#BAC6F2"/>
<path d="M1228.57 427.19C1228.57 427.19 1298.09 522.953 1316.17 542.203C1339.18 566.7 1308.18 498.024 1298.12 482.198C1287.8 465.982 1255.84 439.077 1228.57 427.19Z" fill="#BAC6F2"/>
<path d="M1323.66 546.671C1323.66 546.671 1323.06 545.794 1323.43 546.671C1327.38 555.857 1352.73 605.757 1355.63 615.597C1358.79 626.343 1354.21 601.08 1354.21 601.08L1323.66 546.671Z" fill="#BAC6F2"/>
<path d="M1223.78 489.686C1223.78 489.686 1250.08 523.843 1276.98 550.93C1295.03 569.164 1314.42 581.76 1322.32 588.052C1347.37 607.984 1308.09 547.13 1296.4 533.127C1284.42 518.833 1250.97 495.588 1223.78 489.686Z" fill="#BAC6F2"/>
<path d="M1329.94 590.501C1329.94 590.501 1329.35 589.625 1329.71 590.501C1333.66 599.688 1360.98 653.638 1363.56 663.52C1364.17 665.859 1360.95 645.245 1360.95 645.245L1329.94 590.501Z" fill="#BAC6F2"/>
<path d="M1232.56 545.989C1232.56 545.989 1262.13 584.433 1292.25 615.138C1312.48 635.752 1334.09 650.13 1342.93 657.285C1370.91 679.931 1326.63 611.589 1313.49 595.791C1300.03 579.603 1262.72 553.101 1232.56 545.989Z" fill="#BAC6F2"/>
<path d="M1241.21 640.916C1241.21 640.916 1279.87 657.786 1309.72 675.867C1344.79 697.079 1350.19 699 1358.51 700.267C1384.96 704.247 1323.45 644.827 1309.33 637.882C1294.94 630.727 1264.17 628.222 1241.21 640.916Z" fill="#BAC6F2"/>
<path d="M1352.5 661.767C1352.5 661.767 1351.1 659.498 1351.31 659.943C1353.49 664.69 1367.02 685.165 1367.78 690.565C1367.96 691.832 1366.61 681.253 1366.61 681.253L1352.5 661.767Z" fill="#BAC6F2"/>
<path d="M1361.99 696.522C1361.99 696.522 1361.07 695.478 1361.18 695.687C1362.38 697.984 1371.48 707.296 1371.27 710.135C1371.27 710.803 1371.81 705.166 1371.81 705.166L1361.99 696.522Z" fill="#BAC6F2"/>
<path d="M1610.54 366.476C1610.54 366.476 1646 441.847 1661.71 456.838C1681.69 475.907 1675.17 431.505 1670.85 424.267C1666.54 417.029 1640.87 376.344 1610.54 366.476Z" fill="#BAC6F2"/>
<path d="M1591.96 406.27C1591.96 406.27 1635.04 483.659 1650.93 499.764C1671.14 520.238 1661.33 470.826 1654.42 457.84C1647.36 444.547 1622.43 417.057 1591.96 406.27Z" fill="#BAC6F2"/>
<path d="M1581.91 448.556C1581.91 448.556 1624.99 525.945 1640.88 542.05C1661.1 562.524 1651.28 513.112 1644.37 500.126C1637.28 486.833 1612.39 459.357 1581.91 448.556Z" fill="#BAC6F2"/>
<path d="M1558.9 487.529C1558.9 487.529 1611.72 566.533 1627.6 582.637C1647.82 603.112 1634.14 547.45 1627.25 534.464C1620.16 521.157 1589.38 498.316 1558.9 487.529Z" fill="#BAC6F2"/>
<path d="M1529.04 536.482C1529.04 536.482 1549.8 564.738 1573.98 587.509C1590.22 602.82 1610.31 613.732 1618.06 619.091C1642.62 636.086 1615.36 586.145 1605.66 574.55C1595.72 562.524 1561.65 542.537 1529.04 536.482Z" fill="#BAC6F2"/>
<path d="M1518.88 581.245C1518.88 581.245 1542.21 613.05 1569.19 638.786C1587.32 656.074 1609.58 668.517 1618.19 674.614C1645.49 693.906 1614.64 637.784 1603.79 624.673C1592.66 611.241 1554.86 588.428 1518.88 581.245Z" fill="#BAC6F2"/>
<path d="M1493.88 656.422C1493.88 656.422 1537.09 671.733 1568.58 687.503C1605.45 706.029 1611.72 707.825 1621.95 709.258C1654.37 713.782 1597.96 663.785 1582.55 657.591C1566.68 651.244 1528.17 647.639 1493.88 656.422Z" fill="#BAC6F2"/>
<path d="M1045.45 702.744C1039.92 702.438 1034.55 700.902 1029.82 698.27C1025.09 695.637 1021.13 691.989 1018.3 687.642C1006.57 669.436 1005.98 648.196 1006.65 641.584C1014.84 560.019 1056.41 186.531 1163.68 177.623C1282.6 167.74 1237.84 636.017 1205.38 681.699C1172.92 727.381 1077.31 704.665 1077.31 704.665L1045.45 702.744Z" fill="#B1C1F2"/>
<path d="M1148.92 329.618C1148.92 329.618 1178.79 300.569 1189.92 289.671C1201.05 278.772 1224.65 245.993 1224.65 245.993L1225.83 250.475C1225.83 250.475 1171.14 324.44 1151.35 344.303C1131.56 364.165 1147.55 343.286 1147.55 343.286L1148.92 329.632" fill="#BAC6F2"/>
<path d="M1138.74 389.79C1138.74 389.79 1111.3 358.375 1102.27 347.518C1093.25 336.661 1072.95 302.685 1072.95 302.685L1071.75 306.192C1071.75 306.192 1116.85 382.97 1133.04 402.734C1135.84 406.172 1136.35 401.482 1136.35 401.482L1138.16 393.13" fill="#BAC6F2"/>
<path d="M1155.34 275.028C1155.34 275.028 1137.46 253.843 1131.53 246.522C1125.6 239.2 1112.44 216.248 1112.44 216.248L1111.27 217.988C1111.27 217.988 1140.97 270.49 1151.53 283.825C1153.36 286.135 1153.73 282.962 1153.73 282.962L1154.96 277.31" fill="#BAC6F2"/>
<path d="M1135.45 411.865C1135.45 411.865 1189.43 385.753 1211.92 361.158C1233.94 336.995 1237.66 329.882 1237.66 329.882L1238.1 333.418C1238.1 333.418 1189.59 402.219 1135.04 434.344C1129.85 437.407 1134.35 429.946 1134.35 429.946L1135.49 411.851" fill="#BAC6F2"/>
<path d="M1124.68 450.546C1124.68 450.546 1084.14 424.1 1070.06 400.285C1056.23 376.887 1053.68 368.577 1053.68 368.577L1052.77 372.001C1052.77 372.001 1082.19 438.562 1120.69 466.762C1121.06 467.026 1122.21 466.762 1122.21 466.762L1124.61 450.713" fill="#BAC6F2"/>
<path d="M1128.43 490.02C1128.43 490.02 1186.72 462.308 1211.34 436.836C1235.51 411.782 1240.03 404.46 1240.03 404.46V407.787C1240.03 407.787 1186.28 478.927 1127.21 512.764C1121.59 515.979 1126.62 508.338 1126.62 508.338L1128.37 490.02" fill="#BAC6F2"/>
<path d="M1114.68 528.632C1114.68 528.632 1070 499.402 1054.54 472.956C1039.29 447.025 1037.51 439.717 1037.51 439.717L1036.59 444.074C1036.59 444.074 1067.76 515.464 1110.15 546.629C1110.55 546.921 1111.86 546.629 1111.86 546.629L1114.58 528.799" fill="#BAC6F2"/>
<path d="M1118.81 564.445C1118.81 564.445 1180.32 535.494 1206.6 509.396C1232.38 483.785 1237.72 475.99 1237.72 475.99L1237.5 479.456C1237.5 479.456 1179.57 552.266 1117.06 587.384C1111.11 590.724 1116.53 582.93 1116.53 582.93L1118.74 564.445" fill="#BAC6F2"/>
<path d="M1106.63 600.996C1106.63 600.996 1059.6 569.985 1043.61 541.521C1027.93 513.585 1025.54 504.232 1025.54 504.232L1024.66 509.326C1024.66 509.326 1056.92 587.425 1101.49 620.678C1101.91 620.984 1103.32 620.594 1103.32 620.594L1106.56 601.177" fill="#BAC6F2"/>
<path d="M1108.78 645.941C1108.78 645.941 1167.07 618.228 1191.69 592.756C1215.85 567.702 1219.86 560.743 1219.86 560.743L1220.96 563.415C1220.96 563.415 1166.69 634.861 1107.62 668.698C1102 671.914 1105.35 663.882 1105.35 663.882L1108.78 645.969" fill="#BAC6F2"/>
<path d="M1095.02 684.552C1095.02 684.552 1050.33 655.322 1034.87 628.876C1019.62 602.945 1013.04 585.198 1013.04 585.198L1012.38 590.07C1012.38 590.07 1048.12 671.329 1090.52 702.494C1090.91 702.786 1092.23 702.494 1092.23 702.494L1094.94 684.663" fill="#BAC6F2"/>
<path d="M1172.71 177.971L1151.09 321.281L1100.53 707.658L1080.65 705.361L1168.03 185.696L1169.96 177.303L1172.71 177.971Z" fill="#BAC6F2"/>
<path d="M1392.25 701.714C1382.95 698.93 1369.76 665.873 1369.91 658.885C1371.44 591.643 1381.23 276.489 1500.24 257.699C1632.25 236.82 1620.77 643.728 1588.82 684.385C1556.86 725.042 1406.86 708.674 1406.86 708.674L1392.25 701.714Z" fill="#B1C1F2"/>
<path d="M1498 382.969C1498 382.969 1528.63 356.12 1540.04 346.042C1551.46 335.965 1574.77 306.791 1574.77 306.791L1576.5 310.312C1576.5 310.312 1522.36 376.386 1502.11 394.675C1481.87 412.965 1497.78 394.258 1497.78 394.258L1498.03 382.997" fill="#BAC6F2"/>
<path d="M1492.26 433.078C1492.26 433.078 1458.72 410.473 1447.53 402.609C1436.34 394.745 1410.56 369.287 1410.56 369.287L1409.54 372.266C1409.54 372.266 1467.17 429.876 1487.1 444.213C1490.56 446.705 1490.68 442.821 1490.68 442.821L1491.93 435.862" fill="#BAC6F2"/>
<path d="M1500.07 337.886C1500.07 337.886 1478.1 322.575 1470.77 317.258C1463.43 311.941 1446.59 294.681 1446.59 294.681L1445.43 296.226C1445.43 296.226 1483.54 335.742 1496.61 345.458C1498.88 347.142 1498.97 344.525 1498.97 344.525L1499.83 339.793" fill="#BAC6F2"/>
<path d="M1490.68 451.367C1490.68 451.367 1548.61 424.337 1571.3 401.871C1593.62 379.838 1597.11 373.644 1597.11 373.644L1597.93 376.428C1597.93 376.428 1550.21 437.671 1492.29 469.685C1486.79 472.733 1491.1 466.177 1491.1 466.177L1490.68 451.34" fill="#BAC6F2"/>
<path d="M1482.31 483.993C1482.31 483.993 1434.53 466.859 1416.54 448.987C1398.88 431.449 1395.19 424.949 1395.19 424.949L1394.51 427.83C1394.51 427.83 1433.66 478.816 1479.3 497.606C1479.73 497.787 1481.03 497.398 1481.03 497.398L1482.19 484.077" fill="#BAC6F2"/>
<path d="M1490.22 515.701C1490.22 515.701 1552.73 486.875 1577.85 463.491C1602.51 440.552 1606.82 434.052 1606.82 434.052L1607.2 436.752C1607.2 436.752 1553.84 500.418 1491.04 534.325C1485.07 537.554 1489.96 530.789 1489.96 530.789L1490.21 515.701" fill="#BAC6F2"/>
<path d="M1478.47 548.605C1478.47 548.605 1425.81 529.676 1406.03 509.841C1386.62 490.354 1383.88 484.634 1383.88 484.634L1383.3 488.211C1383.3 488.211 1424.85 542.94 1475.16 563.721C1475.63 563.916 1477.06 563.485 1477.06 563.485L1478.42 548.689" fill="#BAC6F2"/>
<path d="M1486.45 577.292C1486.45 577.292 1552.45 547.116 1579.36 523.008C1605.75 499.346 1610.98 492.47 1610.98 492.47L1611.08 495.254C1611.08 495.254 1553.14 560.673 1486.74 596.041C1480.42 599.396 1485.72 592.478 1485.72 592.478L1486.45 577.167" fill="#BAC6F2"/>
<path d="M1476.3 608.346C1476.3 608.346 1420.79 588.191 1400.3 566.7C1380.14 545.655 1376.61 538.305 1376.61 538.305L1376.1 542.481C1376.1 542.481 1419.49 602.555 1472.43 624.756C1472.92 624.965 1474.46 624.492 1474.46 624.492L1476.24 608.346" fill="#BAC6F2"/>
<path d="M1482.93 644.646C1482.93 644.646 1545.44 615.82 1570.57 592.436C1595.22 569.498 1599.03 563.332 1599.03 563.332L1600.56 565.392C1600.56 565.392 1546.65 629.419 1483.83 663.27C1477.86 666.499 1480.78 659.595 1480.78 659.595L1482.93 644.646Z" fill="#BAC6F2"/>
<path d="M1471.19 677.579C1471.19 677.579 1418.53 658.649 1398.76 638.814C1379.35 619.328 1370.27 605.631 1370.27 605.631L1369.99 609.668C1369.99 609.668 1417.56 671.928 1467.89 692.709C1468.36 692.903 1469.79 692.472 1469.79 692.472L1471.15 677.676" fill="#BAC6F2"/>
<path d="M1510.3 257.044L1499.64 375.968L1478.13 713.935L1454.83 713.337L1505.8 263.823L1507.16 256.794L1510.3 257.044Z" fill="#BAC6F2"/>
<path d="M894.058 402.818L779.577 705.723L789.151 705.291L894.058 402.818Z" fill="white"/>
<path d="M888.981 352.487C888.981 352.487 885.597 392.351 894.058 402.818C894.058 402.804 909.152 379.462 888.981 352.487Z" fill="white"/>
<path d="M851.964 364.972C851.964 364.972 870.854 397.64 884.225 403.528C884.225 403.528 884.972 380.617 851.964 364.972Z" fill="white"/>
<path d="M928.484 341.115C928.484 341.115 890.811 385.266 896.193 400.967C896.193 401.064 939.674 380.993 928.484 341.115Z" fill="white"/>
<path d="M834.416 380.186C834.416 380.186 854.099 422.193 860.578 433.969C862.103 436.752 863.475 437.977 864.679 438.144C868.308 438.659 870.427 429.57 870.397 423.335C870.412 414.983 861.569 389.609 834.416 380.186Z" fill="white"/>
<path d="M865.35 437.407C865.35 437.407 865.183 437.184 865.244 437.532C865.96 441.318 870.397 464.284 869.695 468.237C868.933 472.566 872.394 462.67 872.394 462.67L865.35 437.407Z" fill="white"/>
<path d="M884.133 403.124C884.133 403.124 883.584 402.943 883.645 403.124C885.414 406.757 885.582 421.998 884.88 425.965C884.118 430.294 886.801 422.499 886.801 422.499L884.133 403.124Z" fill="white"/>
<path d="M823.576 397.417C823.576 397.417 833.791 452.843 843.93 465.245C856.843 481.015 859.176 451.242 857.392 445.758C855.608 440.274 849.068 408.734 823.576 397.417Z" fill="white"/>
<path d="M884.133 403.124C884.133 403.124 883.584 402.943 883.645 403.124C885.414 406.757 885.582 421.998 884.88 425.965C884.118 430.294 886.801 422.499 886.801 422.499L884.133 403.124Z" fill="white"/>
<path d="M851.461 467.806C851.461 467.806 851.293 467.555 851.37 467.945C852.132 472.121 856.843 497.773 856.172 502.172C855.456 506.988 858.81 495.936 858.81 495.936L851.461 467.806Z" fill="white"/>
<path d="M783.236 420.648C783.236 420.648 812.493 483.367 826.793 496.479C844.982 513.182 841.795 477.285 838.121 471.202C834.447 465.119 812.203 430.767 783.236 420.648Z" fill="white"/>
<path d="M836.048 500.167C836.048 500.167 835.514 499.109 835.59 499.541C836.444 504.246 844.235 529.745 843.488 534.658C842.68 540.031 846.537 528.645 846.537 528.645L836.048 500.167Z" fill="white"/>
<path d="M762.166 450.992C762.166 450.992 798.756 515.882 813.133 529.898C831.428 547.729 825.33 507.628 819.582 496.743C813.636 485.608 791.24 461.848 762.166 450.992Z" fill="white"/>
<path d="M822.433 533.851C822.433 533.851 821.899 532.724 821.976 533.183C822.86 538.208 830.818 565.364 830.102 570.597C829.324 576.318 833.151 564.195 833.151 564.195L822.433 533.851Z" fill="white"/>
<path d="M749.298 483.952C749.298 483.952 785.888 548.842 800.265 562.858C818.56 580.689 812.462 540.588 806.714 529.703C800.753 518.568 778.357 494.808 749.298 483.952Z" fill="white"/>
<path d="M809.55 566.811C809.55 566.811 809.017 565.684 809.093 566.143C809.977 571.168 818.027 599.243 817.326 604.476C816.548 610.197 820.908 596.946 820.908 596.946L809.55 566.811Z" fill="white"/>
<path d="M723.975 513.293C723.975 513.293 769.956 580.201 784.349 594.204C802.644 612.034 793.283 566.644 787.398 555.774C781.513 544.652 753.018 524.164 723.975 513.293Z" fill="white"/>
<path d="M791.804 597.92C791.804 597.92 791.438 597.308 791.529 597.92C792.52 603.975 802.888 637.339 802.293 643.63C801.638 650.506 806.745 634.736 806.745 634.736L791.804 597.92Z" fill="white"/>
<path d="M691.196 550.095C703.333 565.722 716.812 580.444 731.506 594.12C746.295 607.524 765.169 617.783 772.365 622.571C795.234 637.882 772.106 596.125 763.462 586.103C754.543 575.859 722.694 557.347 691.196 550.095Z" fill="white"/>
<path d="M780.873 625.048C780.873 625.048 780.507 624.436 780.598 625.048C781.589 631.103 792.688 667.167 791.667 673.431C791.423 674.92 796.24 662.129 796.24 662.129L780.873 625.048Z" fill="white"/>
<path d="M678.054 585.017C678.054 585.017 698.575 612.104 723.136 634.625C739.617 649.755 760.519 661.321 768.508 666.819C793.832 684.218 767.7 637.2 758.019 625.939C748.094 614.414 712.754 593.424 678.054 585.017Z" fill="white"/>
<path d="M648.172 643.087C648.172 643.087 689.336 658.496 718.974 673.417C753.719 690.927 759.711 692.82 769.621 694.727C801.028 700.74 749.435 656.7 734.799 650.604C719.797 644.368 682.353 638.633 648.172 643.087Z" fill="white"/>
<path d="M778.57 670.842C778.57 670.842 777.793 669.297 777.854 669.589C778.555 672.735 786.696 686.849 785.37 690.162C785.065 690.941 787.886 684.427 787.886 684.427L778.57 670.842Z" fill="white"/>
<path d="M775.552 692.959C775.552 692.959 774.85 692.208 774.911 692.347C775.445 693.892 782.839 700.698 781.345 702.382C780.995 702.772 784.15 699.473 784.15 699.473L775.552 692.959Z" fill="white"/>
<path d="M922.995 366.81C922.995 366.81 902.352 403.848 891.284 412.199C891.284 412.199 895.476 388.635 922.995 366.81Z" fill="white"/>
<path d="M938.241 383.54C938.241 383.54 908.252 410.807 896.818 414.232C906.477 400.059 921.062 389.253 938.241 383.54Z" fill="white"/>
<path d="M905.615 350.761C905.615 350.761 903.236 396.582 891.024 410.223C891.024 410.223 876.16 385.67 905.615 350.761Z" fill="white"/>
<path d="M940.208 399.951C940.208 399.951 904.41 435.611 893.799 445.466C891.299 447.776 889.774 448.723 888.936 448.709C886.451 448.709 890.338 440.037 893.906 434.331C898.678 426.717 918.421 404.725 940.208 399.951Z" fill="white"/>
<path d="M888.936 447.957C888.936 447.957 889.165 447.776 888.936 448.096C886.344 451.465 870.641 471.856 868.781 475.573C866.783 479.637 870.305 470.005 870.305 470.005L888.936 447.957Z" fill="white"/>
<path d="M897.077 413.87C897.077 413.87 897.519 413.772 897.397 413.87C894.257 416.946 885.475 430.879 883.676 434.609C881.679 438.673 884.484 431.157 884.484 431.157L897.077 413.87Z" fill="white"/>
<path d="M936.93 417.294C936.93 417.294 899.212 466.595 886.039 476.491C869.269 489.018 884.774 461.487 888.982 456.754C893.189 452.022 915.144 424.044 936.93 417.294Z" fill="white"/>
<path d="M897.077 413.87C897.077 413.87 897.519 413.772 897.397 413.87C894.257 416.946 885.475 430.879 883.676 434.609C881.679 438.673 884.484 431.157 884.484 431.157L897.077 413.87Z" fill="white"/>
<path d="M880.017 477.772C880.017 477.772 880.261 477.577 880.017 477.925C877.151 481.683 859.74 504.454 857.636 508.547C855.334 513.056 859.587 502.464 859.587 502.464L880.017 477.772Z" fill="white"/>
<path d="M948.075 444.338C948.075 444.338 894.714 497.592 878.614 507.558C858.124 520.239 880.474 487.835 886.237 482.796C892 477.758 924.809 449.474 948.075 444.338Z" fill="white"/>
<path d="M870.915 509.632C870.915 509.632 871.845 508.741 871.54 509.131C868.338 513.307 849.144 535.577 846.781 540.157C844.219 545.195 848.305 534.213 848.305 534.213L870.915 509.632Z" fill="white"/>
<path d="M943.516 475.127C943.516 475.127 884.484 529.328 867.835 540.101C846.628 553.811 873.11 517.942 882.807 508.825C892.732 499.485 919.794 480.931 943.516 475.127Z" fill="white"/>
<path d="M859.969 542.398C859.969 542.398 860.929 541.437 860.624 541.855C857.224 546.323 836.962 570.068 834.416 574.954C831.626 580.299 836.231 568.663 836.231 568.663L859.969 542.398Z" fill="white"/>
<path d="M932.539 507.155C932.539 507.155 873.461 561.355 856.843 572.128C835.636 585.839 862.118 549.969 871.815 540.852C881.755 531.513 908.816 512.959 932.539 507.155Z" fill="white"/>
<path d="M848.991 574.411C848.991 574.411 849.952 573.451 849.647 573.868C846.247 578.336 825.421 602.889 822.86 607.789C820.07 613.134 824.979 600.37 824.979 600.37L848.991 574.411Z" fill="white"/>
<path d="M931.137 537.651C931.137 537.651 865.289 592.339 848.625 603.07C827.418 616.781 858.916 576.555 868.613 567.438C878.538 558.14 907.399 543.441 931.137 537.651Z" fill="white"/>
<path d="M842.009 605.451C842.009 605.451 842.573 604.949 842.207 605.451C838.167 610.851 812.904 639.928 809.687 645.816C806.165 652.204 812.066 637.033 812.066 637.033L842.009 605.451Z" fill="white"/>
<path d="M929.993 576.026C914.181 588.3 897.694 599.831 880.596 610.573C864.039 620.734 846.842 627.373 839.722 630.797C817.204 641.612 854.968 606.606 865.853 598.672C877.029 590.557 906.835 578.169 929.993 576.026Z" fill="white"/>
<path d="M833.166 631.841C833.166 631.841 833.73 631.34 833.364 631.841C829.324 637.241 802.095 668.685 799.137 674.572C798.436 675.964 802.811 663.562 802.811 663.562L833.166 631.841Z" fill="white"/>
<path d="M918.04 609.849C918.04 609.849 890.232 631.771 862.575 648.822C844.006 660.319 824.796 667.933 816.838 671.816C791.636 684.135 834.188 644.813 846.445 635.877C859.008 626.788 892.305 612.633 918.04 609.849Z" fill="white"/>
<path d="M903.038 667.334C903.038 667.334 869.406 675.547 842.969 685.011C812.02 696.147 807.324 696.968 800.281 697.288C777.9 698.304 834.111 665.344 846.43 661.864C859.054 658.273 884.926 658.371 903.038 667.334Z" fill="white"/>
<path d="M808.498 674.099C808.86 673.733 809.241 673.385 809.642 673.055C807.431 675.839 794.472 687.6 793.389 690.816C793.13 691.581 795.143 685.248 795.143 685.248L808.498 674.099Z" fill="white"/>
<path d="M797.719 694.755C797.719 694.755 798.573 694.17 798.451 694.295C797.247 695.687 788.907 700.823 788.846 702.563C788.846 702.981 788.846 699.501 788.846 699.501L797.719 694.755Z" fill="white"/>
<path d="M1209.95 398.531L1281.05 713.545L1271.87 712.488L1209.95 398.531Z" fill="white"/>
<path d="M1221.39 347.754C1221.39 347.754 1219.47 388.454 1209.95 398.531C1209.95 398.531 1198.44 373.839 1221.39 347.754Z" fill="white"/>
<path d="M1255.46 362.843C1255.46 362.843 1233.01 394.787 1219.35 399.895C1219.36 399.895 1221.62 376.595 1255.46 362.843Z" fill="white"/>
<path d="M1184.78 333.655C1184.78 333.655 1215.38 380.979 1208.14 396.582C1208.14 396.582 1168.81 373.407 1184.78 333.655Z" fill="white"/>
<path d="M1270.43 379.406C1270.43 379.406 1246.04 420.787 1238.24 432.298C1236.41 435.013 1234.93 436.182 1233.66 436.279C1230.09 436.571 1229.23 427.19 1230.08 420.871C1231.25 412.45 1243.01 387.243 1270.43 379.406Z" fill="white"/>
<path d="M1233.16 435.528C1233.16 435.528 1233.34 435.319 1233.23 435.667C1232.05 439.467 1224.8 462.489 1224.96 466.553C1225.14 470.993 1223.08 460.679 1223.08 460.679L1233.16 435.528Z" fill="white"/>
<path d="M1219.44 399.491C1219.44 399.491 1219.99 399.338 1219.91 399.491C1217.73 403.069 1215.58 418.533 1215.75 422.597C1215.93 427.037 1214.35 418.95 1214.35 418.95L1219.44 399.491Z" fill="white"/>
<path d="M1278.64 397.626C1278.64 397.626 1261.59 453.302 1250.2 465.175C1235.7 480.347 1237.29 449.975 1239.74 444.547C1242.2 439.119 1252.66 407.481 1278.64 397.626Z" fill="white"/>
<path d="M1219.44 399.491C1219.44 399.491 1219.99 399.338 1219.91 399.491C1217.73 403.069 1215.58 418.533 1215.75 422.597C1215.93 427.037 1214.35 418.95 1214.35 418.95L1219.44 399.491Z" fill="white"/>
<path d="M1242.61 467.291C1242.61 467.291 1242.81 467.054 1242.61 467.444C1241.33 471.619 1233.46 497.37 1233.46 501.879C1233.46 506.821 1231.73 495.379 1231.73 495.379L1242.61 467.291Z" fill="white"/>
<path d="M1314.53 423.85C1314.53 423.85 1278.16 485.636 1262.69 498.024C1242.98 513.794 1250.71 477.563 1255.07 471.578C1259.43 465.593 1285.27 432.243 1314.53 423.85Z" fill="white"/>
<path d="M1253.27 501.156C1253.27 501.156 1253.92 500.112 1253.79 500.557C1252.35 505.289 1241.59 530.664 1241.59 535.702C1241.68 541.27 1239.42 529.397 1239.42 529.397L1253.27 501.156Z" fill="white"/>
<path d="M1330.84 456.016C1330.84 456.016 1287.14 519.529 1271.38 532.821C1251.41 549.733 1262.45 509.396 1269.47 498.734C1276.78 487.835 1301.46 465.161 1330.84 456.016Z" fill="white"/>
<path d="M1262.02 536.231C1262.02 536.231 1262.69 535.118 1262.55 535.591C1261.03 540.63 1249.85 567.702 1249.85 573.061C1249.85 578.921 1247.78 566.366 1247.78 566.366L1262.02 536.231Z" fill="white"/>
<path d="M1339.03 490.327C1339.03 490.327 1295.33 553.839 1279.57 567.132C1259.6 584.043 1270.63 543.706 1277.66 533.044C1284.92 522.159 1309.6 499.471 1339.03 490.327Z" fill="white"/>
<path d="M1270.18 570.542C1270.18 570.542 1270.85 569.428 1270.71 569.901C1269.18 574.94 1257.8 602.917 1257.8 608.276C1257.8 614.136 1255.31 600.398 1255.31 600.398L1270.18 570.542Z" fill="white"/>
<path d="M1359.65 521.77C1359.65 521.77 1306.63 586.716 1290.93 600.008C1270.95 616.92 1285.88 571.446 1292.91 560.784C1300.09 549.872 1330.23 530.914 1359.65 521.77Z" fill="white"/>
<path d="M1283.26 603.293C1283.26 603.293 1283.68 602.695 1283.53 603.293C1281.79 609.376 1267.46 642.586 1267.22 649.017C1266.96 655.976 1264.08 639.691 1264.08 639.691L1283.26 603.293Z" fill="white"/>
<path d="M1386.49 561.258C1372.8 576.286 1357.89 590.352 1341.89 603.335C1325.88 615.973 1306.37 625.104 1298.79 629.572C1274.8 643.7 1302.48 602.722 1312.12 593.118C1322 583.305 1355.23 566.589 1386.49 561.258Z" fill="white"/>
<path d="M1290.27 631.535C1290.27 631.535 1290.7 630.936 1290.54 631.535C1288.81 637.617 1273.42 673.514 1273.58 679.945C1273.58 681.462 1270.63 668.169 1270.63 668.169L1290.27 631.535Z" fill="white"/>
<path d="M1394.63 597.586C1394.63 597.586 1371.32 623.754 1344.71 645.022C1326.84 659.303 1305.2 669.701 1296.78 674.767C1270.1 690.788 1301.35 644.744 1312.21 633.943C1323.22 622.877 1360.08 603.864 1394.63 597.586Z" fill="white"/>
<path d="M1415.91 658.482C1415.91 658.482 1374.2 671.44 1343.71 684.677C1307.97 700.197 1301.87 701.714 1292.08 703.023C1261.03 707.087 1316.48 665.72 1331.4 660.486C1346.66 655.141 1383.51 651.745 1415.91 658.482Z" fill="white"/>
<path d="M1286.53 678.191C1286.53 678.191 1287.48 676.674 1287.39 676.966C1286.31 680.112 1276.62 693.92 1277.46 697.358C1277.66 698.165 1275.79 691.358 1275.79 691.358L1286.53 678.191Z" fill="white"/>
<path d="M1286.63 700.837C1286.63 700.837 1287.39 700.114 1287.33 700.267C1286.61 701.798 1278.59 708.256 1279.81 710.01C1280.1 710.428 1277.48 706.878 1277.48 706.878L1286.63 700.837Z" fill="white"/>
<path d="M1186.73 360.101C1186.73 360.101 1201.84 399.004 1211.43 408.219C1211.42 408.219 1210.4 384.041 1186.73 360.101Z" fill="white"/>
<path d="M1169.86 376.094C1169.86 376.094 1195.26 405.671 1205.82 409.958C1198.54 395.175 1185.82 383.191 1169.86 376.094Z" fill="white"/>
<path d="M1205.58 344.929C1205.58 344.929 1201.93 391.599 1211.94 406.256C1211.92 406.256 1229.45 382.301 1205.58 344.929Z" fill="white"/>
<path d="M1165.83 392.629C1165.83 392.629 1195.73 431.157 1204.68 441.861C1206.78 444.38 1208.14 445.424 1208.95 445.466C1211.36 445.577 1208.72 436.558 1206.02 430.545C1202.41 422.513 1186.22 398.893 1165.83 392.629Z" fill="white"/>
<path d="M1209.04 444.7C1209.04 444.7 1208.84 444.505 1209.04 444.839C1211.1 448.431 1223.63 470.158 1224.91 474.069C1226.31 478.328 1224.12 468.362 1224.12 468.362L1209.04 444.7Z" fill="white"/>
<path d="M1205.62 409.555C1205.62 409.555 1205.21 409.429 1205.3 409.555C1207.93 412.881 1214.59 427.649 1215.87 431.505C1217.27 435.764 1215.53 427.956 1215.53 427.956L1205.62 409.555Z" fill="white"/>
<path d="M1166.75 410.46C1166.75 410.46 1196.72 462.962 1208.14 473.874C1222.68 487.793 1211.31 458.731 1207.87 453.636C1204.42 448.542 1186.89 418.713 1166.75 410.46Z" fill="white"/>
<path d="M1205.62 409.555C1205.62 409.555 1205.21 409.429 1205.3 409.555C1207.93 412.881 1214.59 427.649 1215.87 431.505C1217.27 435.764 1215.53 427.956 1215.53 427.956L1205.62 409.555Z" fill="white"/>
<path d="M1213.77 475.559C1213.77 475.559 1213.55 475.336 1213.77 475.712C1216.04 479.72 1229.88 503.967 1231.37 508.296C1233.01 513.028 1230.28 501.991 1230.28 501.991L1213.77 475.559Z" fill="white"/>
<path d="M1152.46 437.254C1152.46 437.254 1197.01 494.795 1211.25 505.958C1229.36 520.169 1212.01 485.817 1207.18 480.319C1202.35 474.821 1174.25 443.907 1152.46 437.254Z" fill="white"/>
<path d="M1218.42 508.477C1218.42 508.477 1217.64 507.517 1217.88 507.92C1220.43 512.388 1236.06 536.204 1237.7 541.033C1239.52 546.309 1236.95 534.895 1236.95 534.895L1218.42 508.477Z" fill="white"/>
<path d="M1152.89 468.752C1152.89 468.752 1202.77 527.616 1217.44 539.642C1236.1 554.952 1215.23 516.8 1207.06 506.904C1198.69 496.771 1175.01 476.227 1152.89 468.752Z" fill="white"/>
<path d="M1224.73 542.481C1224.73 542.481 1223.92 541.451 1224.16 541.883C1226.86 546.643 1243.31 572.059 1245.14 577.195C1247.14 582.763 1244.2 570.695 1244.2 570.695L1224.73 542.481Z" fill="white"/>
<path d="M1159.31 501.977C1159.31 501.977 1209.19 560.84 1223.86 572.866C1242.52 588.177 1221.65 550.025 1213.48 540.129C1205.12 530.01 1181.43 509.41 1159.31 501.977Z" fill="white"/>
<path d="M1231.15 575.706C1231.15 575.706 1230.34 574.676 1230.58 575.107C1233.28 579.867 1250.19 606.16 1252 611.296C1254 616.864 1250.92 603.627 1250.92 603.627L1231.15 575.706Z" fill="white"/>
<path d="M1156.72 533.03C1156.72 533.03 1213.13 592.882 1227.79 604.866C1246.45 620.177 1221.31 577.278 1213.14 567.382C1204.77 557.263 1178.84 540.463 1156.72 533.03Z" fill="white"/>
<path d="M1233.86 607.664C1233.86 607.664 1233.37 607.121 1233.68 607.664C1236.88 613.412 1257.46 644.577 1259.81 650.715C1262.37 657.424 1258.67 641.64 1258.67 641.64L1233.86 607.664Z" fill="white"/>
<path d="M1152.83 572.073C1166.45 585.534 1180.86 598.316 1195.99 610.364C1210.64 621.75 1226.36 629.614 1232.78 633.553C1253.1 646.01 1221.24 607.998 1211.74 599.243C1202.01 590.279 1174.89 575.747 1152.83 572.073Z" fill="white"/>
<path d="M1238.95 635.042C1238.95 635.042 1238.46 634.499 1238.77 635.042C1241.97 640.791 1264.14 674.489 1266.21 680.655C1266.7 682.047 1264.09 669.241 1264.09 669.241L1238.95 635.042Z" fill="white"/>
<path d="M1159.95 607.232C1175.26 622.373 1191.42 636.776 1208.37 650.381C1224.77 663.256 1242.32 672.234 1249.53 676.702C1272.23 690.843 1236.31 648.154 1225.64 638.285C1214.68 628.236 1184.48 611.686 1159.95 607.232Z" fill="white"/>
<path d="M1166.96 666.527C1166.96 666.527 1198.34 677.064 1222.55 688.352C1250.95 701.603 1255.37 702.8 1262.19 703.593C1283.64 706.085 1233.71 668.963 1222.29 664.62C1210.56 660.194 1185.59 658.565 1166.96 666.527Z" fill="white"/>
<path d="M1257.26 679.555C1256.96 679.159 1256.63 678.778 1256.29 678.414C1258.06 681.379 1269.02 694.17 1269.66 697.497C1269.81 698.29 1268.7 691.679 1268.7 691.679L1257.26 679.555Z" fill="white"/>
<path d="M1264.96 701.269C1264.96 701.269 1264.21 700.615 1264.31 700.754C1265.28 702.146 1272.66 708.006 1272.49 709.773C1272.49 710.191 1272.94 706.669 1272.94 706.669L1264.96 701.269Z" fill="white"/>
<path d="M1182 657.15C1182 657.15 1178.47 658.294 1172.74 659.914C1160.06 663.513 1136.6 669.482 1116.72 670.674C1099.61 671.713 1085.15 669.215 1082.5 658.645C1081.37 654.099 1082.97 650.36 1086.48 647.288C1096.94 638.106 1124.27 634.816 1145.94 633.687C1152.06 633.371 1157.72 633.224 1162.43 633.168C1170.43 633.07 1175.68 633.224 1175.68 633.224L1175.81 633.687L1182 657.15Z" fill="#A0616A"/>
<path d="M1122.78 690.785C1109.16 706.75 1052.94 673.305 1033.27 660.833C1028.99 658.118 1026.44 656.4 1026.44 656.4L1044.43 633.687L1050.13 626.497C1050.13 626.497 1055.23 629.057 1062.76 633.224C1063.04 633.378 1063.31 633.533 1063.59 633.687C1070.09 637.299 1078.25 642.02 1086.48 647.288C1097.84 654.562 1109.32 662.86 1116.72 670.674C1123.96 678.313 1127.29 685.489 1122.78 690.785Z" fill="#A0616A"/>
<path d="M1121.06 353.645C1151.15 353.403 1175.34 330.114 1175.08 301.627C1174.83 273.14 1150.23 250.243 1120.14 250.484C1090.05 250.726 1065.86 274.015 1066.12 302.502C1066.37 330.988 1090.97 353.886 1121.06 353.645Z" fill="#A0616A"/>
<path d="M1080.16 328.181C1080.16 328.181 1091.08 401.357 1075.37 409.707C1059.65 418.057 1169.41 417.923 1169.41 417.923C1169.41 417.923 1144.36 354.579 1155.24 335.054L1080.16 328.181Z" fill="#A0616A"/>
<path d="M1249.56 417.65L1240.78 457.073L1222.23 540.48L1221.69 545.044L1215.5 597.879L1211.39 632.979L1208.63 656.557C1190.64 665.491 1177.6 671.663 1177.6 671.663C1177.6 671.663 1176.43 666.328 1174.55 659.503C1161.91 663.203 1138.51 669.361 1118.64 670.712C1125.95 678.293 1129.34 685.442 1124.87 690.774C1111.4 706.847 1054.88 673.855 1035.1 661.542C1034.67 664.531 1034.52 667.552 1034.66 670.566L1019.52 659.73L1020.78 634.51L1022.91 591.836L1025.59 538.32C1024.57 536.038 1023.72 533.694 1023.03 531.305C1018.28 515.826 1012.41 484.889 1007.89 458.943C1004.25 438.061 1001.5 420.413 1000.91 416.658C1000.84 416.168 1000.8 415.915 1000.8 415.915L1083.78 380.399C1089.82 393.349 1117.5 397.034 1117.5 397.034C1140.39 395.356 1158.24 383.78 1158.24 383.78L1249.56 417.65Z" fill="white"/>
<path d="M1074.84 253.638L1064.61 249.859C1064.61 249.859 1085.72 227.488 1115.37 229.18L1106.95 220.56C1106.95 220.56 1127.26 212.674 1145.96 232.796C1155.8 243.373 1167.17 255.808 1174.32 269.86L1185.23 269.773L1180.76 279.301L1196.78 288.665L1180.41 287.091C1181.43 292.281 1181.63 297.586 1181 302.831C1180.34 308.078 1177.56 312.878 1173.24 316.219C1173.24 316.219 1160.38 291.564 1160.35 287.703L1160.43 297.355C1160.43 297.355 1150.17 288.75 1150.12 282.959L1144.62 289.76L1141.75 279.164L1107.58 290.058L1113.06 281.326L1091.78 284.392L1100.02 273.708C1100.02 273.708 1076.06 286.449 1075.23 297.074C1074.39 307.7 1067.44 317.817 1067.44 317.817C1067.44 317.817 1048.11 268.333 1074.84 253.638Z" fill="#2F2E41"/>
<path d="M1310.4 598.079C1304.9 603.819 1291.23 612.507 1274.64 621.928C1268.47 625.429 1261.9 629.039 1255.2 632.628C1239.2 641.195 1222.45 649.691 1208.63 656.557C1190.64 665.491 1177.6 671.663 1177.6 671.663C1177.6 671.663 1176.43 666.328 1174.55 659.503C1172.04 650.369 1168.28 638.566 1164.41 633.357C1164.28 633.175 1164.14 633.008 1164.01 632.84C1162.88 631.468 1161.76 630.67 1160.65 630.678L1215.5 597.879L1239.2 583.702L1221.69 545.043L1199.72 496.552L1212.37 457.301L1225.08 417.846L1249.56 417.65C1249.56 417.65 1257.81 434.334 1268.39 457.609C1269.97 461.09 1271.6 464.717 1273.26 468.463C1295.03 517.392 1322.22 585.743 1310.4 598.079Z" fill="#EEEEEE"/>
<path d="M1064.34 633.697C1062.33 633.705 1060.33 633.876 1058.35 634.207C1041.34 637.115 1036.44 651.752 1035.1 661.542C1034.67 664.531 1034.52 667.552 1034.66 670.566L1019.52 659.73L1014 655.783C1000.77 651.533 988.939 643.891 978.662 634.847C969.746 626.862 961.733 618.019 954.752 608.461C947.801 599.04 941.59 589.149 936.171 578.867C934.659 575.998 933.832 572.849 933.748 569.643C933.664 566.438 934.326 563.254 935.686 560.317L953.968 520.853L980.688 463.173C980.876 461.804 981.084 460.465 981.312 459.156C986.451 429.793 1000.8 416.659 1000.8 416.659L1011.86 416.57L1019.63 458.848L1029.29 511.375L1023.03 531.304L1008.56 577.332L1022.91 591.836L1064.34 633.697Z" fill="#EEEEEE"/>
<path d="M1075.27 510.667L1084.72 521.104C1088.24 520.471 1091.9 519.726 1095.68 518.89L1092.96 510.667L1099.6 517.997C1139.61 508.681 1189.2 490.57 1189.2 490.57C1189.2 490.57 1135.66 494.286 1095.69 486.018C1078 482.36 1059.8 490.66 1052.55 506.361C1048.33 515.488 1048.99 523.395 1063.95 523.395C1069.01 523.313 1074.05 522.864 1079.03 522.052L1075.27 510.667Z" fill="#38D39F"/>
<path d="M1290.72 682.227V686.485C1290.72 687.654 1290.49 688.813 1290.04 689.901C1289.84 690.387 1289.6 690.856 1289.32 691.304C1288.44 692.707 1287.19 693.869 1285.69 694.676C1284.19 695.483 1282.49 695.906 1280.76 695.906H949.904C948.18 695.906 946.484 695.483 944.983 694.676C943.483 693.869 942.23 692.707 941.347 691.304C941.067 690.856 940.827 690.387 940.628 689.901C940.181 688.813 939.952 687.654 939.954 686.485V682.227C939.954 680.99 940.211 679.765 940.711 678.622C941.21 677.478 941.944 676.44 942.868 675.565C943.792 674.69 944.889 673.996 946.096 673.523C947.304 673.05 948.597 672.806 949.904 672.807H968.976V670.822C968.976 670.77 968.987 670.719 969.008 670.671C969.028 670.623 969.059 670.58 969.097 670.544C969.136 670.507 969.182 670.478 969.232 670.458C969.283 670.439 969.337 670.429 969.391 670.429H979.341C979.396 670.429 979.45 670.439 979.501 670.458C979.551 670.478 979.597 670.507 979.636 670.544C979.674 670.58 979.704 670.623 979.725 670.671C979.746 670.719 979.756 670.77 979.756 670.822V672.807H985.973V670.822C985.973 670.77 985.984 670.719 986.005 670.671C986.025 670.623 986.056 670.58 986.094 670.544C986.133 670.507 986.179 670.478 986.229 670.458C986.279 670.439 986.334 670.429 986.388 670.429H996.338C996.393 670.429 996.447 670.439 996.498 670.458C996.548 670.478 996.593 670.507 996.632 670.544C996.671 670.58 996.701 670.623 996.722 670.671C996.743 670.719 996.753 670.77 996.753 670.822V672.807H1002.98V670.822C1002.98 670.77 1002.99 670.719 1003.01 670.671C1003.03 670.623 1003.06 670.58 1003.1 670.544C1003.14 670.507 1003.18 670.478 1003.23 670.458C1003.28 670.439 1003.34 670.429 1003.39 670.429H1013.34C1013.4 670.429 1013.45 670.439 1013.5 670.458C1013.55 670.478 1013.6 670.507 1013.64 670.544C1013.68 670.58 1013.71 670.623 1013.73 670.671C1013.75 670.719 1013.76 670.77 1013.76 670.822V672.807H1019.97V670.822C1019.97 670.77 1019.98 670.719 1020.01 670.671C1020.03 670.623 1020.06 670.58 1020.1 670.544C1020.13 670.507 1020.18 670.478 1020.23 670.458C1020.28 670.439 1020.33 670.429 1020.39 670.429H1030.34C1030.39 670.429 1030.45 670.439 1030.5 670.458C1030.55 670.478 1030.59 670.507 1030.63 670.544C1030.67 670.58 1030.7 670.623 1030.72 670.671C1030.74 670.719 1030.75 670.77 1030.75 670.822V672.807H1036.97V670.822C1036.97 670.77 1036.98 670.719 1037 670.671C1037.02 670.623 1037.05 670.58 1037.09 670.544C1037.13 670.507 1037.18 670.478 1037.23 670.458C1037.28 670.439 1037.33 670.429 1037.39 670.429H1047.34C1047.39 670.429 1047.45 670.439 1047.5 670.458C1047.55 670.478 1047.59 670.507 1047.63 670.544C1047.67 670.58 1047.7 670.623 1047.72 670.671C1047.74 670.719 1047.75 670.77 1047.75 670.822V672.807H1053.97V670.822C1053.97 670.77 1053.99 670.719 1054.01 670.671C1054.03 670.623 1054.06 670.58 1054.1 670.544C1054.13 670.507 1054.18 670.478 1054.23 670.458C1054.28 670.439 1054.34 670.429 1054.39 670.429H1064.34C1064.4 670.429 1064.45 670.439 1064.5 670.458C1064.55 670.478 1064.6 670.507 1064.63 670.544C1064.67 670.58 1064.7 670.623 1064.72 670.671C1064.75 670.719 1064.76 670.77 1064.76 670.822V672.807H1070.97V670.822C1070.97 670.77 1070.98 670.719 1071 670.671C1071.02 670.623 1071.05 670.58 1071.09 670.544C1071.13 670.507 1071.18 670.478 1071.23 670.458C1071.28 670.439 1071.33 670.429 1071.39 670.429H1149.33C1149.39 670.429 1149.44 670.439 1149.49 670.458C1149.54 670.478 1149.59 670.507 1149.63 670.544C1149.66 670.58 1149.7 670.623 1149.72 670.671C1149.74 670.719 1149.75 670.77 1149.75 670.822V672.807H1155.97V670.822C1155.97 670.77 1155.98 670.719 1156 670.671C1156.02 670.623 1156.05 670.58 1156.09 670.544C1156.13 670.507 1156.18 670.478 1156.23 670.458C1156.28 670.439 1156.33 670.429 1156.39 670.429H1166.34C1166.45 670.43 1166.55 670.472 1166.63 670.545C1166.71 670.618 1166.75 670.718 1166.75 670.822V672.807H1172.97V670.822C1172.97 670.77 1172.98 670.719 1173 670.671C1173.02 670.623 1173.05 670.58 1173.09 670.544C1173.13 670.507 1173.17 670.478 1173.22 670.458C1173.27 670.439 1173.33 670.429 1173.38 670.429H1183.33C1183.39 670.429 1183.44 670.439 1183.49 670.458C1183.54 670.478 1183.59 670.507 1183.63 670.544C1183.67 670.58 1183.7 670.623 1183.72 670.671C1183.74 670.719 1183.75 670.77 1183.75 670.822V672.807H1189.96V670.822C1189.96 670.77 1189.98 670.719 1190 670.671C1190.02 670.623 1190.05 670.58 1190.09 670.544C1190.12 670.507 1190.17 670.478 1190.22 670.458C1190.27 670.439 1190.33 670.429 1190.38 670.429H1200.33C1200.38 670.429 1200.44 670.439 1200.49 670.458C1200.54 670.478 1200.59 670.507 1200.62 670.544C1200.66 670.58 1200.69 670.623 1200.71 670.671C1200.73 670.719 1200.74 670.77 1200.74 670.822V672.807H1206.97V670.822C1206.97 670.77 1206.98 670.719 1207 670.671C1207.02 670.623 1207.05 670.58 1207.09 670.544C1207.13 670.507 1207.17 670.478 1207.23 670.458C1207.28 670.439 1207.33 670.429 1207.38 670.429H1217.33C1217.44 670.43 1217.55 670.472 1217.62 670.546C1217.7 670.619 1217.74 670.719 1217.74 670.822V672.807H1223.97V670.822C1223.97 670.77 1223.98 670.719 1224 670.671C1224.02 670.623 1224.05 670.58 1224.09 670.544C1224.13 670.507 1224.17 670.478 1224.22 670.458C1224.27 670.439 1224.33 670.429 1224.38 670.429H1234.33C1234.39 670.429 1234.44 670.439 1234.49 670.458C1234.54 670.478 1234.59 670.507 1234.63 670.544C1234.66 670.58 1234.69 670.623 1234.71 670.671C1234.74 670.719 1234.75 670.77 1234.75 670.822V672.807H1240.96V670.822C1240.96 670.77 1240.97 670.719 1240.99 670.671C1241.02 670.623 1241.05 670.58 1241.08 670.544C1241.12 670.507 1241.17 670.478 1241.22 670.458C1241.27 670.439 1241.32 670.429 1241.38 670.429H1251.33C1251.38 670.429 1251.44 670.439 1251.49 670.458C1251.54 670.478 1251.58 670.507 1251.62 670.544C1251.66 670.58 1251.69 670.623 1251.71 670.671C1251.73 670.719 1251.74 670.77 1251.74 670.822V672.807H1280.76C1282.07 672.806 1283.37 673.05 1284.57 673.523C1285.78 673.996 1286.88 674.69 1287.8 675.565C1288.73 676.44 1289.46 677.478 1289.96 678.622C1290.46 679.765 1290.72 680.99 1290.72 682.227Z" fill="#3F3D56"/>
<path d="M1386.92 689.901H843.826V691.304H1386.92V689.901Z" fill="#3F3D56"/>
<path d="M1264.07 502.916H1140.75V500.51H1084.83V502.916H961.004C958.792 502.916 956.67 503.748 955.106 505.229C953.541 506.711 952.662 508.719 952.662 510.813V670.682C952.662 672.777 953.541 674.785 955.106 676.266C956.67 677.747 958.792 678.579 961.004 678.579H1264.07C1266.29 678.579 1268.41 677.747 1269.97 676.266C1271.54 674.785 1272.42 672.777 1272.42 670.682V510.813C1272.42 509.777 1272.2 508.75 1271.78 507.792C1271.36 506.833 1270.75 505.963 1269.97 505.229C1269.2 504.496 1268.28 503.915 1267.27 503.518C1266.26 503.121 1265.17 502.916 1264.07 502.916Z" fill="#3F3D56"/>
<path d="M1112.78 576.266C1123.01 576.266 1131.31 568.415 1131.31 558.73C1131.31 549.045 1123.01 541.194 1112.78 541.194C1102.55 541.194 1094.26 549.045 1094.26 558.73C1094.26 568.415 1102.55 576.266 1112.78 576.266Z" stroke="#D0CDE1" stroke-width="2" stroke-miterlimit="10"/>
<path d="M1106.85 582.579C1117.08 582.579 1125.38 574.728 1125.38 565.043C1125.38 555.358 1117.08 547.507 1106.85 547.507C1096.62 547.507 1088.33 555.358 1088.33 565.043C1088.33 574.728 1096.62 582.579 1106.85 582.579Z" fill="#D0CDE1"/>
<path d="M879.35 682.814H858.605V702.455H879.35V682.814Z" fill="#D0CDE1"/>
<path d="M866.758 667.383V691.232H891.949V667.383H866.758ZM890.853 690.194H867.847V668.421H890.853V690.194Z" fill="#3F3D56"/>
<path d="M1359.47 682.814H1338.72V702.455H1359.47V682.814Z" fill="#D0CDE1"/>
<path d="M1346.88 667.383V691.232H1372.07V667.383H1346.88ZM1370.97 690.194H1347.97V668.421H1370.97V690.194Z" fill="#3F3D56"/>
<path d="M869.077 380.413C901.543 380.413 927.863 355.496 927.863 324.76C927.863 294.023 901.543 269.106 869.077 269.106C836.611 269.106 810.291 294.023 810.291 324.76C810.291 355.496 836.611 380.413 869.077 380.413Z" fill="#38D39F"/>
<path d="M889.563 258.625C884.24 257.984 878.853 257.984 873.53 258.625C861.672 260.099 850.509 264.762 841.367 272.062C832.224 279.362 825.486 288.992 821.95 299.808C820.343 304.737 819.432 309.848 819.243 315.003C819.216 315.72 819.198 316.445 819.198 317.171C819.215 332.82 825.789 347.825 837.478 358.891C849.167 369.957 865.016 376.181 881.547 376.197C882.874 376.197 884.201 376.154 885.51 376.078C888.583 375.896 891.638 375.495 894.648 374.881C909.024 371.955 921.844 364.313 930.846 353.305C939.846 342.298 944.45 328.633 943.841 314.725C943.232 300.816 937.452 287.558 927.52 277.293C917.588 267.028 904.144 260.416 889.563 258.625ZM901.061 371.458H901.052C896.031 373.08 890.804 374.064 885.51 374.384C884.201 374.468 882.874 374.51 881.547 374.51C865.489 374.492 850.095 368.444 838.741 357.695C827.387 346.946 820.999 332.372 820.98 317.171C820.98 316.445 820.997 315.72 821.024 315.003C821.636 300.189 828.278 286.172 839.559 275.888C850.84 265.604 865.886 259.85 881.547 259.831C895.895 259.831 909.778 264.655 920.722 273.442C931.664 282.228 938.957 294.408 941.3 307.81C943.643 321.212 940.884 334.967 933.515 346.623C926.146 358.279 914.645 367.08 901.061 371.458Z" fill="#3F3D56"/>
<path d="M882.437 263.204H880.656V275.009H882.437V263.204Z" fill="#3F3D56"/>
<path d="M841.868 278.414L840.609 279.607L849.426 287.954L850.686 286.762L841.868 278.414Z" fill="#3F3D56"/>
<path d="M824.542 316.327V318.014H837.012V316.327H824.542Z" fill="#3F3D56"/>
<path d="M840.609 354.735L841.868 355.927L850.686 347.58L849.426 346.387L840.609 354.735Z" fill="#3F3D56"/>
<path d="M912.408 286.762L913.667 287.954L922.484 279.606L921.225 278.414L912.408 286.762Z" fill="#3F3D56"/>
<path d="M926.081 316.327V318.014H938.55V316.327H926.081Z" fill="#3F3D56"/>
<path d="M913.667 346.387L912.408 347.579L921.225 355.927L922.484 354.735L913.667 346.387Z" fill="#3F3D56"/>
<path d="M882.437 359.332H880.656V371.137H882.437V359.332Z" fill="#3F3D56"/>
<path d="M884.218 313.797C883.448 313.25 882.511 312.954 881.547 312.954C880.583 312.954 879.645 313.25 878.875 313.797C878.347 314.177 877.912 314.66 877.601 315.214C877.206 315.927 877.036 316.732 877.109 317.535C877.183 318.336 877.497 319.102 878.015 319.74C878.533 320.378 879.233 320.863 880.034 321.137C880.833 321.41 881.699 321.461 882.528 321.283C883.358 321.106 884.116 320.707 884.714 320.134C885.312 319.562 885.724 318.839 885.902 318.052C886.08 317.265 886.015 316.445 885.717 315.692C885.419 314.938 884.899 314.281 884.219 313.797H884.218ZM881.547 319.7C880.838 319.698 880.16 319.431 879.659 318.957C879.159 318.483 878.877 317.841 878.875 317.171C878.878 316.659 879.042 316.16 879.347 315.737C879.608 315.379 879.962 315.091 880.374 314.901C880.788 314.71 881.246 314.624 881.704 314.65C882.162 314.676 882.606 314.814 882.992 315.05C883.377 315.286 883.693 315.612 883.906 315.997C884.12 316.382 884.225 316.813 884.212 317.247C884.198 317.682 884.066 318.106 883.829 318.478C883.592 318.851 883.257 319.159 882.857 319.372C882.457 319.586 882.006 319.699 881.547 319.7Z" fill="#3F3D56"/>
<path d="M889.563 243.809H873.531V258.988H889.563V243.809Z" fill="#3F3D56"/>
<path d="M881.547 246.339C893.353 246.339 902.923 243.13 902.923 239.171C902.923 235.213 893.353 232.004 881.547 232.004C869.74 232.004 860.17 235.213 860.17 239.171C860.17 243.13 869.74 246.339 881.547 246.339Z" fill="#3F3D56"/>
<path d="M884.207 279.325H879.02V313.696H884.207V279.325Z" fill="#3F3D56"/>
<path d="M966.449 373.628H799V375.314H966.449V373.628Z" fill="#3F3D56"/>
<path d="M910.579 639.697C911.27 662.108 897.438 670.322 880.08 670.801C879.676 670.813 879.275 670.82 878.876 670.822C878.071 670.828 877.274 670.815 876.484 670.784C860.785 670.167 848.358 662.277 847.716 641.435C847.05 619.866 875.329 591.841 877.451 589.768L877.454 589.766C877.535 589.687 877.577 589.647 877.577 589.647C877.577 589.647 909.888 617.288 910.579 639.697Z" fill="#D0CDE1"/>
<path d="M878.83 667.405L889.857 651.881L878.853 669.075L878.876 670.822C878.071 670.828 877.274 670.815 876.484 670.784L877.031 648.329L877.016 648.156L877.036 648.123L877.088 646.001L865.013 629.403L877.074 644.413L877.117 644.861L877.53 627.896L867.1 610.687L877.56 624.915L877.451 589.768V589.651L877.454 589.766L878.146 617.467L887.653 606.215L878.178 619.853L878.385 635.028L887.132 620.218L878.418 637.259L878.533 645.697L891.254 625.067L878.572 648.641L878.83 667.405Z" fill="#3F3D56"/>
<path d="M1390.7 639.697C1391.39 662.108 1377.56 670.322 1360.2 670.801C1359.8 670.813 1359.4 670.82 1359 670.822C1358.19 670.828 1357.39 670.815 1356.6 670.784C1340.91 670.167 1328.48 662.277 1327.84 641.435C1327.17 619.866 1355.45 591.841 1357.57 589.768L1357.57 589.766C1357.66 589.687 1357.7 589.647 1357.7 589.647C1357.7 589.647 1390.01 617.288 1390.7 639.697Z" fill="#D0CDE1"/>
<path d="M1358.95 667.405L1369.98 651.881L1358.97 669.075L1359 670.822C1358.19 670.828 1357.39 670.815 1356.6 670.784L1357.15 648.329L1357.14 648.156L1357.16 648.123L1357.21 646.001L1345.13 629.403L1357.19 644.413L1357.24 644.861L1357.65 627.896L1347.22 610.687L1357.68 624.915L1357.57 589.768V589.651L1357.57 589.766L1358.27 617.467L1367.77 606.215L1358.3 619.853L1358.51 635.028L1367.25 620.218L1358.54 637.259L1358.65 645.697L1371.37 625.067L1358.69 648.641L1358.95 667.405Z" fill="#3F3D56"/>
</g>
<g style="mix-blend-mode:exclusion" opacity="0.4" filter="url(#filter1_f)">
<path d="M-0.471821 -20.1404C15.9022 -29.503 103.314 -54.0967 321.97 -77.5702H352.619C373.681 -83.1711 421.222 -98.0343 442.886 -112.68C469.966 -130.987 501.454 -137.759 539.03 -154.561C576.607 -171.364 588.362 -182.649 600.118 -186.913C611.874 -191.176 608.305 -192.43 631.816 -200.957C655.328 -209.483 644.622 -200.957 683.248 -209.233C721.873 -217.508 711.587 -204.969 730.27 -200.957C748.953 -196.944 739.717 -181.145 739.717 -154.561C739.717 -127.978 744.335 -135 739.717 -112.68C735.099 -90.3603 720.824 -43.965 711.587 -20.1404C702.351 3.68427 683.248 -8.855 608.305 58.3555C533.363 125.566 608.305 73.9042 608.305 94.7194C608.305 115.535 610.614 107.509 608.305 193.027C605.996 278.545 598.859 237.667 588.362 257.479C577.866 277.291 583.744 270.018 552.046 293.843C520.347 317.668 535.462 305.128 523.916 307.887C512.37 310.646 505.023 330.207 383.058 389.141C336.203 396.966 351.779 374.68 365.424 362.558C342.333 375.181 290.062 400.427 265.711 400.427C235.272 400.427 251.646 400.427 221.207 410.207C190.768 419.988 196.436 410.207 181.322 379.361C166.207 348.514 160.119 396.163 155.501 400.427C150.883 404.69 142.486 410.207 68.5929 422.747C35.635 435.286 38.154 421.242 -0.471821 422.747C-39.0977 424.251 12.3335 417.229 38.154 410.207C63.9746 403.185 87.4859 387.637 101.551 379.361C115.616 371.085 46.341 375.097 54.528 362.558C61.0776 352.527 51.799 330.29 46.341 320.426C28.3576 324.606 -10.1703 330.458 -20.4145 320.426C-33.2198 307.887 -7.6092 299.36 -7.6092 284.062C-7.6092 268.764 29.967 254.47 54.528 237.667C79.089 220.864 63.9746 193.027 54.528 193.027C45.0815 193.027 41.7227 193.027 21.78 208.325C1.83733 223.623 -28.8114 225.128 -20.4145 193.027C-12.0176 160.927 -7.6092 176.225 -0.471821 155.159C6.66556 134.093 20.5205 131.334 29.967 122.807C39.4136 114.281 54.528 107.509 87.4859 73.9042C113.852 47.02 98.4719 41.1349 87.4859 41.5529C80.8384 44.3951 60.028 54.8445 29.967 73.9042C-7.6092 97.7288 7.71518 82.1801 -7.6092 80.9262C-22.9336 79.6722 -0.471821 54.0921 -0.471821 41.5529V-20.1404Z" fill="url(#paint2_linear)"/>
<path d="M-0.471821 -20.1404C15.9022 -29.503 103.314 -54.0967 321.97 -77.5702H352.619C373.681 -83.1711 421.222 -98.0343 442.886 -112.68C469.966 -130.987 501.454 -137.759 539.03 -154.561C576.607 -171.364 588.362 -182.649 600.118 -186.913C611.874 -191.176 608.305 -192.43 631.816 -200.957C655.328 -209.483 644.622 -200.957 683.248 -209.233C721.873 -217.508 711.587 -204.969 730.27 -200.957C748.953 -196.944 739.717 -181.145 739.717 -154.561C739.717 -127.978 744.335 -135 739.717 -112.68C735.099 -90.3603 720.824 -43.965 711.587 -20.1404C702.351 3.68427 683.248 -8.855 608.305 58.3555C533.363 125.566 608.305 73.9042 608.305 94.7194C608.305 115.535 610.614 107.509 608.305 193.027C605.996 278.545 598.859 237.667 588.362 257.479C577.866 277.291 583.744 270.018 552.046 293.843C520.347 317.668 535.462 305.128 523.916 307.887C512.37 310.646 505.023 330.207 383.058 389.141C336.203 396.966 351.779 374.68 365.424 362.558C342.333 375.181 290.062 400.427 265.711 400.427C235.272 400.427 251.646 400.427 221.207 410.207C190.768 419.988 196.436 410.207 181.322 379.361C166.207 348.514 160.119 396.163 155.501 400.427C150.883 404.69 142.486 410.207 68.5929 422.747C35.635 435.286 38.154 421.242 -0.471821 422.747C-39.0977 424.251 12.3335 417.229 38.154 410.207C63.9746 403.185 87.4859 387.637 101.551 379.361C115.616 371.085 46.341 375.097 54.528 362.558C61.0776 352.527 51.799 330.29 46.341 320.426C28.3576 324.606 -10.1703 330.458 -20.4145 320.426C-33.2198 307.887 -7.6092 299.36 -7.6092 284.062C-7.6092 268.764 29.967 254.47 54.528 237.667C79.089 220.864 63.9746 193.027 54.528 193.027C45.0815 193.027 41.7227 193.027 21.78 208.325C1.83733 223.623 -28.8114 225.128 -20.4145 193.027C-12.0176 160.927 -7.6092 176.225 -0.471821 155.159C6.66556 134.093 20.5205 131.334 29.967 122.807C39.4136 114.281 54.528 107.509 87.4859 73.9042C113.852 47.02 98.4719 41.1349 87.4859 41.5529C80.8384 44.3951 60.028 54.8445 29.967 73.9042C-7.6092 97.7288 7.71518 82.1801 -7.6092 80.9262C-22.9336 79.6722 -0.471821 54.0921 -0.471821 41.5529V-20.1404Z" stroke="black"/>
</g>
</g>
<ellipse cx="344" cy="797.5" rx="344" ry="164.5" fill="url(#paint3_linear)" fill-opacity="0.4"/>
<defs>
<filter id="filter0_f" x="670.5" y="-155.501" width="1234.4" height="1078.31" filterUnits="userSpaceOnUse" color-interpolation-filters="sRGB">
<feFlood flood-opacity="0" result="BackgroundImageFix"/>
<feBlend mode="normal" in="SourceGraphic" in2="BackgroundImageFix" result="shape"/>
<feGaussianBlur stdDeviation="2" result="effect1_foregroundBlur"/>
</filter>
<filter id="filter1_f" x="-28.5002" y="-216.5" width="775" height="649" filterUnits="userSpaceOnUse" color-interpolation-filters="sRGB">
<feFlood flood-opacity="0" result="BackgroundImageFix"/>
<feBlend mode="normal" in="SourceGraphic" in2="BackgroundImageFix" result="shape"/>
<feGaussianBlur stdDeviation="2" result="effect1_foregroundBlur"/>
</filter>
<linearGradient id="paint0_linear" x1="1738.4" y1="86.0103" x2="765.901" y2="767.51" gradientUnits="userSpaceOnUse">
<stop offset="0.0265589" stop-color="#0CA8FF"/>
<stop offset="1" stop-color="#18B1E1" stop-opacity="0"/>
<stop offset="1" stop-color="#11FFA9" stop-opacity="0"/>
</linearGradient>
<linearGradient id="paint1_linear" x1="1287.7" y1="-151" x2="1287.7" y2="918.31" gradientUnits="userSpaceOnUse">
<stop stop-color="#AA7C7C"/>
<stop offset="1" stop-color="#4E1111" stop-opacity="0"/>
</linearGradient>
<linearGradient id="paint2_linear" x1="683.651" y1="-118.206" x2="-39.8807" y2="198.605" gradientUnits="userSpaceOnUse">
<stop stop-color="#2DEB9B"/>
<stop offset="0.142487" stop-color="#5AC68E" stop-opacity="0.835417"/>
<stop offset="0.779167" stop-color="#1FD3FB" stop-opacity="0"/>
<stop offset="1" stop-color="#0AF8B0" stop-opacity="0"/>
</linearGradient>
<linearGradient id="paint3_linear" x1="344" y1="633" x2="344" y2="962" gradientUnits="userSpaceOnUse">
<stop stop-color="#26F4CF"/>
<stop offset="1" stop-color="#29EBBC" stop-opacity="0"/>
</linearGradient>
<clipPath id="clip0">
<rect width="1440" height="1024" fill="white" transform="translate(176)"/>
</clipPath>
<clipPath id="clip1">
<rect width="1277" height="803" fill="white" transform="translate(503 108)"/>
</clipPath>
</defs>
</svg>
